LilGrotesk-Bold.ufo
<glyph name="exclam" format="2">
  <advance width="318"/>
  <unicode hex="0021"/>
  <outline>
    <contour>
      <point x="89" y="228" type="line"/>
      <point x="229" y="228" type="line"/>
      <point x="248" y="720" type="line"/>
      <point x="70" y="720" type="line"/>
    </contour>
    <component base="period" xOffset="27"/>
  </outline>
</glyph>
<glyph name="quotedbl" format="2">
  <advance width="465.0"/>
  <unicode hex="0022"/>
  <note>
quotedbl
</note>
  <outline>
    <contour>
      <point x="77.0" y="549.0" type="line"/>
      <point x="177.0" y="549.0" type="line"/>
      <point x="193.0" y="767.0" type="line"/>
      <point x="61.0" y="767.0" type="line"/>
    </contour>
    <contour>
      <point x="300.0" y="549.0" type="line"/>
      <point x="400.0" y="549.0" type="line"/>
      <point x="415.0" y="767.0" type="line"/>
      <point x="284.0" y="767.0" type="line"/>
    </contour>
  </outline>
</glyph>
<glyph name="numbersign" format="2">
  <advance width="708"/>
  <unicode hex="0023"/>
  <outline>
    <contour>
      <point x="58" y="3" type="line"/>
      <point x="205" y="3" type="line"/>
      <point x="249" y="163" type="line"/>
      <point x="352" y="163" type="line"/>
      <point x="308" y="3" type="line"/>
      <point x="455" y="3" type="line"/>
      <point x="499" y="163" type="line"/>
      <point x="624" y="163" type="line"/>
      <point x="624" y="295" type="line"/>
      <point x="535" y="295" type="line"/>
      <point x="572" y="431" type="line"/>
      <point x="696" y="431" type="line"/>
      <point x="696" y="563" type="line"/>
      <point x="609" y="563" type="line"/>
      <point x="658" y="744" type="line"/>
      <point x="511" y="744" type="line"/>
      <point x="461" y="563" type="line"/>
      <point x="357" y="563" type="line"/>
      <point x="404" y="738" type="line"/>
      <point x="257" y="738" type="line"/>
      <point x="210" y="563" type="line"/>
      <point x="84" y="563" type="line"/>
      <point x="84" y="431" type="line"/>
      <point x="174" y="431" type="line"/>
      <point x="137" y="295" type="line"/>
      <point x="12" y="295" type="line"/>
      <point x="12" y="163" type="line"/>
      <point x="101" y="163" type="line"/>
    </contour>
    <contour>
      <point x="285" y="295" type="line"/>
      <point x="321" y="431" type="line"/>
      <point x="425" y="431" type="line"/>
      <point x="388" y="295" type="line"/>
    </contour>
  </outline>
</glyph>
<glyph name="dollar" format="2">
  <advance width="600.0"/>
  <unicode hex="0024"/>
  <note>
dollar
</note>
  <outline>
    <contour>
      <point x="394.0" y="543.0" type="curve"/>
      <point x="506.0" y="625.0" type="line"/>
      <point x="506.0" y="625.0"/>
      <point x="460.0" y="686.0"/>
      <point x="375.0" y="715.0" type="curve"/>
      <point x="375.0" y="799.0" type="line"/>
      <point x="232.0" y="799.0" type="line"/>
      <point x="232.0" y="726.0" type="line"/>
      <point x="125.0" y="704.0"/>
      <point x="51.0" y="614.0"/>
      <point x="61.0" y="505.0" type="curve" smooth="yes"/>
      <point x="71.0" y="383.0"/>
      <point x="194.0" y="331.0"/>
      <point x="266.0" y="304.0" type="curve" smooth="yes"/>
      <point x="289.0" y="295.0" type="line" smooth="yes"/>
      <point x="341.0" y="276.0"/>
      <point x="413.0" y="257.0"/>
      <point x="413.0" y="191.0" type="curve" smooth="yes"/>
      <point x="413.0" y="132.0"/>
      <point x="362.0" y="104.0"/>
      <point x="294.0" y="104.0" type="curve" smooth="yes"/>
      <point x="223.0" y="104.0"/>
      <point x="176.0" y="145.0"/>
      <point x="158.0" y="176.0" type="curve"/>
      <point x="35.0" y="108.0" type="line"/>
      <point x="58.0" y="69.0"/>
      <point x="131.0" y="0.0"/>
      <point x="232.0" y="-21.0" type="curve"/>
      <point x="232.0" y="-95.0" type="line"/>
      <point x="375.0" y="-95.0" type="line"/>
      <point x="375.0" y="-18.0" type="line"/>
      <point x="469.0" y="4.0"/>
      <point x="556.0" y="68.0"/>
      <point x="556.0" y="191.0" type="curve" smooth="yes"/>
      <point x="556.0" y="357.0"/>
      <point x="388.0" y="401.0"/>
      <point x="339.0" y="420.0" type="curve"/>
      <point x="316.0" y="428.0" type="line" smooth="yes"/>
      <point x="254.0" y="451.0"/>
      <point x="206.0" y="474.0"/>
      <point x="203.0" y="516.0" type="curve" smooth="yes"/>
      <point x="199.0" y="566.0"/>
      <point x="236.0" y="602.0"/>
      <point x="289.0" y="599.0" type="curve" smooth="yes"/>
      <point x="354.0" y="595.0"/>
      <point x="394.0" y="543.0"/>
    </contour>
  </outline>
</glyph>
<glyph name="percent" format="2">
  <advance width="805.0"/>
  <unicode hex="0025"/>
  <note>
percent
</note>
  <outline>
    <contour>
      <point x="192.0" y="318.0" type="curve" smooth="yes"/>
      <point x="277.0" y="318.0"/>
      <point x="344.0" y="392.0"/>
      <point x="344.0" y="516.0" type="curve" smooth="yes"/>
      <point x="344.0" y="640.0"/>
      <point x="277.0" y="710.0"/>
      <point x="192.0" y="710.0" type="curve" smooth="yes"/>
      <point x="108.0" y="710.0"/>
      <point x="41.0" y="640.0"/>
      <point x="41.0" y="516.0" type="curve" smooth="yes"/>
      <point x="41.0" y="392.0"/>
      <point x="107.0" y="318.0"/>
    </contour>
    <contour>
      <point x="243.0" y="0.0" type="line"/>
      <point x="717.0" y="710.0" type="line"/>
      <point x="550.0" y="710.0" type="line"/>
      <point x="75.0" y="0.0" type="line"/>
    </contour>
    <contour>
      <point x="192.0" y="414.0" type="curve" smooth="yes"/>
      <point x="183.0" y="414.0"/>
      <point x="171.0" y="422.0"/>
      <point x="171.0" y="516.0" type="curve" smooth="yes"/>
      <point x="171.0" y="609.0"/>
      <point x="180.0" y="615.0"/>
      <point x="192.0" y="615.0" type="curve" smooth="yes"/>
      <point x="205.0" y="615.0"/>
      <point x="214.0" y="609.0"/>
      <point x="214.0" y="516.0" type="curve" smooth="yes"/>
      <point x="214.0" y="422.0"/>
      <point x="202.0" y="414.0"/>
    </contour>
    <contour>
      <point x="598.0" y="-3.0" type="curve" smooth="yes"/>
      <point x="683.0" y="-3.0"/>
      <point x="750.0" y="70.0"/>
      <point x="750.0" y="194.0" type="curve" smooth="yes"/>
      <point x="750.0" y="318.0"/>
      <point x="682.0" y="389.0"/>
      <point x="598.0" y="389.0" type="curve" smooth="yes"/>
      <point x="514.0" y="389.0"/>
      <point x="447.0" y="318.0"/>
      <point x="447.0" y="194.0" type="curve" smooth="yes"/>
      <point x="447.0" y="70.0"/>
      <point x="513.0" y="-3.0"/>
    </contour>
    <contour>
      <point x="598.0" y="92.0" type="curve" smooth="yes"/>
      <point x="588.0" y="92.0"/>
      <point x="577.0" y="100.0"/>
      <point x="577.0" y="194.0" type="curve" smooth="yes"/>
      <point x="577.0" y="287.0"/>
      <point x="585.0" y="293.0"/>
      <point x="598.0" y="293.0" type="curve" smooth="yes"/>
      <point x="611.0" y="293.0"/>
      <point x="620.0" y="287.0"/>
      <point x="620.0" y="194.0" type="curve" smooth="yes"/>
      <point x="620.0" y="100.0"/>
      <point x="608.0" y="92.0"/>
    </contour>
  </outline>
</glyph>
<glyph name="ampersand" format="2">
  <advance width="740.0"/>
  <unicode hex="0026"/>
  <note>
ampersand
</note>
  <outline>
    <contour>
      <point x="480.0" y="64.0" type="curve"/>
      <point x="543.0" y="0.0" type="line"/>
      <point x="736.0" y="0.0" type="line"/>
      <point x="557.0" y="182.0" type="line"/>
      <point x="584.0" y="253.0"/>
      <point x="588.0" y="325.0"/>
      <point x="582.0" y="367.0" type="curve"/>
      <point x="427.0" y="367.0" type="line"/>
      <point x="433.0" y="348.0"/>
      <point x="436.0" y="327.0"/>
      <point x="436.0" y="306.0" type="curve"/>
      <point x="368.0" y="376.0" type="line"/>
      <point x="433.0" y="404.0"/>
      <point x="489.0" y="447.0"/>
      <point x="504.0" y="519.0" type="curve" smooth="yes"/>
      <point x="533.0" y="646.0"/>
      <point x="425.0" y="723.0"/>
      <point x="335.0" y="723.0" type="curve" smooth="yes"/>
      <point x="250.0" y="723.0"/>
      <point x="162.0" y="670.0"/>
      <point x="144.0" y="566.0" type="curve" smooth="yes"/>
      <point x="133.0" y="508.0"/>
      <point x="141.0" y="463.0"/>
      <point x="158.0" y="424.0" type="curve"/>
      <point x="87.0" y="386.0"/>
      <point x="36.0" y="336.0"/>
      <point x="20.0" y="262.0" type="curve" smooth="yes"/>
      <point x="-14.0" y="111.0"/>
      <point x="94.0" y="-19.0"/>
      <point x="258.0" y="-19.0" type="curve" smooth="yes"/>
      <point x="359.0" y="-19.0"/>
      <point x="430.0" y="15.0"/>
    </contour>
    <contour>
      <point x="284.0" y="543.0" type="curve" smooth="yes"/>
      <point x="290.0" y="575.0"/>
      <point x="312.0" y="591.0"/>
      <point x="335.0" y="591.0" type="curve" smooth="yes"/>
      <point x="351.0" y="591.0"/>
      <point x="371.0" y="572.0"/>
      <point x="365.0" y="547.0" type="curve" smooth="yes"/>
      <point x="359.0" y="519.0"/>
      <point x="342.0" y="498.0"/>
      <point x="291.0" y="479.0" type="curve"/>
      <point x="284.0" y="498.0"/>
      <point x="280.0" y="520.0"/>
    </contour>
    <contour>
      <point x="258.0" y="113.0" type="curve" smooth="yes"/>
      <point x="181.0" y="113.0"/>
      <point x="144.0" y="165.0"/>
      <point x="159.0" y="234.0" type="curve" smooth="yes"/>
      <point x="167.0" y="268.0"/>
      <point x="190.0" y="295.0"/>
      <point x="232.0" y="319.0" type="curve"/>
      <point x="260.0" y="288.0"/>
      <point x="322.0" y="225.0"/>
      <point x="383.0" y="162.0" type="curve"/>
      <point x="355.0" y="132.0"/>
      <point x="314.0" y="113.0"/>
    </contour>
  </outline>
</glyph>
<glyph name="quotesingle" format="2">
  <advance width="202"/>
  <unicode hex="0027"/>
  <outline>
    <contour>
      <point x="26" y="549" type="line"/>
      <point x="127" y="549" type="line"/>
      <point x="142" y="767" type="line"/>
      <point x="11" y="767" type="line"/>
    </contour>
  </outline>
</glyph>
<glyph name="parenleft" format="2">
  <advance width="324.0"/>
  <unicode hex="0028"/>
  <note>
parenleft
</note>
  <outline>
    <contour>
      <point x="170.0" y="-98.0" type="curve"/>
      <point x="294.0" y="-32.0" type="line"/>
      <point x="294.0" y="-32.0"/>
      <point x="193.0" y="139.0"/>
      <point x="193.0" y="324.0" type="curve" smooth="yes"/>
      <point x="193.0" y="507.0"/>
      <point x="292.0" y="663.0"/>
      <point x="292.0" y="663.0" type="curve"/>
      <point x="171.0" y="733.0" type="line"/>
      <point x="171.0" y="733.0"/>
      <point x="50.0" y="543.0"/>
      <point x="50.0" y="324.0" type="curve" smooth="yes"/>
      <point x="50.0" y="106.0"/>
      <point x="170.0" y="-98.0"/>
    </contour>
  </outline>
</glyph>
<glyph name="parenright" format="2">
  <advance width="324.0"/>
  <unicode hex="0029"/>
  <note>
parenright
</note>
  <outline>
    <contour>
      <point x="174.0" y="-98.0" type="curve"/>
      <point x="50.0" y="-32.0" type="line"/>
      <point x="50.0" y="-32.0"/>
      <point x="151.0" y="139.0"/>
      <point x="151.0" y="324.0" type="curve" smooth="yes"/>
      <point x="151.0" y="507.0"/>
      <point x="51.0" y="663.0"/>
      <point x="51.0" y="663.0" type="curve"/>
      <point x="172.0" y="733.0" type="line"/>
      <point x="172.0" y="733.0"/>
      <point x="294.0" y="543.0"/>
      <point x="294.0" y="324.0" type="curve" smooth="yes"/>
      <point x="294.0" y="106.0"/>
      <point x="174.0" y="-98.0"/>
    </contour>
  </outline>
</glyph>
<glyph name="asterisk" format="2">
  <advance width="600.0"/>
  <unicode hex="002A"/>
  <note>
asterisk
</note>
  <outline>
    <contour>
      <point x="174.0" y="382.0" type="line"/>
      <point x="241.0" y="478.0" type="line"/>
      <point x="310.0" y="383.0" type="line"/>
      <point x="426.0" y="460.0" type="line"/>
      <point x="352.0" y="562.0" type="line"/>
      <point x="470.0" y="600.0" type="line"/>
      <point x="427.0" y="726.0" type="line"/>
      <point x="312.0" y="689.0" type="line"/>
      <point x="312.0" y="813.0" type="line"/>
      <point x="169.0" y="813.0" type="line"/>
      <point x="169.0" y="690.0" type="line"/>
      <point x="54.0" y="726.0" type="line"/>
      <point x="11.0" y="600.0" type="line"/>
      <point x="130.0" y="562.0" type="line"/>
      <point x="57.0" y="458.0" type="line"/>
    </contour>
  </outline>
</glyph>
<glyph name="plus" format="2">
  <advance width="600"/>
  <unicode hex="002B"/>
  <outline>
    <contour>
      <point x="219" y="-9" type="line"/>
      <point x="362" y="-9" type="line"/>
      <point x="362" y="204" type="line"/>
      <point x="572" y="204" type="line"/>
      <point x="572" y="337" type="line"/>
      <point x="362" y="337" type="line"/>
      <point x="362" y="550" type="line"/>
      <point x="219" y="550" type="line"/>
      <point x="219" y="337" type="line"/>
      <point x="9" y="337" type="line"/>
      <point x="9" y="204" type="line"/>
      <point x="219" y="204" type="line"/>
    </contour>
  </outline>
</glyph>
<glyph name="comma" format="2">
  <advance width="264"/>
  <unicode hex="002C"/>
  <outline>
    <contour>
      <point x="63" y="-180" type="line"/>
      <point x="146" y="-118"/>
      <point x="214" y="-7"/>
      <point x="214" y="76" type="curve"/>
      <point x="140" y="76" type="line"/>
      <point x="140" y="-17"/>
      <point x="79" y="-66"/>
      <point x="8" y="-124" type="curve"/>
    </contour>
    <contour>
      <point x="132" y="-6" type="curve" smooth="yes"/>
      <point x="177" y="-6"/>
      <point x="214" y="30"/>
      <point x="214" y="76" type="curve" smooth="yes"/>
      <point x="214" y="121"/>
      <point x="177" y="158"/>
      <point x="132" y="158" type="curve" smooth="yes"/>
      <point x="87" y="158"/>
      <point x="50" y="121"/>
      <point x="50" y="76" type="curve" smooth="yes"/>
      <point x="50" y="30"/>
      <point x="87" y="-6"/>
    </contour>
  </outline>
</glyph>
<glyph name="hyphen" format="2">
  <advance width="499"/>
  <unicode hex="002D"/>
  <outline>
    <contour>
      <point x="68" y="220" type="line"/>
      <point x="432" y="220" type="line"/>
      <point x="432" y="350" type="line"/>
      <point x="68" y="350" type="line"/>
    </contour>
  </outline>
</glyph>
<glyph name="period" format="2">
  <advance width="379.0"/>
  <unicode hex="002E"/>
  <note>
period
</note>
  <outline>
    <contour>
      <point x="187.0" y="-31.0" type="curve" smooth="yes"/>
      <point x="240.0" y="-31.0"/>
      <point x="283.0" y="11.0"/>
      <point x="283.0" y="63.0" type="curve" smooth="yes"/>
      <point x="283.0" y="114.0"/>
      <point x="240.0" y="156.0"/>
      <point x="187.0" y="156.0" type="curve" smooth="yes"/>
      <point x="133.0" y="156.0"/>
      <point x="90.0" y="114.0"/>
      <point x="90.0" y="63.0" type="curve" smooth="yes"/>
      <point x="90.0" y="11.0"/>
      <point x="133.0" y="-31.0"/>
    </contour>
  </outline>
</glyph>
<glyph name="slash" format="2">
  <advance width="600"/>
  <unicode hex="002F"/>
  <outline>
    <contour>
      <point x="236" y="-126" type="line"/>
      <point x="485" y="702" type="line"/>
      <point x="374" y="738" type="line"/>
      <point x="125" y="-92" type="line"/>
    </contour>
  </outline>
</glyph>
<glyph name="zero" format="2">
  <advance width="609"/>
  <unicode hex="0030"/>
  <outline>
    <contour>
      <point x="305" y="-5" type="curve" smooth="yes"/>
      <point x="160" y="-5"/>
      <point x="46" y="120"/>
      <point x="46" y="352" type="curve" smooth="yes"/>
      <point x="46" y="585"/>
      <point x="161" y="704"/>
      <point x="305" y="704" type="curve" smooth="yes"/>
      <point x="449" y="704"/>
      <point x="563" y="585"/>
      <point x="563" y="352" type="curve" smooth="yes"/>
      <point x="563" y="120"/>
      <point x="449" y="-5"/>
    </contour>
    <contour>
      <point x="305" y="126" type="curve" smooth="yes"/>
      <point x="360" y="126"/>
      <point x="420" y="191"/>
      <point x="420" y="352" type="curve" smooth="yes"/>
      <point x="420" y="512"/>
      <point x="362" y="572"/>
      <point x="305" y="572" type="curve" smooth="yes"/>
      <point x="247" y="572"/>
      <point x="189" y="512"/>
      <point x="189" y="352" type="curve" smooth="yes"/>
      <point x="189" y="191"/>
      <point x="249" y="126"/>
    </contour>
  </outline>
</glyph>
<glyph name="one" format="2">
  <advance width="480"/>
  <unicode hex="0031"/>
  <outline>
    <contour>
      <point x="24" y="0" type="line"/>
      <point x="455" y="0" type="line"/>
      <point x="455" y="133" type="line"/>
      <point x="309" y="133" type="line"/>
      <point x="309" y="700" type="line"/>
      <point x="186" y="700" type="line"/>
      <point x="31" y="628" type="line"/>
      <point x="31" y="466" type="line"/>
      <point x="177" y="542" type="line"/>
      <point x="167" y="557" type="line"/>
      <point x="167" y="133" type="line"/>
      <point x="24" y="133" type="line"/>
    </contour>
  </outline>
</glyph>
<glyph name="two" format="2">
  <advance width="525"/>
  <unicode hex="0032"/>
  <outline>
    <contour>
      <point x="20" y="0" type="line"/>
      <point x="495" y="0" type="line"/>
      <point x="495" y="138" type="line"/>
      <point x="220" y="138" type="line"/>
      <point x="300" y="212"/>
      <point x="391" y="298"/>
      <point x="434" y="358" type="curve" smooth="yes"/>
      <point x="550" y="520"/>
      <point x="432" y="706"/>
      <point x="251" y="706" type="curve" smooth="yes"/>
      <point x="135" y="706"/>
      <point x="40" y="621"/>
      <point x="25" y="515" type="curve"/>
      <point x="165" y="470" type="line"/>
      <point x="166" y="528"/>
      <point x="202" y="569"/>
      <point x="251" y="569" type="curve" smooth="yes"/>
      <point x="323" y="569"/>
      <point x="364" y="502"/>
      <point x="318" y="438" type="curve" smooth="yes"/>
      <point x="261" y="359"/>
      <point x="107" y="228"/>
      <point x="20" y="138" type="curve"/>
    </contour>
  </outline>
</glyph>
<glyph name="three" format="2">
  <advance width="502"/>
  <unicode hex="0033"/>
  <outline>
    <contour>
      <point x="238" y="-3" type="curve" smooth="yes"/>
      <point x="379" y="-3"/>
      <point x="473" y="102"/>
      <point x="473" y="223" type="curve" smooth="yes"/>
      <point x="473" y="349"/>
      <point x="404" y="418"/>
      <point x="295" y="418" type="curve"/>
      <point x="295" y="355" type="line"/>
      <point x="401" y="355"/>
      <point x="441" y="456"/>
      <point x="441" y="510" type="curve" smooth="yes"/>
      <point x="441" y="615"/>
      <point x="353" y="704"/>
      <point x="238" y="704" type="curve" smooth="yes"/>
      <point x="113" y="704"/>
      <point x="50" y="620"/>
      <point x="34" y="516" type="curve"/>
      <point x="167" y="494" type="line"/>
      <point x="167" y="532"/>
      <point x="192" y="571"/>
      <point x="238" y="571" type="curve" smooth="yes"/>
      <point x="277" y="571"/>
      <point x="301" y="546"/>
      <point x="301" y="510" type="curve" smooth="yes"/>
      <point x="301" y="473"/>
      <point x="279" y="439"/>
      <point x="214" y="439" type="curve" smooth="yes"/>
      <point x="200" y="439" type="line"/>
      <point x="200" y="323" type="line"/>
      <point x="211" y="323" type="line" smooth="yes"/>
      <point x="295" y="323"/>
      <point x="331" y="277"/>
      <point x="331" y="223" type="curve" smooth="yes"/>
      <point x="331" y="168"/>
      <point x="295" y="130"/>
      <point x="238" y="130" type="curve" smooth="yes"/>
      <point x="171" y="130"/>
      <point x="147" y="180"/>
      <point x="140" y="221" type="curve"/>
      <point x="10" y="165" type="line"/>
      <point x="25" y="95"/>
      <point x="108" y="-3"/>
    </contour>
  </outline>
</glyph>
<glyph name="four" format="2">
  <advance width="625"/>
  <unicode hex="0034"/>
  <outline>
    <contour>
      <point x="350" y="0" type="line"/>
      <point x="493" y="0" type="line"/>
      <point x="493" y="135" type="line"/>
      <point x="593" y="135" type="line"/>
      <point x="593" y="276" type="line"/>
      <point x="493" y="276" type="line"/>
      <point x="493" y="700" type="line"/>
      <point x="356" y="700" type="line"/>
      <point x="43" y="251" type="line"/>
      <point x="43" y="135" type="line"/>
      <point x="350" y="135" type="line"/>
    </contour>
    <contour>
      <point x="220" y="276" type="line"/>
      <point x="350" y="493" type="line"/>
      <point x="350" y="276" type="line"/>
    </contour>
  </outline>
</glyph>
<glyph name="five" format="2">
  <advance width="538"/>
  <unicode hex="0035"/>
  <outline>
    <contour>
      <point x="204" y="0" type="curve" smooth="yes"/>
      <point x="348" y="-23"/>
      <point x="462" y="67"/>
      <point x="483" y="195" type="curve" smooth="yes"/>
      <point x="504" y="324"/>
      <point x="412" y="447"/>
      <point x="281" y="468" type="curve" smooth="yes"/>
      <point x="255" y="472"/>
      <point x="231" y="471"/>
      <point x="207" y="467" type="curve"/>
      <point x="240" y="568" type="line"/>
      <point x="464" y="568" type="line"/>
      <point x="464" y="700" type="line"/>
      <point x="128" y="700" type="line"/>
      <point x="38" y="407" type="line"/>
      <point x="107" y="291" type="line"/>
      <point x="186" y="341"/>
      <point x="218" y="343"/>
      <point x="259" y="337" type="curve" smooth="yes"/>
      <point x="309" y="329"/>
      <point x="351" y="273"/>
      <point x="342" y="216" type="curve" smooth="yes"/>
      <point x="332" y="155"/>
      <point x="288" y="121"/>
      <point x="227" y="131" type="curve" smooth="yes"/>
      <point x="176" y="139"/>
      <point x="158" y="161"/>
      <point x="135" y="214" type="curve"/>
      <point x="13" y="148" type="line"/>
      <point x="35" y="81"/>
      <point x="106" y="17"/>
    </contour>
  </outline>
</glyph>
<glyph name="six" format="2">
  <advance width="505.0"/>
  <unicode hex="0036"/>
  <note>
six
</note>
  <outline>
    <contour>
      <point x="286.0" y="439.0" type="curve"/>
      <point x="437.0" y="700.0" type="line"/>
      <point x="274.0" y="700.0" type="line"/>
      <point x="61.0" y="332.0" type="line"/>
      <point x="59.0" y="329.0" type="line"/>
      <point x="54.0" y="320.0" type="line"/>
      <point x="7.0" y="225.0"/>
      <point x="31.0" y="113.0"/>
      <point x="111.0" y="47.0" type="curve" smooth="yes"/>
      <point x="117.0" y="42.0"/>
      <point x="124.0" y="38.0"/>
      <point x="130.0" y="33.0" type="curve"/>
      <point x="145.0" y="23.0"/>
      <point x="162.0" y="15.0"/>
      <point x="180.0" y="8.0" type="curve"/>
      <point x="280.0" y="-26.0"/>
      <point x="396.0" y="14.0"/>
      <point x="450.0" y="108.0" type="curve" smooth="yes"/>
      <point x="511.0" y="215.0"/>
      <point x="475.0" y="350.0"/>
      <point x="367.0" y="412.0" type="curve" smooth="yes"/>
      <point x="341.0" y="427.0"/>
      <point x="314.0" y="436.0"/>
    </contour>
    <contour>
      <point x="221.0" y="141.0" type="curve"/>
      <point x="214.0" y="145.0" type="line" smooth="yes"/>
      <point x="175.0" y="167.0"/>
      <point x="160.0" y="220.0"/>
      <point x="183.0" y="261.0" type="curve" smooth="yes"/>
      <point x="207.0" y="302.0"/>
      <point x="255.0" y="316.0"/>
      <point x="296.0" y="293.0" type="curve" smooth="yes"/>
      <point x="335.0" y="270.0"/>
      <point x="349.0" y="217.0"/>
      <point x="326.0" y="177.0" type="curve" smooth="yes"/>
      <point x="310.0" y="148.0"/>
      <point x="281.0" y="133.0"/>
      <point x="252.0" y="134.0" type="curve"/>
      <point x="240.0" y="135.0"/>
      <point x="230.0" y="137.0"/>
    </contour>
  </outline>
</glyph>
<glyph name="seven" format="2">
  <advance width="600"/>
  <unicode hex="0037"/>
  <outline>
    <contour>
      <point x="14" y="0" type="line"/>
      <point x="178" y="0" type="line"/>
      <point x="591" y="700" type="line"/>
      <point x="76" y="700" type="line"/>
      <point x="76" y="563" type="line"/>
      <point x="346" y="563" type="line"/>
    </contour>
  </outline>
</glyph>
<glyph name="eight" format="2">
  <advance width="516.0"/>
  <unicode hex="0038"/>
  <note>
eight
</note>
  <outline>
    <contour>
      <point x="419.0" y="369.0" type="curve"/>
      <point x="427.0" y="378.0"/>
      <point x="434.0" y="388.0"/>
      <point x="440.0" y="398.0" type="curve" smooth="yes"/>
      <point x="497.0" y="498.0"/>
      <point x="464.0" y="618.0"/>
      <point x="362.0" y="677.0" type="curve" smooth="yes"/>
      <point x="263.0" y="734.0"/>
      <point x="132.0" y="698.0"/>
      <point x="76.0" y="601.0" type="curve" smooth="yes"/>
      <point x="31.0" y="523.0"/>
      <point x="42.0" y="432.0"/>
      <point x="98.0" y="369.0" type="curve"/>
      <point x="81.0" y="355.0"/>
      <point x="66.0" y="339.0"/>
      <point x="55.0" y="322.0" type="curve" smooth="yes"/>
      <point x="-11.0" y="215.0"/>
      <point x="27.0" y="85.0"/>
      <point x="143.0" y="24.0" type="curve" smooth="yes"/>
      <point x="253.0" y="-33.0"/>
      <point x="397.0" y="2.0"/>
      <point x="460.0" y="103.0" type="curve" smooth="yes"/>
      <point x="517.0" y="194.0"/>
      <point x="497.0" y="301.0"/>
    </contour>
    <contour>
      <point x="200.0" y="535.0" type="curve" smooth="yes"/>
      <point x="221.0" y="571.0"/>
      <point x="258.0" y="581.0"/>
      <point x="291.0" y="562.0" type="curve" smooth="yes"/>
      <point x="323.0" y="544.0"/>
      <point x="335.0" y="498.0"/>
      <point x="316.0" y="464.0" type="curve" smooth="yes"/>
      <point x="303.0" y="441.0"/>
      <point x="285.0" y="430.0"/>
      <point x="260.0" y="428.0" type="curve"/>
      <point x="242.0" y="430.0"/>
      <point x="237.0" y="431.0"/>
      <point x="225.0" y="437.0" type="curve"/>
      <point x="193.0" y="456.0"/>
      <point x="181.0" y="502.0"/>
    </contour>
    <contour>
      <point x="339.0" y="173.0" type="curve" smooth="yes"/>
      <point x="313.0" y="131.0"/>
      <point x="256.0" y="117.0"/>
      <point x="209.0" y="141.0" type="curve" smooth="yes"/>
      <point x="167.0" y="163.0"/>
      <point x="153.0" y="214.0"/>
      <point x="176.0" y="252.0" type="curve" smooth="yes"/>
      <point x="194.0" y="280.0"/>
      <point x="220.0" y="293.0"/>
      <point x="258.0" y="296.0" type="curve"/>
      <point x="280.0" y="294.0"/>
      <point x="290.0" y="292.0"/>
      <point x="306.0" y="283.0" type="curve"/>
      <point x="349.0" y="261.0"/>
      <point x="363.0" y="211.0"/>
    </contour>
  </outline>
</glyph>
<glyph name="nine" format="2">
  <advance width="471.0"/>
  <unicode hex="0039"/>
  <note>
nine
</note>
  <outline>
    <contour>
      <point x="430.0" y="382.0" type="curve" smooth="yes"/>
      <point x="433.0" y="388.0" type="line"/>
      <point x="435.0" y="391.0" type="line"/>
      <point x="493.0" y="505.0"/>
      <point x="442.0" y="646.0"/>
      <point x="312.0" y="693.0" type="curve" smooth="yes"/>
      <point x="215.0" y="726.0"/>
      <point x="104.0" y="687.0"/>
      <point x="53.0" y="596.0" type="curve" smooth="yes"/>
      <point x="-6.0" y="492.0"/>
      <point x="28.0" y="363.0"/>
      <point x="133.0" y="303.0" type="curve" smooth="yes"/>
      <point x="156.0" y="290.0"/>
      <point x="180.0" y="281.0"/>
      <point x="205.0" y="277.0" type="curve"/>
      <point x="45.0" y="0.0" type="line"/>
      <point x="208.0" y="0.0" type="line"/>
      <point x="426.0" y="375.0" type="line"/>
      <point x="427.0" y="378.0"/>
      <point x="429.0" y="380.0"/>
    </contour>
    <contour>
      <point x="277.0" y="557.0" type="curve"/>
      <point x="279.0" y="556.0" type="line"/>
      <point x="311.0" y="536.0"/>
      <point x="325.0" y="495.0"/>
      <point x="310.0" y="460.0" type="curve"/>
      <point x="300.0" y="441.0" type="line"/>
      <point x="277.0" y="411.0"/>
      <point x="237.0" y="403.0"/>
      <point x="204.0" y="422.0" type="curve" smooth="yes"/>
      <point x="169.0" y="442.0"/>
      <point x="156.0" y="491.0"/>
      <point x="177.0" y="528.0" type="curve" smooth="yes"/>
      <point x="191.0" y="552.0"/>
      <point x="215.0" y="566.0"/>
      <point x="240.0" y="566.0" type="curve" smooth="yes"/>
      <point x="254.0" y="566.0"/>
      <point x="266.0" y="563.0"/>
    </contour>
  </outline>
</glyph>
<glyph name="semicolon" format="2">
  <advance width="664.0"/>
  <unicode hex="003B"/>
  <note>
semicolon
</note>
  <outline>
    <contour>
      <point x="145.0" y="360.0" type="curve" smooth="yes"/>
      <point x="199.0" y="360.0"/>
      <point x="241.0" y="403.0"/>
      <point x="241.0" y="454.0" type="curve" smooth="yes"/>
      <point x="241.0" y="505.0"/>
      <point x="199.0" y="548.0"/>
      <point x="145.0" y="548.0" type="curve" smooth="yes"/>
      <point x="91.0" y="548.0"/>
      <point x="49.0" y="505.0"/>
      <point x="49.0" y="454.0" type="curve" smooth="yes"/>
      <point x="49.0" y="403.0"/>
      <point x="91.0" y="360.0"/>
    </contour>
    <contour>
      <point x="212.0" y="-17.0" type="line"/>
      <point x="212.0" y="116.0" type="line"/>
      <point x="85.0" y="116.0" type="line"/>
      <point x="93.0" y="12.0" type="line"/>
      <point x="35.0" y="-119.0" type="line"/>
      <point x="136.0" y="-165.0" type="line"/>
    </contour>
  </outline>
</glyph>
<glyph name="less" format="2">
  <advance width="651.0"/>
  <unicode hex="003C"/>
  <note>
less
</note>
  <outline>
    <contour>
      <point x="543.0" y="592.0" type="line"/>
      <point x="603.0" y="460.0" type="line"/>
      <point x="288.0" y="310.0" type="line"/>
      <point x="602.0" y="160.0" type="line"/>
      <point x="542.0" y="28.0" type="line"/>
      <point x="128.0" y="240.0" type="line"/>
      <point x="128.0" y="379.0" type="line"/>
    </contour>
  </outline>
</glyph>
<glyph name="equal" format="2">
  <advance width="600.0"/>
  <unicode hex="003D"/>
  <note>
equal
</note>
  <outline>
    <contour>
      <point x="537.0" y="472.0" type="line"/>
      <point x="71.0" y="472.0" type="line"/>
      <point x="71.0" y="340.0" type="line"/>
      <point x="537.0" y="340.0" type="line"/>
    </contour>
    <contour>
      <point x="537.0" y="240.0" type="line"/>
      <point x="71.0" y="240.0" type="line"/>
      <point x="71.0" y="108.0" type="line"/>
      <point x="537.0" y="108.0" type="line"/>
    </contour>
  </outline>
</glyph>
<glyph name="greater" format="2">
  <advance width="651.0"/>
  <unicode hex="003E"/>
  <note>
greater
</note>
  <outline>
    <contour>
      <point x="48.0" y="460.0" type="line"/>
      <point x="363.0" y="310.0" type="line"/>
      <point x="49.0" y="160.0" type="line"/>
      <point x="109.0" y="28.0" type="line"/>
      <point x="522.0" y="240.0" type="line"/>
      <point x="522.0" y="379.0" type="line"/>
      <point x="108.0" y="592.0" type="line"/>
    </contour>
  </outline>
</glyph>
<glyph name="question" format="2">
  <advance width="429"/>
  <unicode hex="003F"/>
  <outline>
    <contour>
      <point x="81" y="219" type="line"/>
      <point x="221" y="219" type="line"/>
      <point x="221" y="327" type="line"/>
      <point x="292" y="358"/>
      <point x="370" y="414"/>
      <point x="378" y="514" type="curve" smooth="yes"/>
      <point x="388" y="627"/>
      <point x="290" y="710"/>
      <point x="173" y="710" type="curve" smooth="yes"/>
      <point x="56" y="710"/>
      <point x="7" y="608"/>
      <point x="7" y="608" type="curve"/>
      <point x="126" y="541" type="line"/>
      <point x="126" y="541"/>
      <point x="144" y="578"/>
      <point x="181" y="578" type="curve" smooth="yes"/>
      <point x="218" y="578"/>
      <point x="239" y="559"/>
      <point x="236" y="525" type="curve" smooth="yes"/>
      <point x="231" y="468"/>
      <point x="155" y="445"/>
      <point x="65" y="418" type="curve"/>
    </contour>
    <component base="period" xOffset="27"/>
  </outline>
</glyph>
<glyph name="at" format="2">
  <advance width="1121"/>
  <unicode hex="0040"/>
  <anchor x="581" y="-17" name="bottom"/>
  <anchor x="654" y="-23" name="ogonek"/>
  <anchor x="581" y="483" name="top"/>
  <outline>
    <contour>
      <point x="541" y="-22" type="curve" smooth="yes"/>
      <point x="630" y="-22"/>
      <point x="707" y="41"/>
      <point x="707" y="96" type="curve"/>
      <point x="707" y="51"/>
      <point x="744" y="-34"/>
      <point x="849" y="-34" type="curve" smooth="yes"/>
      <point x="972" y="-34"/>
      <point x="1041" y="106"/>
      <point x="1041" y="254" type="curve" smooth="yes"/>
      <point x="1041" y="519"/>
      <point x="841" y="728"/>
      <point x="569" y="728" type="curve" smooth="yes"/>
      <point x="298" y="728"/>
      <point x="80" y="509"/>
      <point x="80" y="244" type="curve" smooth="yes"/>
      <point x="80" y="-22"/>
      <point x="298" y="-241"/>
      <point x="569" y="-241" type="curve" smooth="yes"/>
      <point x="655" y="-241"/>
      <point x="744" y="-215"/>
      <point x="812" y="-177" type="curve"/>
      <point x="751" y="-57" type="line"/>
      <point x="693" y="-92"/>
      <point x="638" y="-109"/>
      <point x="569" y="-109" type="curve" smooth="yes"/>
      <point x="378" y="-109"/>
      <point x="223" y="47"/>
      <point x="223" y="244" type="curve" smooth="yes"/>
      <point x="223" y="440"/>
      <point x="378" y="596"/>
      <point x="569" y="596" type="curve" smooth="yes"/>
      <point x="759" y="596"/>
      <point x="898" y="452"/>
      <point x="898" y="254" type="curve" smooth="yes"/>
      <point x="898" y="159"/>
      <point x="888" y="91"/>
      <point x="845" y="91" type="curve" smooth="yes"/>
      <point x="814" y="91"/>
      <point x="789" y="117"/>
      <point x="789" y="159" type="curve" smooth="yes"/>
      <point x="789" y="299" type="line" smooth="yes"/>
      <point x="789" y="424"/>
      <point x="686" y="489"/>
      <point x="567" y="489" type="curve" smooth="yes"/>
      <point x="470" y="489"/>
      <point x="401" y="441"/>
      <point x="364" y="389" type="curve"/>
      <point x="457" y="305" type="line"/>
      <point x="486" y="347"/>
      <point x="522" y="365"/>
      <point x="567" y="365" type="curve" smooth="yes"/>
      <point x="626" y="365"/>
      <point x="652" y="341"/>
      <point x="652" y="305" type="curve" smooth="yes"/>
      <point x="652" y="294" type="line"/>
      <point x="630" y="300"/>
      <point x="598" y="305"/>
      <point x="567" y="305" type="curve" smooth="yes"/>
      <point x="461" y="305"/>
      <point x="355" y="259"/>
      <point x="355" y="136" type="curve" smooth="yes"/>
      <point x="355" y="55"/>
      <point x="409" y="-22"/>
    </contour>
    <contour>
      <point x="548" y="104" type="curve" smooth="yes"/>
      <point x="509" y="104"/>
      <point x="492" y="124"/>
      <point x="492" y="144" type="curve" smooth="yes"/>
      <point x="492" y="186"/>
      <point x="529" y="203"/>
      <point x="591" y="203" type="curve" smooth="yes"/>
      <point x="610" y="203"/>
      <point x="634" y="200"/>
      <point x="652" y="194" type="curve"/>
      <point x="651" y="140"/>
      <point x="612" y="104"/>
    </contour>
  </outline>
</glyph>
<glyph name="A" format="2">
  <advance width="707"/>
  <unicode hex="0041"/>
  <anchor x="353" y="0" name="bottom"/>
  <anchor x="544" y="-6" name="ogonek"/>
  <anchor x="353" y="700" name="top"/>
  <outline>
    <contour>
      <point x="523" y="128" type="line"/>
      <point x="472" y="260" type="line"/>
      <point x="226" y="260" type="line"/>
      <point x="174" y="128" type="line"/>
    </contour>
    <contour>
      <point x="542" y="0" type="line"/>
      <point x="694" y="0" type="line"/>
      <point x="420" y="700" type="line"/>
      <point x="289" y="700" type="line"/>
      <point x="15" y="0" type="line"/>
      <point x="167" y="0" type="line"/>
      <point x="371" y="522" type="line"/>
      <point x="339" y="522" type="line"/>
    </contour>
  </outline>
</glyph>
<glyph name="B" format="2">
  <advance width="592.0"/>
  <unicode hex="0042"/>
  <note>
B
</note>
  <outline>
    <contour>
      <point x="316.0" y="700.0" type="curve" smooth="yes"/>
      <point x="71.0" y="700.0" type="line"/>
      <point x="71.0" y="0.0" type="line"/>
      <point x="340.0" y="0.0" type="line" smooth="yes"/>
      <point x="477.0" y="0.0"/>
      <point x="580.0" y="105.0"/>
      <point x="580.0" y="232.0" type="curve" smooth="yes"/>
      <point x="580.0" y="311.0"/>
      <point x="539.0" y="381.0"/>
      <point x="477.0" y="424.0" type="curve"/>
      <point x="493.0" y="451.0"/>
      <point x="502.0" y="483.0"/>
      <point x="502.0" y="516.0" type="curve" smooth="yes"/>
      <point x="502.0" y="617.0"/>
      <point x="419.0" y="700.0"/>
    </contour>
    <contour>
      <point x="317.0" y="465.0" type="curve" smooth="yes"/>
      <point x="214.0" y="465.0" type="line"/>
      <point x="214.0" y="568.0" type="line"/>
      <point x="316.0" y="568.0" type="line" smooth="yes"/>
      <point x="338.0" y="568.0"/>
      <point x="359.0" y="547.0"/>
      <point x="359.0" y="516.0" type="curve" smooth="yes"/>
      <point x="359.0" y="486.0"/>
      <point x="339.0" y="465.0"/>
    </contour>
    <contour>
      <point x="311.0" y="132.0" type="curve" smooth="yes"/>
      <point x="214.0" y="132.0" type="line"/>
      <point x="214.0" y="332.0" type="line"/>
      <point x="342.0" y="332.0" type="line" smooth="yes"/>
      <point x="394.0" y="332.0"/>
      <point x="437.0" y="289.0"/>
      <point x="437.0" y="232.0" type="curve" smooth="yes"/>
      <point x="437.0" y="164.0"/>
      <point x="389.0" y="134.0"/>
    </contour>
  </outline>
</glyph>
<glyph name="C" format="2">
  <advance width="702"/>
  <unicode hex="0043"/>
  <anchor x="376" y="-2" name="bottom"/>
  <anchor x="354" y="700" name="top"/>
  <outline>
    <contour>
      <point x="382" y="-2" type="curve" smooth="yes"/>
      <point x="505" y="-2"/>
      <point x="620" y="74"/>
      <point x="672" y="172" type="curve"/>
      <point x="556" y="248" type="line"/>
      <point x="512" y="170"/>
      <point x="455" y="130"/>
      <point x="382" y="130" type="curve" smooth="yes"/>
      <point x="279" y="130"/>
      <point x="188" y="226"/>
      <point x="188" y="350" type="curve" smooth="yes"/>
      <point x="188" y="464"/>
      <point x="270" y="569"/>
      <point x="382" y="569" type="curve" smooth="yes"/>
      <point x="451" y="569"/>
      <point x="505" y="534"/>
      <point x="550" y="463" type="curve"/>
      <point x="661" y="546" type="line"/>
      <point x="608" y="634"/>
      <point x="497" y="701"/>
      <point x="382" y="701" type="curve" smooth="yes"/>
      <point x="176" y="701"/>
      <point x="45" y="525"/>
      <point x="45" y="350" type="curve" smooth="yes"/>
      <point x="45" y="157"/>
      <point x="195" y="-2"/>
    </contour>
  </outline>
</glyph>
<glyph name="D" format="2">
  <advance width="677.0"/>
  <unicode hex="0044"/>
  <note>
D
</note>
  <outline>
    <contour>
      <point x="264.0" y="700.0" type="curve" smooth="yes"/>
      <point x="102.0" y="700.0" type="line"/>
      <point x="102.0" y="0.0" type="line"/>
      <point x="269.0" y="0.0" type="line" smooth="yes"/>
      <point x="506.0" y="0.0"/>
      <point x="623.0" y="153.0"/>
      <point x="623.0" y="350.0" type="curve" smooth="yes"/>
      <point x="623.0" y="548.0"/>
      <point x="514.0" y="700.0"/>
    </contour>
    <contour>
      <point x="269.0" y="132.0" type="curve" smooth="yes"/>
      <point x="245.0" y="132.0" type="line"/>
      <point x="245.0" y="568.0" type="line"/>
      <point x="264.0" y="568.0" type="line" smooth="yes"/>
      <point x="420.0" y="568.0"/>
      <point x="480.0" y="490.0"/>
      <point x="480.0" y="350.0" type="curve" smooth="yes"/>
      <point x="480.0" y="213.0"/>
      <point x="415.0" y="132.0"/>
    </contour>
  </outline>
</glyph>
<glyph name="E" format="2">
  <advance width="600.0"/>
  <unicode hex="0045"/>
  <note>
E
</note>
  <outline>
    <contour>
      <point x="70.0" y="700.0" type="line"/>
      <point x="70.0" y="0.0" type="line"/>
      <point x="555.0" y="0.0" type="line"/>
      <point x="555.0" y="132.0" type="line"/>
      <point x="213.0" y="132.0" type="line"/>
      <point x="213.0" y="287.0" type="line"/>
      <point x="488.0" y="287.0" type="line"/>
      <point x="488.0" y="419.0" type="line"/>
      <point x="213.0" y="419.0" type="line"/>
      <point x="213.0" y="568.0" type="line"/>
      <point x="554.0" y="568.0" type="line"/>
      <point x="554.0" y="700.0" type="line"/>
    </contour>
  </outline>
</glyph>
<glyph name="F" format="2">
  <advance width="563.0"/>
  <unicode hex="0046"/>
  <note>
F
</note>
  <outline>
    <contour>
      <point x="468.0" y="288.0" type="line"/>
      <point x="468.0" y="420.0" type="line"/>
      <point x="211.0" y="420.0" type="line"/>
      <point x="211.0" y="569.0" type="line"/>
      <point x="535.0" y="569.0" type="line"/>
      <point x="535.0" y="701.0" type="line"/>
      <point x="68.0" y="701.0" type="line"/>
      <point x="68.0" y="0.0" type="line"/>
      <point x="211.0" y="0.0" type="line"/>
      <point x="211.0" y="288.0" type="line"/>
    </contour>
  </outline>
</glyph>
<glyph name="G" format="2">
  <advance width="700.0"/>
  <unicode hex="0047"/>
  <note>
G
</note>
  <outline>
    <contour>
      <point x="642.0" y="150.0" type="curve"/>
      <point x="642.0" y="388.0" type="line"/>
      <point x="331.0" y="388.0" type="line"/>
      <point x="331.0" y="256.0" type="line"/>
      <point x="500.0" y="256.0" type="line"/>
      <point x="500.0" y="192.0" type="line"/>
      <point x="460.0" y="148.0"/>
      <point x="415.0" y="130.0"/>
      <point x="365.0" y="130.0" type="curve" smooth="yes"/>
      <point x="262.0" y="130.0"/>
      <point x="171.0" y="226.0"/>
      <point x="171.0" y="350.0" type="curve" smooth="yes"/>
      <point x="171.0" y="474.0"/>
      <point x="262.0" y="569.0"/>
      <point x="365.0" y="569.0" type="curve" smooth="yes"/>
      <point x="425.0" y="569.0"/>
      <point x="474.0" y="542.0"/>
      <point x="520.0" y="485.0" type="curve"/>
      <point x="620.0" y="579.0" type="line"/>
      <point x="566.0" y="649.0"/>
      <point x="466.0" y="701.0"/>
      <point x="365.0" y="701.0" type="curve" smooth="yes"/>
      <point x="178.0" y="701.0"/>
      <point x="28.0" y="543.0"/>
      <point x="28.0" y="350.0" type="curve" smooth="yes"/>
      <point x="28.0" y="157.0"/>
      <point x="178.0" y="-2.0"/>
      <point x="365.0" y="-2.0" type="curve" smooth="yes"/>
      <point x="466.0" y="-2.0"/>
      <point x="578.0" y="51.0"/>
    </contour>
  </outline>
</glyph>
<glyph name="H" format="2">
  <advance width="731"/>
  <unicode hex="0048"/>
  <anchor x="365" y="0" name="bottom"/>
  <anchor x="365" y="700" name="top"/>
  <outline>
    <contour>
      <point x="80" y="0" type="line"/>
      <point x="223" y="0" type="line"/>
      <point x="223" y="287" type="line"/>
      <point x="508" y="287" type="line"/>
      <point x="508" y="0" type="line"/>
      <point x="651" y="0" type="line"/>
      <point x="651" y="700" type="line"/>
      <point x="508" y="700" type="line"/>
      <point x="508" y="419" type="line"/>
      <point x="223" y="419" type="line"/>
      <point x="223" y="700" type="line"/>
      <point x="80" y="700" type="line"/>
    </contour>
  </outline>
</glyph>
<glyph name="J" format="2">
  <advance width="523"/>
  <unicode hex="004A"/>
  <anchor x="261" y="0" name="bottom"/>
  <anchor x="261" y="700" name="top"/>
  <outline>
    <contour>
      <point x="244" y="-2" type="curve" smooth="yes"/>
      <point x="356" y="-2"/>
      <point x="446" y="88"/>
      <point x="445" y="197" type="curve"/>
      <point x="445" y="701" type="line"/>
      <point x="301" y="701" type="line"/>
      <point x="301" y="208" type="line" smooth="yes"/>
      <point x="302" y="149"/>
      <point x="274" y="130"/>
      <point x="244" y="130" type="curve" smooth="yes"/>
      <point x="204" y="130"/>
      <point x="168" y="178"/>
      <point x="193" y="235" type="curve"/>
      <point x="46" y="235" type="line"/>
      <point x="22" y="109"/>
      <point x="119" y="-2"/>
    </contour>
  </outline>
</glyph>
<glyph name="K" format="2">
  <advance width="707"/>
  <unicode hex="004B"/>
  <anchor x="356" y="0" name="bottom"/>
  <anchor x="356" y="700" name="top"/>
  <outline>
    <contour>
      <point x="80" y="0" type="line"/>
      <point x="223" y="0" type="line"/>
      <point x="223" y="282" type="line"/>
      <point x="205" y="239" type="line"/>
      <point x="289" y="317" type="line"/>
      <point x="265" y="326" type="line"/>
      <point x="515" y="0" type="line"/>
      <point x="692" y="0" type="line"/>
      <point x="371" y="415" type="line"/>
      <point x="372" y="395" type="line"/>
      <point x="697" y="700" type="line"/>
      <point x="496" y="700" type="line"/>
      <point x="190" y="412" type="line"/>
      <point x="223" y="412" type="line"/>
      <point x="223" y="700" type="line"/>
      <point x="80" y="700" type="line"/>
    </contour>
  </outline>
</glyph>
<glyph name="L" format="2">
  <advance width="505.0"/>
  <unicode hex="004C"/>
  <note>
L
</note>
  <outline>
    <contour>
      <point x="226.0" y="700.0" type="line"/>
      <point x="83.0" y="700.0" type="line"/>
      <point x="83.0" y="0.0" type="line"/>
      <point x="473.0" y="0.0" type="line"/>
      <point x="473.0" y="132.0" type="line"/>
      <point x="226.0" y="132.0" type="line"/>
    </contour>
  </outline>
</glyph>
<glyph name="M" format="2">
  <advance width="861.0"/>
  <unicode hex="004D"/>
  <note>
M
</note>
  <outline>
    <contour>
      <point x="778.0" y="0.0" type="line"/>
      <point x="778.0" y="700.0" type="line"/>
      <point x="646.0" y="700.0" type="line"/>
      <point x="430.0" y="295.0" type="line"/>
      <point x="215.0" y="700.0" type="line"/>
      <point x="83.0" y="700.0" type="line"/>
      <point x="83.0" y="0.0" type="line"/>
      <point x="226.0" y="0.0" type="line"/>
      <point x="226.0" y="381.0" type="line"/>
      <point x="430.0" y="-4.0" type="line"/>
      <point x="635.0" y="380.0" type="line"/>
      <point x="635.0" y="0.0" type="line"/>
    </contour>
  </outline>
</glyph>
<glyph name="N" format="2">
  <advance width="734"/>
  <unicode hex="004E"/>
  <anchor x="367" y="0" name="bottom"/>
  <anchor x="367" y="700" name="top"/>
  <outline>
    <contour>
      <point x="80" y="0" type="line"/>
      <point x="223" y="0" type="line"/>
      <point x="223" y="456" type="line"/>
      <point x="210" y="456" type="line"/>
      <point x="524" y="0" type="line"/>
      <point x="654" y="0" type="line"/>
      <point x="654" y="700" type="line"/>
      <point x="511" y="700" type="line"/>
      <point x="511" y="220" type="line"/>
      <point x="530" y="233" type="line"/>
      <point x="208" y="700" type="line"/>
      <point x="80" y="700" type="line"/>
    </contour>
  </outline>
</glyph>
<glyph name="O" format="2">
  <advance width="798"/>
  <unicode hex="004F"/>
  <anchor x="399" y="0" name="bottom"/>
  <anchor x="402" y="-6" name="ogonek"/>
  <anchor x="399" y="700" name="top"/>
  <outline>
    <contour>
      <point x="399" y="-6" type="curve" smooth="yes"/>
      <point x="569" y="-6"/>
      <point x="753" y="124"/>
      <point x="753" y="350" type="curve" smooth="yes"/>
      <point x="753" y="549"/>
      <point x="595" y="706"/>
      <point x="399" y="706" type="curve" smooth="yes"/>
      <point x="199" y="706"/>
      <point x="45" y="546"/>
      <point x="45" y="350" type="curve" smooth="yes"/>
      <point x="45" y="152"/>
      <point x="203" y="-6"/>
    </contour>
    <contour>
      <point x="399" y="126" type="curve" smooth="yes"/>
      <point x="284" y="126"/>
      <point x="188" y="223"/>
      <point x="188" y="350" type="curve" smooth="yes"/>
      <point x="188" y="476"/>
      <point x="283" y="574"/>
      <point x="399" y="574" type="curve" smooth="yes"/>
      <point x="513" y="574"/>
      <point x="610" y="478"/>
      <point x="610" y="350" type="curve" smooth="yes"/>
      <point x="610" y="208"/>
      <point x="501" y="126"/>
    </contour>
  </outline>
</glyph>
<glyph name="P" format="2">
  <advance width="585.0"/>
  <unicode hex="0050"/>
  <note>
P
</note>
  <outline>
    <contour>
      <point x="344.0" y="706.0" type="curve" smooth="yes"/>
      <point x="75.0" y="706.0" type="line"/>
      <point x="75.0" y="0.0" type="line"/>
      <point x="218.0" y="0.0" type="line"/>
      <point x="218.0" y="288.0" type="line"/>
      <point x="344.0" y="288.0" type="line" smooth="yes"/>
      <point x="462.0" y="288.0"/>
      <point x="557.0" y="383.0"/>
      <point x="557.0" y="497.0" type="curve" smooth="yes"/>
      <point x="557.0" y="551.0"/>
      <point x="532.0" y="608.0"/>
      <point x="495.0" y="645.0" type="curve" smooth="yes"/>
      <point x="460.0" y="680.0"/>
      <point x="401.0" y="706.0"/>
    </contour>
    <contour>
      <point x="344.0" y="420.0" type="curve" smooth="yes"/>
      <point x="218.0" y="420.0" type="line"/>
      <point x="218.0" y="574.0" type="line"/>
      <point x="344.0" y="574.0" type="line" smooth="yes"/>
      <point x="364.0" y="574.0"/>
      <point x="376.0" y="569.0"/>
      <point x="394.0" y="552.0" type="curve"/>
      <point x="405.0" y="540.0"/>
      <point x="414.0" y="520.0"/>
      <point x="414.0" y="497.0" type="curve" smooth="yes"/>
      <point x="414.0" y="452.0"/>
      <point x="382.0" y="420.0"/>
    </contour>
  </outline>
</glyph>
<glyph name="Q" format="2">
  <advance width="805.0"/>
  <unicode hex="0051"/>
  <note>
Q
</note>
  <outline>
    <contour>
      <point x="566.0" y="40.0" type="curve"/>
      <point x="609.0" y="0.0" type="line"/>
      <point x="812.0" y="0.0" type="line"/>
      <point x="674.0" y="127.0" type="line"/>
      <point x="721.0" y="184.0"/>
      <point x="752.0" y="259.0"/>
      <point x="752.0" y="349.0" type="curve" smooth="yes"/>
      <point x="752.0" y="542.0"/>
      <point x="594.0" y="700.0"/>
      <point x="398.0" y="700.0" type="curve" smooth="yes"/>
      <point x="198.0" y="700.0"/>
      <point x="44.0" y="539.0"/>
      <point x="44.0" y="349.0" type="curve" smooth="yes"/>
      <point x="44.0" y="156.0"/>
      <point x="202.0" y="-2.0"/>
      <point x="398.0" y="-2.0" type="curve" smooth="yes"/>
      <point x="455.0" y="-2.0"/>
      <point x="513.0" y="12.0"/>
    </contour>
    <contour>
      <point x="571.0" y="222.0" type="curve"/>
      <point x="496.0" y="292.0" type="line"/>
      <point x="294.0" y="292.0" type="line"/>
      <point x="459.0" y="139.0" type="line"/>
      <point x="439.0" y="133.0"/>
      <point x="418.0" y="130.0"/>
      <point x="398.0" y="130.0" type="curve" smooth="yes"/>
      <point x="283.0" y="130.0"/>
      <point x="187.0" y="227.0"/>
      <point x="187.0" y="349.0" type="curve" smooth="yes"/>
      <point x="187.0" y="470.0"/>
      <point x="282.0" y="568.0"/>
      <point x="398.0" y="568.0" type="curve" smooth="yes"/>
      <point x="512.0" y="568.0"/>
      <point x="609.0" y="471.0"/>
      <point x="609.0" y="349.0" type="curve" smooth="yes"/>
      <point x="609.0" y="299.0"/>
      <point x="594.0" y="256.0"/>
    </contour>
  </outline>
</glyph>
<glyph name="R" format="2">
  <advance width="689.0"/>
  <unicode hex="0052"/>
  <note>
R
</note>
  <outline>
    <contour>
      <point x="220.0" y="324.0" type="line"/>
      <point x="303.0" y="324.0" type="line"/>
      <point x="506.0" y="0.0" type="line"/>
      <point x="672.0" y="0.0" type="line"/>
      <point x="459.0" y="340.0" type="line"/>
      <point x="528.0" y="370.0"/>
      <point x="576.0" y="438.0"/>
      <point x="576.0" y="515.0" type="curve" smooth="yes"/>
      <point x="576.0" y="619.0"/>
      <point x="496.0" y="706.0"/>
      <point x="369.0" y="706.0" type="curve" smooth="yes"/>
      <point x="77.0" y="706.0" type="line"/>
      <point x="77.0" y="0.0" type="line"/>
      <point x="220.0" y="0.0" type="line"/>
    </contour>
    <contour>
      <point x="374.0" y="457.0" type="curve" smooth="yes"/>
      <point x="220.0" y="457.0" type="line"/>
      <point x="220.0" y="574.0" type="line"/>
      <point x="372.0" y="574.0" type="line" smooth="yes"/>
      <point x="406.0" y="574.0"/>
      <point x="436.0" y="553.0"/>
      <point x="436.0" y="516.0" type="curve" smooth="yes"/>
      <point x="436.0" y="478.0"/>
      <point x="416.0" y="457.0"/>
    </contour>
  </outline>
</glyph>
<glyph name="S" format="2">
  <advance width="556"/>
  <unicode hex="0053"/>
  <anchor x="278" y="0" name="bottom"/>
  <anchor x="278" y="700" name="top"/>
  <outline>
    <contour>
      <point x="276" y="-6" type="curve" smooth="yes"/>
      <point x="396" y="-6"/>
      <point x="522" y="61"/>
      <point x="521" y="200" type="curve" smooth="yes"/>
      <point x="520" y="349"/>
      <point x="408" y="397"/>
      <point x="310" y="437" type="curve" smooth="yes"/>
      <point x="244" y="464"/>
      <point x="219" y="480"/>
      <point x="219" y="514" type="curve" smooth="yes"/>
      <point x="219" y="550"/>
      <point x="246" y="574"/>
      <point x="282" y="574" type="curve" smooth="yes"/>
      <point x="344" y="574"/>
      <point x="369" y="543"/>
      <point x="401" y="506" type="curve"/>
      <point x="499" y="596" type="line"/>
      <point x="457" y="654"/>
      <point x="394" y="706"/>
      <point x="282" y="706" type="curve" smooth="yes"/>
      <point x="174" y="706"/>
      <point x="76" y="626"/>
      <point x="76" y="514" type="curve" smooth="yes"/>
      <point x="76" y="394"/>
      <point x="184" y="344"/>
      <point x="256" y="315" type="curve" smooth="yes"/>
      <point x="335" y="282"/>
      <point x="379" y="260"/>
      <point x="379" y="200" type="curve" smooth="yes"/>
      <point x="379" y="152"/>
      <point x="342" y="123"/>
      <point x="276" y="123" type="curve" smooth="yes"/>
      <point x="206" y="123"/>
      <point x="166" y="167"/>
      <point x="139" y="209" type="curve"/>
      <point x="35" y="124" type="line"/>
      <point x="40" y="92"/>
      <point x="141" y="-6"/>
    </contour>
  </outline>
</glyph>
<glyph name="T" format="2">
  <advance width="660"/>
  <unicode hex="0054"/>
  <anchor x="330" y="0" name="bottom"/>
  <anchor x="330" y="700" name="top"/>
  <outline>
    <contour>
      <point x="259" y="0" type="line"/>
      <point x="402" y="0" type="line"/>
      <point x="402" y="568" type="line"/>
      <point x="635" y="568" type="line"/>
      <point x="635" y="700" type="line"/>
      <point x="25" y="700" type="line"/>
      <point x="25" y="568" type="line"/>
      <point x="259" y="568" type="line"/>
    </contour>
  </outline>
</glyph>
<glyph name="U" format="2">
  <advance width="728"/>
  <unicode hex="0055"/>
  <anchor x="364" y="0" name="bottom"/>
  <anchor x="342" y="-11" name="ogonek"/>
  <anchor x="364" y="700" name="top"/>
  <outline>
    <contour>
      <point x="364" y="-6" type="curve" smooth="yes"/>
      <point x="519" y="-6"/>
      <point x="648" y="70"/>
      <point x="648" y="265" type="curve" smooth="yes"/>
      <point x="648" y="700" type="line"/>
      <point x="508" y="700" type="line"/>
      <point x="508" y="259" type="line" smooth="yes"/>
      <point x="508" y="167"/>
      <point x="450" y="123"/>
      <point x="364" y="123" type="curve" smooth="yes"/>
      <point x="278" y="123"/>
      <point x="220" y="167"/>
      <point x="220" y="259" type="curve" smooth="yes"/>
      <point x="220" y="700" type="line"/>
      <point x="80" y="700" type="line"/>
      <point x="80" y="265" type="line" smooth="yes"/>
      <point x="80" y="70"/>
      <point x="209" y="-6"/>
    </contour>
  </outline>
</glyph>
<glyph name="V" format="2">
  <advance width="732"/>
  <unicode hex="0056"/>
  <anchor x="352" y="0" name="bottom"/>
  <anchor x="352" y="700" name="top"/>
  <outline>
    <contour>
      <point x="291" y="0" type="line"/>
      <point x="441" y="0" type="line"/>
      <point x="712" y="700" type="line"/>
      <point x="560" y="700" type="line"/>
      <point x="350" y="158" type="line"/>
      <point x="382" y="158" type="line"/>
      <point x="172" y="700" type="line"/>
      <point x="20" y="700" type="line"/>
    </contour>
  </outline>
</glyph>
<glyph name="W" format="2">
  <advance width="942.0"/>
  <unicode hex="0057"/>
  <note>
W
</note>
  <outline>
    <contour>
      <point x="757.0" y="0.0" type="line"/>
      <point x="931.0" y="700.0" type="line"/>
      <point x="784.0" y="700.0" type="line"/>
      <point x="681.0" y="284.0" type="line"/>
      <point x="533.0" y="700.0" type="line"/>
      <point x="409.0" y="700.0" type="line"/>
      <point x="261.0" y="284.0" type="line"/>
      <point x="158.0" y="700.0" type="line"/>
      <point x="11.0" y="700.0" type="line"/>
      <point x="185.0" y="0.0" type="line"/>
      <point x="310.0" y="0.0" type="line"/>
      <point x="471.0" y="452.0" type="line"/>
      <point x="631.0" y="0.0" type="line"/>
    </contour>
  </outline>
</glyph>
<glyph name="X" format="2">
  <advance width="803"/>
  <unicode hex="0058"/>
  <anchor x="401" y="0" name="bottom"/>
  <anchor x="401" y="700" name="top"/>
  <outline>
    <contour>
      <point x="417" y="270" type="line"/>
      <point x="327" y="380" type="line"/>
      <point x="15" y="0" type="line"/>
      <point x="193" y="0" type="line"/>
    </contour>
    <contour>
      <point x="40" y="700" type="line"/>
      <point x="610" y="0" type="line"/>
      <point x="788" y="0" type="line"/>
      <point x="219" y="700" type="line"/>
    </contour>
    <contour>
      <point x="391" y="455" type="line"/>
      <point x="482" y="346" type="line"/>
      <point x="767" y="700" type="line"/>
      <point x="588" y="700" type="line"/>
    </contour>
  </outline>
</glyph>
<glyph name="Y" format="2">
  <advance width="738.0"/>
  <unicode hex="0059"/>
  <note>
Y
</note>
  <outline>
    <contour>
      <point x="729.0" y="700.0" type="line"/>
      <point x="553.0" y="700.0" type="line"/>
      <point x="369.0" y="463.0" type="line"/>
      <point x="185.0" y="700.0" type="line"/>
      <point x="9.0" y="700.0" type="line"/>
      <point x="298.0" y="328.0" type="line"/>
      <point x="298.0" y="0.0" type="line"/>
      <point x="440.0" y="0.0" type="line"/>
      <point x="440.0" y="328.0" type="line"/>
    </contour>
  </outline>
</glyph>
<glyph name="Z" format="2">
  <advance width="696.0"/>
  <unicode hex="005A"/>
  <note>
Z
</note>
  <outline>
    <contour>
      <point x="6.0" y="0.0" type="line"/>
      <point x="643.0" y="0.0" type="line"/>
      <point x="643.0" y="132.0" type="line"/>
      <point x="274.0" y="132.0" type="line"/>
      <point x="685.0" y="700.0" type="line"/>
      <point x="97.0" y="700.0" type="line"/>
      <point x="97.0" y="568.0" type="line"/>
      <point x="418.0" y="568.0" type="line"/>
    </contour>
  </outline>
</glyph>
<glyph name="bracketleft" format="2">
  <advance width="392"/>
  <unicode hex="005B"/>
  <outline>
    <contour>
      <point x="50" y="-130" type="line"/>
      <point x="322" y="-130" type="line"/>
      <point x="322" y="2" type="line"/>
      <point x="193" y="2" type="line"/>
      <point x="193" y="638" type="line"/>
      <point x="322" y="638" type="line"/>
      <point x="322" y="770" type="line"/>
      <point x="50" y="770" type="line"/>
    </contour>
  </outline>
</glyph>
<glyph name="backslash" format="2">
  <advance width="600.0"/>
  <unicode hex="005C"/>
  <note>
backslash
</note>
  <outline>
    <contour>
      <point x="439.0" y="-68.0" type="line"/>
      <point x="152.0" y="715.0" type="line"/>
      <point x="18.0" y="670.0" type="line"/>
      <point x="305.0" y="-113.0" type="line"/>
    </contour>
  </outline>
</glyph>
<glyph name="bracketright" format="2">
  <advance width="392"/>
  <unicode hex="005D"/>
  <outline>
    <contour>
      <point x="70" y="-130" type="line"/>
      <point x="342" y="-130" type="line"/>
      <point x="342" y="770" type="line"/>
      <point x="70" y="770" type="line"/>
      <point x="70" y="638" type="line"/>
      <point x="200" y="638" type="line"/>
      <point x="200" y="2" type="line"/>
      <point x="70" y="2" type="line"/>
    </contour>
  </outline>
</glyph>
<glyph name="asciicircum" format="2">
  <advance width="600"/>
  <unicode hex="005E"/>
  <outline>
    <contour>
      <point x="176" y="366" type="line"/>
      <point x="274" y="549" type="line"/>
      <point x="373" y="366" type="line"/>
      <point x="499" y="428" type="line"/>
      <point x="274" y="846" type="line"/>
      <point x="50" y="428" type="line"/>
    </contour>
  </outline>
</glyph>
<glyph name="underscore" format="2">
  <advance width="600.0"/>
  <unicode hex="005F"/>
  <note>
underscore
</note>
  <outline>
    <contour>
      <point x="22.0" y="-161.0" type="line"/>
      <point x="561.0" y="-161.0" type="line"/>
      <point x="561.0" y="-29.0" type="line"/>
      <point x="22.0" y="-29.0" type="line"/>
    </contour>
  </outline>
</glyph>
<glyph name="a" format="2">
  <advance width="506"/>
  <unicode hex="0061"/>
  <anchor x="253" y="0" name="bottom"/>
  <anchor x="326" y="-6" name="ogonek"/>
  <anchor x="253" y="500" name="top"/>
  <outline>
    <contour>
      <point x="213" y="-5" type="curve" smooth="yes"/>
      <point x="272" y="-5"/>
      <point x="311" y="19"/>
      <point x="324" y="54" type="curve"/>
      <point x="324" y="0" type="line"/>
      <point x="461" y="0" type="line"/>
      <point x="461" y="316" type="line" smooth="yes"/>
      <point x="461" y="441"/>
      <point x="358" y="506"/>
      <point x="239" y="506" type="curve" smooth="yes"/>
      <point x="142" y="506"/>
      <point x="73" y="458"/>
      <point x="36" y="406" type="curve"/>
      <point x="129" y="322" type="line"/>
      <point x="158" y="364"/>
      <point x="194" y="382"/>
      <point x="239" y="382" type="curve" smooth="yes"/>
      <point x="298" y="382"/>
      <point x="324" y="358"/>
      <point x="324" y="322" type="curve" smooth="yes"/>
      <point x="324" y="311" type="line"/>
      <point x="302" y="317"/>
      <point x="270" y="322"/>
      <point x="239" y="322" type="curve" smooth="yes"/>
      <point x="133" y="322"/>
      <point x="27" y="276"/>
      <point x="27" y="153" type="curve" smooth="yes"/>
      <point x="27" y="72"/>
      <point x="81" y="-5"/>
    </contour>
    <contour>
      <point x="220" y="121" type="curve" smooth="yes"/>
      <point x="181" y="121"/>
      <point x="164" y="141"/>
      <point x="164" y="161" type="curve" smooth="yes"/>
      <point x="164" y="203"/>
      <point x="201" y="220"/>
      <point x="263" y="220" type="curve" smooth="yes"/>
      <point x="282" y="220"/>
      <point x="306" y="217"/>
      <point x="324" y="211" type="curve"/>
      <point x="323" y="157"/>
      <point x="284" y="121"/>
    </contour>
  </outline>
</glyph>
<glyph name="b" format="2">
  <advance width="587.0"/>
  <unicode hex="0062"/>
  <note>
b
</note>
  <outline>
    <contour>
      <point x="209.0" y="483.0" type="curve"/>
      <point x="209.0" y="700.0" type="line"/>
      <point x="72.0" y="700.0" type="line"/>
      <point x="72.0" y="0.0" type="line"/>
      <point x="209.0" y="0.0" type="line"/>
      <point x="209.0" y="20.0" type="line"/>
      <point x="236.0" y="3.0"/>
      <point x="269.0" y="-7.0"/>
      <point x="310.0" y="-7.0" type="curve" smooth="yes"/>
      <point x="453.0" y="-7.0"/>
      <point x="562.0" y="110.0"/>
      <point x="562.0" y="253.0" type="curve" smooth="yes"/>
      <point x="562.0" y="397.0"/>
      <point x="448.0" y="509.0"/>
      <point x="304.0" y="509.0" type="curve" smooth="yes"/>
      <point x="263.0" y="509.0"/>
      <point x="232.0" y="499.0"/>
    </contour>
    <contour>
      <point x="209.0" y="163.0" type="curve"/>
      <point x="209.0" y="333.0" type="line"/>
      <point x="222.0" y="360.0"/>
      <point x="252.0" y="382.0"/>
      <point x="304.0" y="382.0" type="curve" smooth="yes"/>
      <point x="368.0" y="382.0"/>
      <point x="425.0" y="330.0"/>
      <point x="425.0" y="253.0" type="curve" smooth="yes"/>
      <point x="425.0" y="176.0"/>
      <point x="373.0" y="121.0"/>
      <point x="310.0" y="121.0" type="curve" smooth="yes"/>
      <point x="263.0" y="121.0"/>
      <point x="229.0" y="139.0"/>
    </contour>
  </outline>
</glyph>
<glyph name="c" format="2">
  <advance width="568"/>
  <unicode hex="0063"/>
  <anchor x="279" y="0" name="bottom"/>
  <anchor x="279" y="500" name="top"/>
  <outline>
    <contour>
      <point x="309" y="-6" type="curve" smooth="yes"/>
      <point x="419" y="-6"/>
      <point x="498" y="45"/>
      <point x="538" y="111" type="curve"/>
      <point x="436" y="194" type="line"/>
      <point x="411" y="143"/>
      <point x="367" y="120"/>
      <point x="309" y="120" type="curve" smooth="yes"/>
      <point x="231" y="120"/>
      <point x="172" y="168"/>
      <point x="172" y="250" type="curve" smooth="yes"/>
      <point x="172" y="327"/>
      <point x="230" y="379"/>
      <point x="309" y="379" type="curve" smooth="yes"/>
      <point x="353" y="379"/>
      <point x="406" y="359"/>
      <point x="431" y="313" type="curve"/>
      <point x="527" y="404" type="line"/>
      <point x="487" y="461"/>
      <point x="403" y="506"/>
      <point x="309" y="506" type="curve" smooth="yes"/>
      <point x="148" y="506"/>
      <point x="35" y="392"/>
      <point x="35" y="250" type="curve" smooth="yes"/>
      <point x="35" y="100"/>
      <point x="153" y="-6"/>
    </contour>
  </outline>
</glyph>
<glyph name="d" format="2">
  <advance width="580.0"/>
  <unicode hex="0064"/>
  <note>
d
</note>
  <outline>
    <contour>
      <point x="385.0" y="20.0" type="curve"/>
      <point x="385.0" y="0.0" type="line"/>
      <point x="522.0" y="0.0" type="line"/>
      <point x="522.0" y="700.0" type="line"/>
      <point x="385.0" y="700.0" type="line"/>
      <point x="385.0" y="483.0" type="line"/>
      <point x="362.0" y="499.0"/>
      <point x="331.0" y="509.0"/>
      <point x="290.0" y="509.0" type="curve" smooth="yes"/>
      <point x="146.0" y="509.0"/>
      <point x="32.0" y="397.0"/>
      <point x="32.0" y="253.0" type="curve" smooth="yes"/>
      <point x="32.0" y="110.0"/>
      <point x="141.0" y="-7.0"/>
      <point x="284.0" y="-7.0" type="curve" smooth="yes"/>
      <point x="325.0" y="-7.0"/>
      <point x="358.0" y="3.0"/>
    </contour>
    <contour>
      <point x="385.0" y="333.0" type="curve"/>
      <point x="385.0" y="163.0" type="line"/>
      <point x="365.0" y="139.0"/>
      <point x="331.0" y="121.0"/>
      <point x="284.0" y="121.0" type="curve" smooth="yes"/>
      <point x="221.0" y="121.0"/>
      <point x="169.0" y="176.0"/>
      <point x="169.0" y="253.0" type="curve" smooth="yes"/>
      <point x="169.0" y="330.0"/>
      <point x="226.0" y="382.0"/>
      <point x="290.0" y="382.0" type="curve" smooth="yes"/>
      <point x="342.0" y="382.0"/>
      <point x="372.0" y="360.0"/>
    </contour>
  </outline>
</glyph>
<glyph name="e" format="2">
  <advance width="557"/>
  <unicode hex="0065"/>
  <anchor x="298" y="0" name="bottom"/>
  <anchor x="409" y="38" name="ogonek"/>
  <anchor x="298" y="500" name="top"/>
  <outline>
    <contour>
      <point x="101" y="322" type="line"/>
      <point x="101" y="219" type="line"/>
      <point x="521" y="219" type="line"/>
      <point x="554" y="458"/>
      <point x="399" y="513"/>
      <point x="285" y="513" type="curve" smooth="yes"/>
      <point x="126" y="513"/>
      <point x="35" y="405"/>
      <point x="35" y="257" type="curve" smooth="yes"/>
      <point x="35" y="119"/>
      <point x="118" y="-11"/>
      <point x="300" y="-11" type="curve" smooth="yes"/>
      <point x="415" y="-11"/>
      <point x="487" y="40"/>
      <point x="527" y="107" type="curve"/>
      <point x="423" y="191" type="line"/>
      <point x="410" y="147"/>
      <point x="379" y="112"/>
      <point x="300" y="112" type="curve" smooth="yes"/>
      <point x="222" y="112"/>
      <point x="171" y="152"/>
      <point x="171" y="257" type="curve" smooth="yes"/>
      <point x="171" y="355"/>
      <point x="205" y="400"/>
      <point x="285" y="400" type="curve" smooth="yes"/>
      <point x="370" y="400"/>
      <point x="391" y="350"/>
      <point x="377" y="290" type="curve"/>
      <point x="417" y="322" type="line"/>
    </contour>
  </outline>
</glyph>
<glyph name="f" format="2">
  <advance width="394"/>
  <unicode hex="0066"/>
  <anchor x="197" y="0" name="bottom"/>
  <anchor x="197" y="500" name="top"/>
  <outline>
    <contour>
      <point x="96" y="0" type="line"/>
      <point x="233" y="0" type="line"/>
      <point x="233" y="373" type="line"/>
      <point x="355" y="373" type="line"/>
      <point x="355" y="500" type="line"/>
      <point x="233" y="500" type="line"/>
      <point x="233" y="542" type="line" smooth="yes"/>
      <point x="233" y="579"/>
      <point x="249" y="591"/>
      <point x="265" y="591" type="curve" smooth="yes"/>
      <point x="283" y="591"/>
      <point x="302" y="580"/>
      <point x="323" y="551" type="curve"/>
      <point x="388" y="653" type="line"/>
      <point x="349" y="699"/>
      <point x="296" y="711"/>
      <point x="248" y="711" type="curve" smooth="yes"/>
      <point x="120" y="711"/>
      <point x="96" y="622"/>
      <point x="96" y="542" type="curve" smooth="yes"/>
      <point x="96" y="500" type="line"/>
      <point x="15" y="500" type="line"/>
      <point x="15" y="373" type="line"/>
      <point x="96" y="373" type="line"/>
    </contour>
  </outline>
</glyph>
<glyph name="g" format="2">
  <advance width="567"/>
  <unicode hex="0067"/>
  <anchor x="283" y="0" name="bottom"/>
  <anchor x="283" y="500" name="top"/>
  <outline>
    <contour>
      <point x="337" y="487" type="line"/>
      <point x="437" y="390" type="line"/>
      <point x="549" y="371" type="line"/>
      <point x="555" y="496" type="line"/>
    </contour>
    <contour>
      <point x="272" y="249" type="curve" smooth="yes"/>
      <point x="242" y="249"/>
      <point x="214" y="272"/>
      <point x="214" y="314" type="curve" smooth="yes"/>
      <point x="214" y="356"/>
      <point x="242" y="379"/>
      <point x="272" y="379" type="curve" smooth="yes"/>
      <point x="302" y="379"/>
      <point x="331" y="356"/>
      <point x="331" y="314" type="curve" smooth="yes"/>
      <point x="331" y="272"/>
      <point x="303" y="249"/>
    </contour>
    <contour>
      <point x="468" y="420"/>
      <point x="380" y="506"/>
      <point x="272" y="506" type="curve" smooth="yes"/>
      <point x="164" y="506"/>
      <point x="77" y="420"/>
      <point x="77" y="314" type="curve" smooth="yes"/>
      <point x="77" y="263"/>
      <point x="98" y="216"/>
      <point x="131" y="182" type="curve"/>
      <point x="197" y="203" type="line"/>
      <point x="108" y="231"/>
      <point x="6" y="191"/>
      <point x="6" y="88" type="curve" smooth="yes"/>
      <point x="6" y="-39"/>
      <point x="110" y="-54"/>
      <point x="319" y="-54" type="curve" smooth="yes"/>
      <point x="361" y="-54"/>
      <point x="406" y="-66"/>
      <point x="406" y="-114" type="curve" smooth="yes"/>
      <point x="406" y="-166"/>
      <point x="327" y="-180"/>
      <point x="251" y="-180" type="curve" smooth="yes"/>
      <point x="173" y="-180"/>
      <point x="141" y="-155"/>
      <point x="141" y="-119" type="curve" smooth="yes"/>
      <point x="141" y="-73"/>
      <point x="184" y="-46"/>
      <point x="201" y="-46" type="curve"/>
      <point x="128" y="-17" type="line"/>
      <point x="72" y="-39"/>
      <point x="20" y="-90"/>
      <point x="20" y="-156" type="curve" smooth="yes"/>
      <point x="20" y="-262"/>
      <point x="119" y="-304"/>
      <point x="249" y="-304" type="curve" smooth="yes"/>
      <point x="435" y="-304"/>
      <point x="538" y="-239"/>
      <point x="538" y="-95" type="curve" smooth="yes"/>
      <point x="538" y="49"/>
      <point x="398" y="66"/>
      <point x="282" y="66" type="curve" smooth="yes"/>
      <point x="255" y="66"/>
      <point x="230" y="65"/>
      <point x="210" y="65" type="curve" smooth="yes"/>
      <point x="152" y="65"/>
      <point x="125" y="75"/>
      <point x="125" y="106" type="curve" smooth="yes"/>
      <point x="125" y="141"/>
      <point x="167" y="141"/>
      <point x="194" y="133" type="curve" smooth="yes"/>
      <point x="216" y="126"/>
      <point x="243" y="123"/>
      <point x="272" y="123" type="curve" smooth="yes"/>
      <point x="380" y="123"/>
      <point x="468" y="209"/>
      <point x="468" y="314" type="curve" smooth="yes"/>
    </contour>
  </outline>
</glyph>
<glyph name="h" format="2">
  <advance width="574"/>
  <unicode hex="0068"/>
  <anchor x="280" y="0" name="bottom"/>
  <anchor x="280" y="500" name="top"/>
  <outline>
    <contour>
      <point x="50" y="0" type="line"/>
      <point x="187" y="0" type="line"/>
      <point x="187" y="319" type="line"/>
      <point x="207" y="360"/>
      <point x="255" y="379"/>
      <point x="292" y="379" type="curve" smooth="yes"/>
      <point x="354" y="379"/>
      <point x="387" y="347"/>
      <point x="387" y="282" type="curve" smooth="yes"/>
      <point x="387" y="0" type="line"/>
      <point x="524" y="0" type="line"/>
      <point x="524" y="282" type="line" smooth="yes"/>
      <point x="524" y="403"/>
      <point x="466" y="506"/>
      <point x="317" y="506" type="curve" smooth="yes"/>
      <point x="257" y="506"/>
      <point x="207" y="476"/>
      <point x="187" y="436" type="curve"/>
      <point x="187" y="700" type="line"/>
      <point x="50" y="700" type="line"/>
    </contour>
  </outline>
</glyph>
<glyph name="i" format="2">
  <advance width="264.0"/>
  <unicode hex="0069"/>
  <note>
i
</note>
  <outline>
    <contour>
      <point x="58.0" y="606.0" type="curve" smooth="yes"/>
      <point x="58.0" y="570.0"/>
      <point x="91.0" y="537.0"/>
      <point x="130.0" y="537.0" type="curve" smooth="yes"/>
      <point x="169.0" y="537.0"/>
      <point x="201.0" y="570.0"/>
      <point x="201.0" y="606.0" type="curve" smooth="yes"/>
      <point x="201.0" y="643.0"/>
      <point x="169.0" y="675.0"/>
      <point x="130.0" y="675.0" type="curve" smooth="yes"/>
      <point x="91.0" y="675.0"/>
      <point x="58.0" y="643.0"/>
    </contour>
    <contour>
      <point x="64.0" y="506.0" type="line"/>
      <point x="64.0" y="0.0" type="line"/>
      <point x="201.0" y="0.0" type="line"/>
      <point x="201.0" y="506.0" type="line"/>
    </contour>
  </outline>
</glyph>
<glyph name="j" format="2">
  <advance width="244.0"/>
  <unicode hex="006A"/>
  <note>
j
</note>
  <outline>
    <contour>
      <point x="47.0" y="606.0" type="curve" smooth="yes"/>
      <point x="47.0" y="570.0"/>
      <point x="79.0" y="537.0"/>
      <point x="118.0" y="537.0" type="curve" smooth="yes"/>
      <point x="157.0" y="537.0"/>
      <point x="190.0" y="570.0"/>
      <point x="190.0" y="606.0" type="curve" smooth="yes"/>
      <point x="190.0" y="643.0"/>
      <point x="157.0" y="675.0"/>
      <point x="118.0" y="675.0" type="curve" smooth="yes"/>
      <point x="79.0" y="675.0"/>
      <point x="47.0" y="643.0"/>
    </contour>
    <contour>
      <point x="191.0" y="22.0" type="curve" smooth="yes"/>
      <point x="191.0" y="506.0" type="line"/>
      <point x="54.0" y="506.0" type="line"/>
      <point x="54.0" y="22.0" type="line" smooth="yes"/>
      <point x="54.0" y="-43.0"/>
      <point x="-1.0" y="-66.0"/>
      <point x="-63.0" y="-49.0" type="curve"/>
      <point x="-63.0" y="-178.0" type="line"/>
      <point x="60.0" y="-197.0"/>
      <point x="191.0" y="-126.0"/>
    </contour>
  </outline>
</glyph>
<glyph name="k" format="2">
  <advance width="581"/>
  <unicode hex="006B"/>
  <anchor x="282" y="0" name="bottom"/>
  <anchor x="282" y="500" name="top"/>
  <outline>
    <contour>
      <point x="60" y="0" type="line"/>
      <point x="197" y="0" type="line"/>
      <point x="197" y="280" type="line"/>
      <point x="165" y="185" type="line"/>
      <point x="252" y="255" type="line"/>
      <point x="412" y="0" type="line"/>
      <point x="560" y="0" type="line"/>
      <point x="324" y="377" type="line"/>
      <point x="323" y="311" type="line"/>
      <point x="566" y="500" type="line"/>
      <point x="349" y="500" type="line"/>
      <point x="182" y="373" type="line"/>
      <point x="197" y="356" type="line"/>
      <point x="197" y="700" type="line"/>
      <point x="60" y="700" type="line"/>
    </contour>
  </outline>
</glyph>
<glyph name="l" format="2">
  <advance width="257"/>
  <unicode hex="006C"/>
  <anchor x="128" y="0" name="bottom"/>
  <anchor x="120" y="700" name="top"/>
  <outline>
    <contour>
      <point x="60" y="0" type="line"/>
      <point x="197" y="0" type="line"/>
      <point x="197" y="700" type="line"/>
      <point x="60" y="700" type="line"/>
    </contour>
  </outline>
</glyph>
<glyph name="m" format="2">
  <advance width="899.0"/>
  <unicode hex="006D"/>
  <note>
m
</note>
  <outline>
    <contour>
      <point x="215.0" y="476.0" type="curve"/>
      <point x="215.0" y="505.0" type="line"/>
      <point x="78.0" y="505.0" type="line"/>
      <point x="78.0" y="0.0" type="line"/>
      <point x="215.0" y="0.0" type="line"/>
      <point x="215.0" y="308.0" type="line"/>
      <point x="230.0" y="355.0"/>
      <point x="270.0" y="385.0"/>
      <point x="312.0" y="385.0" type="curve" smooth="yes"/>
      <point x="365.0" y="385.0"/>
      <point x="393.0" y="348.0"/>
      <point x="393.0" y="293.0" type="curve" smooth="yes"/>
      <point x="393.0" y="0.0" type="line"/>
      <point x="530.0" y="0.0" type="line"/>
      <point x="530.0" y="293.0" type="line" smooth="yes"/>
      <point x="530.0" y="301.0"/>
      <point x="530.0" y="309.0"/>
      <point x="529.0" y="317.0" type="curve"/>
      <point x="549.0" y="363.0"/>
      <point x="588.0" y="385.0"/>
      <point x="627.0" y="385.0" type="curve" smooth="yes"/>
      <point x="680.0" y="385.0"/>
      <point x="713.0" y="352.0"/>
      <point x="713.0" y="296.0" type="curve" smooth="yes"/>
      <point x="713.0" y="0.0" type="line"/>
      <point x="850.0" y="0.0" type="line"/>
      <point x="850.0" y="296.0" type="line" smooth="yes"/>
      <point x="850.0" y="418.0"/>
      <point x="762.0" y="510.0"/>
      <point x="632.0" y="510.0" type="curve" smooth="yes"/>
      <point x="558.0" y="510.0"/>
      <point x="507.0" y="483.0"/>
      <point x="473.0" y="446.0" type="curve"/>
      <point x="436.0" y="486.0"/>
      <point x="383.0" y="511.0"/>
      <point x="317.0" y="511.0" type="curve" smooth="yes"/>
      <point x="276.0" y="511.0"/>
      <point x="242.0" y="497.0"/>
    </contour>
  </outline>
</glyph>
<glyph name="n" format="2">
  <advance width="561.0"/>
  <unicode hex="006E"/>
  <note>
n
</note>
  <outline>
    <contour>
      <point x="194.0" y="481.0" type="curve"/>
      <point x="194.0" y="505.0" type="line"/>
      <point x="57.0" y="505.0" type="line"/>
      <point x="57.0" y="0.0" type="line"/>
      <point x="194.0" y="0.0" type="line"/>
      <point x="194.0" y="324.0" type="line"/>
      <point x="214.0" y="365.0"/>
      <point x="252.0" y="385.0"/>
      <point x="289.0" y="385.0" type="curve" smooth="yes"/>
      <point x="341.0" y="385.0"/>
      <point x="374.0" y="352.0"/>
      <point x="374.0" y="297.0" type="curve" smooth="yes"/>
      <point x="374.0" y="0.0" type="line"/>
      <point x="511.0" y="0.0" type="line"/>
      <point x="511.0" y="297.0" type="line" smooth="yes"/>
      <point x="511.0" y="418.0"/>
      <point x="424.0" y="511.0"/>
      <point x="294.0" y="511.0" type="curve" smooth="yes"/>
      <point x="254.0" y="511.0"/>
      <point x="221.0" y="500.0"/>
    </contour>
  </outline>
</glyph>
<glyph name="o" format="2">
  <advance width="590"/>
  <unicode hex="006F"/>
  <anchor x="295" y="0" name="bottom"/>
  <anchor x="295" y="500" name="top"/>
  <outline>
    <contour>
      <point x="295" y="-6" type="curve" smooth="yes"/>
      <point x="440" y="-6"/>
      <point x="555" y="102"/>
      <point x="555" y="250" type="curve" smooth="yes"/>
      <point x="555" y="399"/>
      <point x="439" y="506"/>
      <point x="295" y="506" type="curve" smooth="yes"/>
      <point x="152" y="506"/>
      <point x="35" y="400"/>
      <point x="35" y="250" type="curve" smooth="yes"/>
      <point x="35" y="101"/>
      <point x="150" y="-6"/>
    </contour>
    <contour>
      <point x="295" y="122" type="curve" smooth="yes"/>
      <point x="229" y="122"/>
      <point x="172" y="169"/>
      <point x="172" y="250" type="curve" smooth="yes"/>
      <point x="172" y="331"/>
      <point x="230" y="378"/>
      <point x="295" y="378" type="curve" smooth="yes"/>
      <point x="361" y="378"/>
      <point x="418" y="331"/>
      <point x="418" y="250" type="curve" smooth="yes"/>
      <point x="418" y="170"/>
      <point x="361" y="122"/>
    </contour>
  </outline>
</glyph>
<glyph name="p" format="2">
  <advance width="596.0"/>
  <unicode hex="0070"/>
  <note>
p
</note>
  <outline>
    <contour>
      <point x="207.0" y="481.0" type="curve"/>
      <point x="207.0" y="507.0" type="line"/>
      <point x="69.0" y="507.0" type="line"/>
      <point x="69.0" y="-181.0" type="line"/>
      <point x="207.0" y="-181.0" type="line"/>
      <point x="207.0" y="17.0" type="line"/>
      <point x="234.0" y="0.0"/>
      <point x="268.0" y="-10.0"/>
      <point x="308.0" y="-10.0" type="curve" smooth="yes"/>
      <point x="452.0" y="-10.0"/>
      <point x="560.0" y="106.0"/>
      <point x="560.0" y="249.0" type="curve" smooth="yes"/>
      <point x="560.0" y="393.0"/>
      <point x="446.0" y="511.0"/>
      <point x="303.0" y="511.0" type="curve" smooth="yes"/>
      <point x="264.0" y="511.0"/>
      <point x="228.0" y="499.0"/>
    </contour>
    <contour>
      <point x="207.0" y="176.0" type="curve"/>
      <point x="207.0" y="329.0" type="line"/>
      <point x="219.0" y="358.0"/>
      <point x="250.0" y="384.0"/>
      <point x="303.0" y="384.0" type="curve" smooth="yes"/>
      <point x="366.0" y="384.0"/>
      <point x="423.0" y="326.0"/>
      <point x="423.0" y="249.0" type="curve" smooth="yes"/>
      <point x="423.0" y="172.0"/>
      <point x="371.0" y="117.0"/>
      <point x="308.0" y="117.0" type="curve" smooth="yes"/>
      <point x="256.0" y="117.0"/>
      <point x="221.0" y="146.0"/>
    </contour>
  </outline>
</glyph>
<glyph name="q" format="2">
  <advance width="600.0"/>
  <unicode hex="0071"/>
  <note>
q
</note>
  <outline>
    <contour>
      <point x="398.0" y="-181.0" type="line"/>
      <point x="535.0" y="-181.0" type="line"/>
      <point x="535.0" y="508.0" type="line"/>
      <point x="398.0" y="508.0" type="line"/>
      <point x="398.0" y="481.0" type="line"/>
      <point x="377.0" y="499.0"/>
      <point x="340.0" y="511.0"/>
      <point x="302.0" y="511.0" type="curve" smooth="yes"/>
      <point x="159.0" y="511.0"/>
      <point x="45.0" y="393.0"/>
      <point x="45.0" y="249.0" type="curve" smooth="yes"/>
      <point x="45.0" y="106.0"/>
      <point x="153.0" y="-10.0"/>
      <point x="297.0" y="-10.0" type="curve" smooth="yes"/>
      <point x="337.0" y="-10.0"/>
      <point x="371.0" y="0.0"/>
      <point x="398.0" y="17.0" type="curve"/>
    </contour>
    <contour>
      <point x="398.0" y="329.0" type="curve"/>
      <point x="398.0" y="176.0" type="line"/>
      <point x="384.0" y="146.0"/>
      <point x="349.0" y="117.0"/>
      <point x="297.0" y="117.0" type="curve" smooth="yes"/>
      <point x="234.0" y="117.0"/>
      <point x="182.0" y="172.0"/>
      <point x="182.0" y="249.0" type="curve" smooth="yes"/>
      <point x="182.0" y="326.0"/>
      <point x="239.0" y="384.0"/>
      <point x="302.0" y="384.0" type="curve" smooth="yes"/>
      <point x="355.0" y="384.0"/>
      <point x="386.0" y="358.0"/>
    </contour>
  </outline>
</glyph>
<glyph name="r" format="2">
  <advance width="424.0"/>
  <unicode hex="0072"/>
  <note>
r
</note>
  <outline>
    <contour>
      <point x="213.0" y="463.0" type="curve"/>
      <point x="213.0" y="506.0" type="line"/>
      <point x="76.0" y="506.0" type="line"/>
      <point x="76.0" y="0.0" type="line"/>
      <point x="213.0" y="0.0" type="line"/>
      <point x="213.0" y="297.0" type="line"/>
      <point x="219.0" y="364.0"/>
      <point x="258.0" y="391.0"/>
      <point x="293.0" y="389.0" type="curve" smooth="yes"/>
      <point x="322.0" y="388.0"/>
      <point x="339.0" y="369.0"/>
      <point x="352.0" y="349.0" type="curve"/>
      <point x="419.0" y="456.0" type="line"/>
      <point x="373.0" y="502.0"/>
      <point x="329.0" y="508.0"/>
      <point x="301.0" y="508.0" type="curve" smooth="yes"/>
      <point x="264.0" y="508.0"/>
      <point x="235.0" y="490.0"/>
    </contour>
  </outline>
</glyph>
<glyph name="s" format="2">
  <advance width="471"/>
  <unicode hex="0073"/>
  <anchor x="235" y="0" name="bottom"/>
  <anchor x="235" y="500" name="top"/>
  <outline>
    <contour>
      <point x="242" y="-6" type="curve" smooth="yes"/>
      <point x="339" y="-6"/>
      <point x="436" y="44"/>
      <point x="436" y="157" type="curve" smooth="yes"/>
      <point x="436" y="321"/>
      <point x="206" y="311"/>
      <point x="206" y="360" type="curve" smooth="yes"/>
      <point x="206" y="379"/>
      <point x="222" y="385"/>
      <point x="238" y="385" type="curve" smooth="yes"/>
      <point x="271" y="385"/>
      <point x="297" y="362"/>
      <point x="314" y="338" type="curve"/>
      <point x="410" y="428" type="line"/>
      <point x="360" y="482"/>
      <point x="308" y="506"/>
      <point x="233" y="506" type="curve" smooth="yes"/>
      <point x="136" y="506"/>
      <point x="69" y="440"/>
      <point x="69" y="362" type="curve" smooth="yes"/>
      <point x="69" y="206"/>
      <point x="299" y="244"/>
      <point x="299" y="157" type="curve" smooth="yes"/>
      <point x="299" y="134"/>
      <point x="279" y="117"/>
      <point x="242" y="117" type="curve" smooth="yes"/>
      <point x="194" y="117"/>
      <point x="158" y="140"/>
      <point x="125" y="185" type="curve"/>
      <point x="30" y="96" type="line"/>
      <point x="69" y="53"/>
      <point x="137" y="-6"/>
    </contour>
  </outline>
</glyph>
<glyph name="t" format="2">
  <advance width="367"/>
  <unicode hex="0074"/>
  <anchor x="220" y="0" name="bottom"/>
  <anchor x="183" y="700" name="top"/>
  <outline>
    <contour>
      <point x="228" y="-6" type="curve" smooth="yes"/>
      <point x="297" y="-6"/>
      <point x="339" y="16"/>
      <point x="367" y="37" type="curve"/>
      <point x="310" y="144" type="line"/>
      <point x="299" y="131"/>
      <point x="281" y="120"/>
      <point x="258" y="120" type="curve" smooth="yes"/>
      <point x="236" y="120"/>
      <point x="221" y="130"/>
      <point x="221" y="161" type="curve" smooth="yes"/>
      <point x="221" y="382" type="line"/>
      <point x="350" y="382" type="line"/>
      <point x="350" y="506" type="line"/>
      <point x="221" y="506" type="line"/>
      <point x="221" y="700" type="line"/>
      <point x="84" y="700" type="line"/>
      <point x="84" y="506" type="line"/>
      <point x="10" y="506" type="line"/>
      <point x="10" y="382" type="line"/>
      <point x="84" y="382" type="line"/>
      <point x="84" y="134" type="line" smooth="yes"/>
      <point x="84" y="37"/>
      <point x="133" y="-6"/>
    </contour>
  </outline>
</glyph>
<glyph name="v" format="2">
  <advance width="550"/>
  <unicode hex="0076"/>
  <anchor x="275" y="0" name="bottom"/>
  <anchor x="275" y="500" name="top"/>
  <outline>
    <contour>
      <point x="220" y="0" type="line"/>
      <point x="330" y="0" type="line"/>
      <point x="540" y="500" type="line"/>
      <point x="392" y="500" type="line"/>
      <point x="270" y="196" type="line"/>
      <point x="280" y="196" type="line"/>
      <point x="158" y="500" type="line"/>
      <point x="10" y="500" type="line"/>
    </contour>
  </outline>
</glyph>
<glyph name="w" format="2">
  <advance width="776"/>
  <unicode hex="0077"/>
  <anchor x="388" y="0" name="bottom"/>
  <anchor x="388" y="500" name="top"/>
  <outline>
    <contour>
      <point x="158" y="500" type="line"/>
      <point x="10" y="500" type="line"/>
      <point x="180" y="0" type="line"/>
      <point x="292" y="0" type="line"/>
      <point x="403" y="325" type="line"/>
      <point x="373" y="325" type="line"/>
      <point x="484" y="0" type="line"/>
      <point x="596" y="0" type="line"/>
      <point x="766" y="500" type="line"/>
      <point x="618" y="500" type="line"/>
      <point x="528" y="166" type="line"/>
      <point x="552" y="166" type="line"/>
      <point x="462" y="500" type="line"/>
      <point x="314" y="500" type="line"/>
      <point x="224" y="166" type="line"/>
      <point x="248" y="166" type="line"/>
    </contour>
  </outline>
</glyph>
<glyph name="x" format="2">
  <advance width="609.0"/>
  <unicode hex="0078"/>
  <note>
x
</note>
  <outline>
    <contour>
      <point x="308.0" y="351.0" type="line"/>
      <point x="182.0" y="506.0" type="line"/>
      <point x="8.0" y="506.0" type="line"/>
      <point x="217.0" y="253.0" type="line"/>
      <point x="2.0" y="0.0" type="line"/>
      <point x="177.0" y="0.0" type="line"/>
      <point x="304.0" y="150.0" type="line"/>
      <point x="432.0" y="0.0" type="line"/>
      <point x="606.0" y="0.0" type="line"/>
      <point x="395.0" y="248.0" type="line"/>
      <point x="607.0" y="506.0" type="line"/>
      <point x="433.0" y="506.0" type="line"/>
    </contour>
  </outline>
</glyph>
<glyph name="y" format="2">
  <advance width="654"/>
  <unicode hex="0079"/>
  <anchor x="327" y="0" name="bottom"/>
  <anchor x="327" y="500" name="top"/>
  <outline>
    <contour>
      <point x="87" y="-200" type="line"/>
      <point x="243" y="-200" type="line"/>
      <point x="644" y="500" type="line"/>
      <point x="489" y="500" type="line"/>
      <point x="331" y="219" type="line"/>
      <point x="167" y="500" type="line"/>
      <point x="10" y="500" type="line"/>
      <point x="253" y="86" type="line"/>
    </contour>
  </outline>
</glyph>
<glyph name="z" format="2">
  <advance width="531"/>
  <unicode hex="007A"/>
  <anchor x="265" y="0" name="bottom"/>
  <anchor x="265" y="500" name="top"/>
  <outline>
    <contour>
      <point x="52" y="0" type="line"/>
      <point x="491" y="0" type="line"/>
      <point x="491" y="127" type="line"/>
      <point x="246" y="127" type="line"/>
      <point x="482" y="412" type="line"/>
      <point x="482" y="506" type="line"/>
      <point x="40" y="506" type="line"/>
      <point x="40" y="373" type="line"/>
      <point x="285" y="373" type="line"/>
      <point x="52" y="93" type="line"/>
    </contour>
  </outline>
</glyph>
<glyph name="braceleft" format="2">
  <advance width="453"/>
  <unicode hex="007B"/>
  <outline>
    <contour>
      <point x="50" y="290" type="line"/>
      <point x="139" y="290"/>
      <point x="282" y="311"/>
      <point x="282" y="445" type="curve" smooth="yes"/>
      <point x="282" y="491"/>
      <point x="278" y="540"/>
      <point x="278" y="583" type="curve" smooth="yes"/>
      <point x="278" y="646"/>
      <point x="297" y="661"/>
      <point x="322" y="661" type="curve" smooth="yes"/>
      <point x="342" y="661"/>
      <point x="368" y="646"/>
      <point x="375" y="642" type="curve"/>
      <point x="413" y="774" type="line"/>
      <point x="413" y="774"/>
      <point x="365" y="797"/>
      <point x="283" y="797" type="curve" smooth="yes"/>
      <point x="222" y="797"/>
      <point x="131" y="770"/>
      <point x="131" y="640" type="curve" smooth="yes"/>
      <point x="131" y="576"/>
      <point x="137" y="516"/>
      <point x="137" y="467" type="curve" smooth="yes"/>
      <point x="137" y="417"/>
      <point x="132" y="380"/>
      <point x="50" y="380" type="curve"/>
    </contour>
    <contour>
      <point x="50" y="347" type="curve"/>
      <point x="50" y="257" type="line"/>
      <point x="132" y="257"/>
      <point x="137" y="220"/>
      <point x="137" y="170" type="curve" smooth="yes"/>
      <point x="137" y="121"/>
      <point x="131" y="61"/>
      <point x="131" y="-3" type="curve" smooth="yes"/>
      <point x="131" y="-133"/>
      <point x="222" y="-160"/>
      <point x="283" y="-160" type="curve" smooth="yes"/>
      <point x="365" y="-160"/>
      <point x="413" y="-137"/>
      <point x="413" y="-137" type="curve"/>
      <point x="375" y="-5" type="line"/>
      <point x="368" y="-9"/>
      <point x="342" y="-24"/>
      <point x="322" y="-24" type="curve" smooth="yes"/>
      <point x="297" y="-24"/>
      <point x="278" y="-9"/>
      <point x="278" y="54" type="curve" smooth="yes"/>
      <point x="278" y="97"/>
      <point x="282" y="146"/>
      <point x="282" y="192" type="curve" smooth="yes"/>
      <point x="282" y="326"/>
      <point x="139" y="347"/>
    </contour>
  </outline>
</glyph>
<glyph name="bar" format="2">
  <advance width="600"/>
  <unicode hex="007C"/>
  <outline>
    <contour>
      <point x="256" y="-152" type="line"/>
      <point x="399" y="-152" type="line"/>
      <point x="399" y="757" type="line"/>
      <point x="256" y="757" type="line"/>
    </contour>
  </outline>
</glyph>
<glyph name="braceright" format="2">
  <advance width="334.0"/>
  <unicode hex="007D"/>
  <note>
braceright
</note>
  <outline>
    <contour>
      <point x="5.0" y="-139.0" type="curve"/>
      <point x="68.0" y="-20.0" type="line"/>
      <point x="71.0" y="-22.0"/>
      <point x="82.0" y="-27.0"/>
      <point x="95.0" y="-27.0" type="curve" smooth="yes"/>
      <point x="105.0" y="-27.0"/>
      <point x="114.0" y="-18.0"/>
      <point x="114.0" y="21.0" type="curve" smooth="yes"/>
      <point x="114.0" y="65.0"/>
      <point x="108.0" y="118.0"/>
      <point x="108.0" y="169.0" type="curve" smooth="yes"/>
      <point x="108.0" y="218.0"/>
      <point x="109.0" y="269.0"/>
      <point x="159.0" y="308.0" type="curve"/>
      <point x="109.0" y="347.0"/>
      <point x="108.0" y="398.0"/>
      <point x="108.0" y="447.0" type="curve" smooth="yes"/>
      <point x="108.0" y="498.0"/>
      <point x="114.0" y="551.0"/>
      <point x="114.0" y="595.0" type="curve" smooth="yes"/>
      <point x="114.0" y="634.0"/>
      <point x="107.0" y="641.0"/>
      <point x="94.0" y="641.0" type="curve" smooth="yes"/>
      <point x="80.0" y="641.0"/>
      <point x="62.0" y="634.0"/>
      <point x="52.0" y="631.0" type="curve"/>
      <point x="13.0" y="758.0" type="line"/>
      <point x="13.0" y="758.0"/>
      <point x="52.0" y="773.0"/>
      <point x="98.0" y="773.0" type="curve" smooth="yes"/>
      <point x="163.0" y="773.0"/>
      <point x="256.0" y="740.0"/>
      <point x="256.0" y="595.0" type="curve" smooth="yes"/>
      <point x="256.0" y="537.0"/>
      <point x="251.0" y="483.0"/>
      <point x="251.0" y="441.0" type="curve" smooth="yes"/>
      <point x="251.0" y="377.0"/>
      <point x="280.0" y="371.0"/>
      <point x="314.0" y="371.0" type="curve"/>
      <point x="314.0" y="244.0" type="line"/>
      <point x="280.0" y="244.0"/>
      <point x="251.0" y="244.0"/>
      <point x="251.0" y="175.0" type="curve" smooth="yes"/>
      <point x="251.0" y="133.0"/>
      <point x="256.0" y="79.0"/>
      <point x="256.0" y="21.0" type="curve" smooth="yes"/>
      <point x="256.0" y="-125.0"/>
      <point x="170.0" y="-158.0"/>
      <point x="102.0" y="-158.0" type="curve" smooth="yes"/>
      <point x="50.0" y="-158.0"/>
      <point x="5.0" y="-139.0"/>
    </contour>
  </outline>
</glyph>
<glyph name="asciitilde" format="2">
  <advance width="600.0"/>
  <unicode hex="007E"/>
  <note>
asciitilde
</note>
  <outline>
    <contour>
      <point x="67.0" y="271.0" type="curve"/>
      <point x="189.0" y="311.0" type="line"/>
      <point x="183.0" y="320.0"/>
      <point x="177.0" y="331.0"/>
      <point x="177.0" y="341.0" type="curve" smooth="yes"/>
      <point x="177.0" y="359.0"/>
      <point x="186.0" y="367.0"/>
      <point x="198.0" y="367.0" type="curve" smooth="yes"/>
      <point x="249.0" y="367.0"/>
      <point x="269.0" y="230.0"/>
      <point x="403.0" y="230.0" type="curve" smooth="yes"/>
      <point x="482.0" y="230.0"/>
      <point x="551.0" y="276.0"/>
      <point x="551.0" y="376.0" type="curve" smooth="yes"/>
      <point x="551.0" y="416.0"/>
      <point x="532.0" y="466.0"/>
      <point x="503.0" y="489.0" type="curve"/>
      <point x="388.0" y="430.0" type="line"/>
      <point x="411.0" y="408.0"/>
      <point x="417.0" y="390.0"/>
      <point x="417.0" y="378.0" type="curve" smooth="yes"/>
      <point x="417.0" y="361.0"/>
      <point x="404.0" y="357.0"/>
      <point x="396.0" y="357.0" type="curve" smooth="yes"/>
      <point x="332.0" y="357.0"/>
      <point x="323.0" y="493.0"/>
      <point x="192.0" y="493.0" type="curve" smooth="yes"/>
      <point x="107.0" y="493.0"/>
      <point x="44.0" y="435.0"/>
      <point x="44.0" y="340.0" type="curve" smooth="yes"/>
      <point x="44.0" y="321.0"/>
      <point x="52.0" y="286.0"/>
    </contour>
  </outline>
</glyph>
<glyph name="exclamdown" format="2">
  <advance width="600.0"/>
  <unicode hex="00A1"/>
  <note>
exclamdown
</note>
  <outline>
    <contour>
      <point x="207.0" y="822.0" type="curve" smooth="yes"/>
      <point x="261.0" y="822.0"/>
      <point x="303.0" y="779.0"/>
      <point x="303.0" y="728.0" type="curve" smooth="yes"/>
      <point x="303.0" y="677.0"/>
      <point x="261.0" y="635.0"/>
      <point x="207.0" y="635.0" type="curve" smooth="yes"/>
      <point x="153.0" y="635.0"/>
      <point x="111.0" y="677.0"/>
      <point x="111.0" y="728.0" type="curve" smooth="yes"/>
      <point x="111.0" y="779.0"/>
      <point x="153.0" y="822.0"/>
    </contour>
    <contour>
      <point x="137.0" y="563.0" type="line"/>
      <point x="277.0" y="563.0" type="line"/>
      <point x="296.0" y="70.0" type="line"/>
      <point x="118.0" y="70.0" type="line"/>
    </contour>
  </outline>
</glyph>
<glyph name="cent" format="2">
  <advance width="579.0"/>
  <unicode hex="00A2"/>
  <note>
cent
</note>
  <outline>
    <contour>
      <point x="533.0" y="210.0" type="curve"/>
      <point x="418.0" y="286.0" type="line"/>
      <point x="390.0" y="230.0"/>
      <point x="353.0" y="201.0"/>
      <point x="305.0" y="201.0" type="curve" smooth="yes"/>
      <point x="242.0" y="201.0"/>
      <point x="187.0" y="259.0"/>
      <point x="187.0" y="335.0" type="curve" smooth="yes"/>
      <point x="187.0" y="406.0"/>
      <point x="238.0" y="468.0"/>
      <point x="305.0" y="468.0" type="curve" smooth="yes"/>
      <point x="351.0" y="468.0"/>
      <point x="386.0" y="442.0"/>
      <point x="415.0" y="391.0" type="curve"/>
      <point x="525.0" y="472.0" type="line"/>
      <point x="504.0" y="521.0"/>
      <point x="441.0" y="570.0"/>
      <point x="371.0" y="590.0" type="curve"/>
      <point x="371.0" y="676.0" type="line"/>
      <point x="228.0" y="676.0" type="line"/>
      <point x="228.0" y="589.0" type="line"/>
      <point x="113.0" y="554.0"/>
      <point x="44.0" y="445.0"/>
      <point x="44.0" y="335.0" type="curve" smooth="yes"/>
      <point x="44.0" y="217.0"/>
      <point x="120.0" y="115.0"/>
      <point x="228.0" y="81.0" type="curve"/>
      <point x="228.0" y="-9.0" type="line"/>
      <point x="371.0" y="-9.0" type="line"/>
      <point x="371.0" y="79.0" type="line"/>
      <point x="445.0" y="101.0"/>
      <point x="513.0" y="155.0"/>
    </contour>
  </outline>
</glyph>
<glyph name="sterling" format="2">
  <advance width="600"/>
  <unicode hex="00A3"/>
  <outline>
    <contour>
      <point x="393" y="-23" type="curve" smooth="yes"/>
      <point x="552" y="-23"/>
      <point x="576" y="112"/>
      <point x="576" y="145" type="curve"/>
      <point x="445" y="164" type="line"/>
      <point x="448" y="139"/>
      <point x="448" y="103"/>
      <point x="393" y="103" type="curve" smooth="yes"/>
      <point x="352" y="103"/>
      <point x="314" y="126"/>
      <point x="271" y="147" type="curve"/>
      <point x="278" y="181"/>
      <point x="281" y="226"/>
      <point x="267" y="277" type="curve"/>
      <point x="436" y="277" type="line"/>
      <point x="436" y="409" type="line"/>
      <point x="217" y="409" type="line"/>
      <point x="186" y="513"/>
      <point x="209" y="603"/>
      <point x="309" y="603" type="curve" smooth="yes"/>
      <point x="353" y="603"/>
      <point x="386" y="559"/>
      <point x="398" y="546" type="curve"/>
      <point x="491" y="629" type="line"/>
      <point x="463" y="681"/>
      <point x="390" y="728"/>
      <point x="316" y="731" type="curve" smooth="yes"/>
      <point x="90" y="739"/>
      <point x="41" y="569"/>
      <point x="73" y="409" type="curve"/>
      <point x="7" y="409" type="line"/>
      <point x="7" y="277" type="line"/>
      <point x="117" y="277" type="line"/>
      <point x="137" y="235"/>
      <point x="138" y="201"/>
      <point x="133" y="176" type="curve"/>
      <point x="1" y="161"/>
      <point x="-28" y="34"/>
      <point x="-28" y="34" type="curve"/>
      <point x="109" y="-4" type="line"/>
      <point x="109" y="-4"/>
      <point x="108" y="57"/>
      <point x="160" y="57" type="curve" smooth="yes"/>
      <point x="223" y="57"/>
      <point x="261" y="-23"/>
    </contour>
  </outline>
</glyph>
<glyph name="currency" format="2">
  <advance width="743"/>
  <unicode hex="00A4"/>
  <outline>
    <contour>
      <point x="159" y="47" type="line"/>
      <point x="264" y="151" type="line"/>
      <point x="296" y="134"/>
      <point x="333" y="125"/>
      <point x="372" y="125" type="curve" smooth="yes"/>
      <point x="411" y="125"/>
      <point x="448" y="134"/>
      <point x="481" y="151" type="curve"/>
      <point x="585" y="47" type="line"/>
      <point x="687" y="140" type="line"/>
      <point x="579" y="248" type="line"/>
      <point x="596" y="280"/>
      <point x="606" y="317"/>
      <point x="606" y="356" type="curve" smooth="yes"/>
      <point x="606" y="396"/>
      <point x="596" y="433"/>
      <point x="578" y="466" type="curve"/>
      <point x="687" y="575" type="line"/>
      <point x="585" y="668" type="line"/>
      <point x="480" y="562" type="line"/>
      <point x="448" y="578"/>
      <point x="411" y="588"/>
      <point x="372" y="588" type="curve" smooth="yes"/>
      <point x="333" y="588"/>
      <point x="297" y="579"/>
      <point x="265" y="562" type="curve"/>
      <point x="159" y="668" type="line"/>
      <point x="58" y="575" type="line"/>
      <point x="166" y="466" type="line"/>
      <point x="148" y="434"/>
      <point x="138" y="396"/>
      <point x="138" y="356" type="curve" smooth="yes"/>
      <point x="138" y="317"/>
      <point x="148" y="280"/>
      <point x="165" y="248" type="curve"/>
      <point x="58" y="140" type="line"/>
    </contour>
    <contour>
      <point x="372" y="257" type="curve" smooth="yes"/>
      <point x="324" y="257"/>
      <point x="281" y="300"/>
      <point x="281" y="356" type="curve" smooth="yes"/>
      <point x="281" y="413"/>
      <point x="324" y="456"/>
      <point x="372" y="456" type="curve" smooth="yes"/>
      <point x="421" y="456"/>
      <point x="463" y="413"/>
      <point x="463" y="356" type="curve" smooth="yes"/>
      <point x="463" y="300"/>
      <point x="421" y="257"/>
    </contour>
  </outline>
</glyph>
<glyph name="yen" format="2">
  <advance width="600"/>
  <unicode hex="00A5"/>
  <outline>
    <contour>
      <point x="247" y="1" type="line"/>
      <point x="390" y="1" type="line"/>
      <point x="390" y="126" type="line"/>
      <point x="544" y="126" type="line"/>
      <point x="544" y="221" type="line"/>
      <point x="390" y="221" type="line"/>
      <point x="390" y="272" type="line"/>
      <point x="544" y="272" type="line"/>
      <point x="544" y="367" type="line"/>
      <point x="422" y="367" type="line"/>
      <point x="638" y="644" type="line"/>
      <point x="525" y="725" type="line"/>
      <point x="312" y="451" type="line"/>
      <point x="99" y="725" type="line"/>
      <point x="-14" y="644" type="line"/>
      <point x="202" y="367" type="line"/>
      <point x="80" y="367" type="line"/>
      <point x="80" y="272" type="line"/>
      <point x="247" y="272" type="line"/>
      <point x="247" y="221" type="line"/>
      <point x="80" y="221" type="line"/>
      <point x="80" y="126" type="line"/>
      <point x="247" y="126" type="line"/>
    </contour>
  </outline>
</glyph>
<glyph name="brokenbar" format="2">
  <advance width="600.0"/>
  <unicode hex="00A6"/>
  <note>
brokenbar
</note>
  <outline>
    <contour>
      <point x="127.0" y="744.0" type="line"/>
      <point x="127.0" y="377.0" type="line"/>
      <point x="269.0" y="377.0" type="line"/>
      <point x="269.0" y="744.0" type="line"/>
    </contour>
    <contour>
      <point x="127.0" y="305.0" type="line"/>
      <point x="127.0" y="-63.0" type="line"/>
      <point x="269.0" y="-63.0" type="line"/>
      <point x="269.0" y="305.0" type="line"/>
    </contour>
  </outline>
</glyph>
<glyph name="section" format="2">
  <advance width="600.0"/>
  <unicode hex="00A7"/>
  <note>
section
</note>
  <outline>
    <contour>
      <point x="243.0" y="548.0" type="curve"/>
      <point x="242.0" y="550.0" type="line"/>
      <point x="241.0" y="550.0" type="line"/>
      <point x="231.0" y="558.0"/>
      <point x="225.0" y="567.0"/>
      <point x="224.0" y="578.0" type="curve" smooth="yes"/>
      <point x="221.0" y="613.0"/>
      <point x="249.0" y="639.0"/>
      <point x="294.0" y="637.0" type="curve" smooth="yes"/>
      <point x="348.0" y="634.0"/>
      <point x="379.0" y="597.0"/>
      <point x="383.0" y="593.0" type="curve"/>
      <point x="493.0" y="677.0" type="line"/>
      <point x="492.0" y="678.0"/>
      <point x="421.0" y="763.0"/>
      <point x="301.0" y="769.0" type="curve" smooth="yes"/>
      <point x="173.0" y="775.0"/>
      <point x="71.0" y="685.0"/>
      <point x="82.0" y="567.0" type="curve" smooth="yes"/>
      <point x="85.0" y="530.0"/>
      <point x="100.0" y="501.0"/>
      <point x="120.0" y="478.0" type="curve"/>
      <point x="92.0" y="443.0"/>
      <point x="78.0" y="400.0"/>
      <point x="82.0" y="352.0" type="curve" smooth="yes"/>
      <point x="92.0" y="241.0"/>
      <point x="205.0" y="199.0"/>
      <point x="269.0" y="173.0" type="curve" smooth="yes"/>
      <point x="336.0" y="147.0"/>
      <point x="398.0" y="133.0"/>
      <point x="398.0" y="86.0" type="curve" smooth="yes"/>
      <point x="398.0" y="44.0"/>
      <point x="357.0" y="23.0"/>
      <point x="299.0" y="23.0" type="curve" smooth="yes"/>
      <point x="237.0" y="23.0"/>
      <point x="197.0" y="56.0"/>
      <point x="182.0" y="81.0" type="curve"/>
      <point x="61.0" y="10.0" type="line"/>
      <point x="86.0" y="-30.0"/>
      <point x="178.0" y="-109.0"/>
      <point x="299.0" y="-109.0" type="curve" smooth="yes"/>
      <point x="405.0" y="-109.0"/>
      <point x="541.0" y="-55.0"/>
      <point x="541.0" y="86.0" type="curve" smooth="yes"/>
      <point x="541.0" y="131.0"/>
      <point x="526.0" y="166.0"/>
      <point x="505.0" y="193.0" type="curve"/>
      <point x="527.0" y="223.0"/>
      <point x="541.0" y="259.0"/>
      <point x="541.0" y="301.0" type="curve" smooth="yes"/>
      <point x="541.0" y="451.0"/>
      <point x="381.0" y="488.0"/>
      <point x="321.0" y="511.0" type="curve" smooth="yes"/>
      <point x="285.0" y="525.0"/>
      <point x="259.0" y="536.0"/>
    </contour>
    <contour>
      <point x="236.0" y="401.0" type="curve"/>
      <point x="269.0" y="388.0" type="line" smooth="yes"/>
      <point x="336.0" y="362.0"/>
      <point x="398.0" y="348.0"/>
      <point x="398.0" y="301.0" type="curve" smooth="yes"/>
      <point x="398.0" y="288.0"/>
      <point x="396.0" y="278.0"/>
      <point x="391.0" y="271.0" type="curve"/>
      <point x="364.0" y="282.0"/>
      <point x="338.0" y="290.0"/>
      <point x="321.0" y="296.0" type="curve"/>
      <point x="261.0" y="320.0"/>
      <point x="227.0" y="334.0"/>
      <point x="224.0" y="363.0" type="curve"/>
      <point x="223.0" y="378.0"/>
      <point x="227.0" y="392.0"/>
    </contour>
  </outline>
</glyph>
<glyph name="dieresis" format="2">
  <advance width="574.0"/>
  <unicode hex="00A8"/>
  <note>
dieresis
</note>
  <outline>
    <contour>
      <point x="30.0" y="621.0" type="curve" smooth="yes"/>
      <point x="30.0" y="584.0"/>
      <point x="63.0" y="552.0"/>
      <point x="102.0" y="552.0" type="curve" smooth="yes"/>
      <point x="140.0" y="552.0"/>
      <point x="173.0" y="584.0"/>
      <point x="173.0" y="621.0" type="curve" smooth="yes"/>
      <point x="173.0" y="657.0"/>
      <point x="140.0" y="690.0"/>
      <point x="102.0" y="690.0" type="curve" smooth="yes"/>
      <point x="63.0" y="690.0"/>
      <point x="30.0" y="657.0"/>
    </contour>
    <contour>
      <point x="400.0" y="621.0" type="curve" smooth="yes"/>
      <point x="400.0" y="584.0"/>
      <point x="433.0" y="552.0"/>
      <point x="472.0" y="552.0" type="curve" smooth="yes"/>
      <point x="511.0" y="552.0"/>
      <point x="544.0" y="584.0"/>
      <point x="544.0" y="621.0" type="curve" smooth="yes"/>
      <point x="544.0" y="657.0"/>
      <point x="511.0" y="690.0"/>
      <point x="472.0" y="690.0" type="curve" smooth="yes"/>
      <point x="433.0" y="690.0"/>
      <point x="400.0" y="657.0"/>
    </contour>
  </outline>
</glyph>
<glyph name="copyright" format="2">
  <advance width="817"/>
  <unicode hex="00A9"/>
  <anchor x="414.51520000000005" y="154.8696" name="bottom"/>
  <anchor x="402.0808" y="551.6400000000001" name="top"/>
  <outline>
    <contour>
      <point x="408" y="-17" type="curve" smooth="yes"/>
      <point x="612" y="-17"/>
      <point x="780" y="151"/>
      <point x="780" y="350" type="curve" smooth="yes"/>
      <point x="780" y="408"/>
      <point x="764" y="469"/>
      <point x="738" y="519" type="curve" smooth="yes"/>
      <point x="679" y="634"/>
      <point x="551" y="717"/>
      <point x="408" y="717" type="curve" smooth="yes"/>
      <point x="204" y="717"/>
      <point x="37" y="550"/>
      <point x="37" y="350" type="curve" smooth="yes"/>
      <point x="37" y="167"/>
      <point x="206" y="-17"/>
    </contour>
    <contour>
      <point x="408" y="53" type="curve" smooth="yes"/>
      <point x="295" y="53"/>
      <point x="197" y="118"/>
      <point x="146" y="223" type="curve" smooth="yes"/>
      <point x="127" y="261"/>
      <point x="118" y="301"/>
      <point x="118" y="350" type="curve" smooth="yes"/>
      <point x="118" y="517"/>
      <point x="250" y="647"/>
      <point x="408" y="647" type="curve" smooth="yes"/>
      <point x="524" y="647"/>
      <point x="624" y="578"/>
      <point x="674" y="469" type="curve" smooth="yes"/>
      <point x="690" y="434"/>
      <point x="698" y="397"/>
      <point x="698" y="350" type="curve" smooth="yes"/>
      <point x="698" y="183"/>
      <point x="566" y="53"/>
    </contour>
    <component base="C" xScale="0.5652" yScale="0.5652" xOffset="202" yOffset="156"/>
  </outline>
</glyph>
<glyph name="ordfeminine" format="2">
  <advance width="362"/>
  <unicode hex="00AA"/>
  <outline>
    <contour>
      <point x="139" y="450" type="curve" smooth="yes"/>
      <point x="167" y="450"/>
      <point x="196" y="458"/>
      <point x="209" y="471" type="curve"/>
      <point x="209" y="453" type="line"/>
      <point x="296" y="453" type="line"/>
      <point x="296" y="655" type="line" smooth="yes"/>
      <point x="296" y="729"/>
      <point x="239" y="776"/>
      <point x="170" y="776" type="curve" smooth="yes"/>
      <point x="108" y="776"/>
      <point x="69" y="744"/>
      <point x="45" y="711" type="curve"/>
      <point x="105" y="659" type="line"/>
      <point x="123" y="685"/>
      <point x="141" y="701"/>
      <point x="170" y="701" type="curve" smooth="yes"/>
      <point x="194" y="701"/>
      <point x="209" y="682"/>
      <point x="209" y="655" type="curve" smooth="yes"/>
      <point x="209" y="651" type="line"/>
      <point x="201" y="653"/>
      <point x="191" y="654"/>
      <point x="179" y="655" type="curve" smooth="yes"/>
      <point x="103" y="661"/>
      <point x="27" y="640"/>
      <point x="27" y="551" type="curve" smooth="yes"/>
      <point x="27" y="505"/>
      <point x="61" y="450"/>
    </contour>
    <contour>
      <point x="142" y="530" type="curve" smooth="yes"/>
      <point x="118" y="530"/>
      <point x="108" y="543"/>
      <point x="108" y="556" type="curve" smooth="yes"/>
      <point x="108" y="583"/>
      <point x="131" y="591"/>
      <point x="170" y="591" type="curve" smooth="yes"/>
      <point x="183" y="591"/>
      <point x="200" y="590"/>
      <point x="209" y="588" type="curve"/>
      <point x="209" y="551"/>
      <point x="182" y="530"/>
    </contour>
  </outline>
</glyph>
<glyph name="guillemotleft" format="2">
  <advance width="761"/>
  <unicode hex="00AB"/>
  <outline>
    <contour>
      <point x="532" y="37" type="line"/>
      <point x="636" y="124" type="line"/>
      <point x="500" y="273" type="line"/>
      <point x="636" y="422" type="line"/>
      <point x="532" y="510" type="line"/>
      <point x="293" y="273" type="line"/>
    </contour>
    <contour>
      <point x="269" y="37" type="line"/>
      <point x="373" y="124" type="line"/>
      <point x="237" y="273" type="line"/>
      <point x="373" y="422" type="line"/>
      <point x="269" y="510" type="line"/>
      <point x="30" y="273" type="line"/>
    </contour>
  </outline>
</glyph>
<glyph name="logicalnot" format="2">
  <advance width="744.0"/>
  <unicode hex="00AC"/>
  <note>
logicalnot
</note>
  <outline>
    <contour>
      <point x="561.0" y="135.0" type="line"/>
      <point x="704.0" y="135.0" type="line"/>
      <point x="704.0" y="465.0" type="line"/>
      <point x="43.0" y="465.0" type="line"/>
      <point x="43.0" y="333.0" type="line"/>
      <point x="561.0" y="333.0" type="line"/>
    </contour>
  </outline>
</glyph>
<glyph name="softhyphen" format="2">
  <advance width="600.0"/>
  <unicode hex="00AD"/>
  <note>
softhyphen
</note>
  <outline>
    <contour>
      <point x="432.0" y="220.0" type="line"/>
      <point x="432.0" y="350.0" type="line"/>
      <point x="68.0" y="350.0" type="line"/>
      <point x="68.0" y="220.0" type="line"/>
    </contour>
  </outline>
</glyph>
<glyph name="registered" format="2">
  <advance width="819"/>
  <unicode hex="00AE"/>
  <anchor x="427.13828" y="155.0" name="bottom"/>
  <anchor x="427.13828" y="550.6679999999999" name="top"/>
  <outline>
    <contour>
      <point x="409" y="-17" type="curve" smooth="yes"/>
      <point x="613" y="-17"/>
      <point x="781" y="151"/>
      <point x="781" y="350" type="curve" smooth="yes"/>
      <point x="781" y="408"/>
      <point x="765" y="469"/>
      <point x="739" y="519" type="curve" smooth="yes"/>
      <point x="680" y="634"/>
      <point x="552" y="717"/>
      <point x="409" y="717" type="curve" smooth="yes"/>
      <point x="205" y="717"/>
      <point x="38" y="550"/>
      <point x="38" y="350" type="curve" smooth="yes"/>
      <point x="38" y="167"/>
      <point x="207" y="-17"/>
    </contour>
    <contour>
      <point x="409" y="53" type="curve" smooth="yes"/>
      <point x="296" y="53"/>
      <point x="198" y="118"/>
      <point x="147" y="223" type="curve" smooth="yes"/>
      <point x="128" y="261"/>
      <point x="119" y="301"/>
      <point x="119" y="350" type="curve" smooth="yes"/>
      <point x="119" y="517"/>
      <point x="251" y="647"/>
      <point x="409" y="647" type="curve" smooth="yes"/>
      <point x="525" y="647"/>
      <point x="625" y="578"/>
      <point x="675" y="469" type="curve" smooth="yes"/>
      <point x="691" y="434"/>
      <point x="699" y="397"/>
      <point x="699" y="350" type="curve" smooth="yes"/>
      <point x="699" y="183"/>
      <point x="567" y="53"/>
    </contour>
    <component base="R" xScale="0.56524" yScale="0.56524" xOffset="231" yOffset="155"/>
  </outline>
</glyph>
<glyph name="macron" format="2">
  <advance width="600.0"/>
  <unicode hex="00AF"/>
  <note>
macron
</note>
  <outline>
    <contour>
      <point x="511.0" y="607.0" type="line"/>
      <point x="91.0" y="607.0" type="line"/>
      <point x="91.0" y="514.0" type="line"/>
      <point x="511.0" y="514.0" type="line"/>
    </contour>
  </outline>
</glyph>
<glyph name="degree" format="2">
  <advance width="600.0"/>
  <unicode hex="00B0"/>
  <note>
degree
</note>
  <outline>
    <contour>
      <point x="304.0" y="465.0" type="curve" smooth="yes"/>
      <point x="405.0" y="465.0"/>
      <point x="485.0" y="545.0"/>
      <point x="485.0" y="641.0" type="curve" smooth="yes"/>
      <point x="485.0" y="736.0"/>
      <point x="405.0" y="816.0"/>
      <point x="304.0" y="816.0" type="curve" smooth="yes"/>
      <point x="203.0" y="816.0"/>
      <point x="123.0" y="736.0"/>
      <point x="123.0" y="641.0" type="curve" smooth="yes"/>
      <point x="123.0" y="545.0"/>
      <point x="203.0" y="465.0"/>
    </contour>
    <contour>
      <point x="304.0" y="579.0" type="curve" smooth="yes"/>
      <point x="275.0" y="579.0"/>
      <point x="250.0" y="604.0"/>
      <point x="250.0" y="641.0" type="curve" smooth="yes"/>
      <point x="250.0" y="677.0"/>
      <point x="275.0" y="702.0"/>
      <point x="304.0" y="702.0" type="curve" smooth="yes"/>
      <point x="333.0" y="702.0"/>
      <point x="358.0" y="677.0"/>
      <point x="358.0" y="641.0" type="curve" smooth="yes"/>
      <point x="358.0" y="604.0"/>
      <point x="333.0" y="579.0"/>
    </contour>
  </outline>
</glyph>
<glyph name="plusminus" format="2">
  <advance width="600"/>
  <unicode hex="00B1"/>
  <outline>
    <contour>
      <point x="230" y="136" type="line"/>
      <point x="373" y="136" type="line"/>
      <point x="373" y="289" type="line"/>
      <point x="583" y="289" type="line"/>
      <point x="583" y="422" type="line"/>
      <point x="373" y="422" type="line"/>
      <point x="373" y="574" type="line"/>
      <point x="230" y="574" type="line"/>
      <point x="230" y="422" type="line"/>
      <point x="20" y="422" type="line"/>
      <point x="20" y="289" type="line"/>
      <point x="230" y="289" type="line"/>
    </contour>
    <contour>
      <point x="20" y="-37" type="line"/>
      <point x="583" y="-37" type="line"/>
      <point x="583" y="95" type="line"/>
      <point x="20" y="95" type="line"/>
    </contour>
  </outline>
</glyph>
<glyph name="twosuperior" format="2">
  <advance width="360.0"/>
  <unicode hex="00B2"/>
  <note>
twosuperior
</note>
  <outline>
    <contour>
      <point x="37.0" y="579.0" type="curve"/>
      <point x="37.0" y="484.0" type="line"/>
      <point x="340.0" y="484.0" type="line"/>
      <point x="340.0" y="605.0" type="line"/>
      <point x="215.0" y="605.0" type="line"/>
      <point x="241.0" y="638.0"/>
      <point x="285.0" y="683.0"/>
      <point x="299.0" y="703.0" type="curve" smooth="yes"/>
      <point x="372.0" y="804.0"/>
      <point x="297.0" y="923.0"/>
      <point x="181.0" y="923.0" type="curve" smooth="yes"/>
      <point x="100.0" y="923.0"/>
      <point x="35.0" y="859.0"/>
      <point x="35.0" y="788.0" type="curve"/>
      <point x="148.0" y="757.0" type="line"/>
      <point x="148.0" y="781.0"/>
      <point x="161.0" y="800.0"/>
      <point x="178.0" y="800.0" type="curve" smooth="yes"/>
      <point x="196.0" y="800.0"/>
      <point x="207.0" y="787.0"/>
      <point x="192.0" y="767.0" type="curve" smooth="yes"/>
      <point x="162.0" y="724.0"/>
      <point x="65.0" y="618.0"/>
    </contour>
  </outline>
</glyph>
<glyph name="acute" format="2">
  <advance width="600.0"/>
  <unicode hex="00B4"/>
  <note>
acute
</note>
  <outline>
    <contour>
      <point x="163.0" y="530.0" type="line"/>
      <point x="368.0" y="610.0" type="line"/>
      <point x="334.0" y="724.0" type="line"/>
      <point x="137.0" y="615.0" type="line"/>
    </contour>
  </outline>
</glyph>
<glyph name="paragraph" format="2">
  <advance width="670"/>
  <unicode hex="00B6"/>
  <outline>
    <contour>
      <point x="275" y="-171" type="line"/>
      <point x="418" y="-171" type="line"/>
      <point x="418" y="651" type="line"/>
      <point x="473" y="651" type="line"/>
      <point x="473" y="-171" type="line"/>
      <point x="615" y="-171" type="line"/>
      <point x="615" y="783" type="line"/>
      <point x="236" y="783" type="line" smooth="yes"/>
      <point x="181" y="783"/>
      <point x="125" y="758"/>
      <point x="90" y="724" type="curve" smooth="yes"/>
      <point x="55" y="688"/>
      <point x="30" y="634"/>
      <point x="30" y="581" type="curve" smooth="yes"/>
      <point x="30" y="470"/>
      <point x="122" y="379"/>
      <point x="236" y="379" type="curve" smooth="yes"/>
      <point x="275" y="379" type="line"/>
    </contour>
    <contour>
      <point x="236" y="511" type="line" smooth="yes"/>
      <point x="203" y="511"/>
      <point x="173" y="541"/>
      <point x="173" y="581" type="curve" smooth="yes"/>
      <point x="173" y="603"/>
      <point x="181" y="620"/>
      <point x="191" y="630" type="curve" smooth="yes"/>
      <point x="207" y="646"/>
      <point x="219" y="651"/>
      <point x="236" y="651" type="curve" smooth="yes"/>
      <point x="275" y="651" type="line"/>
      <point x="275" y="511" type="line"/>
    </contour>
  </outline>
</glyph>
<glyph name="periodcentered" format="2">
  <advance width="600.0"/>
  <unicode hex="00B7"/>
  <note>
periodcentered
</note>
  <outline>
    <contour>
      <point x="187.0" y="209.0" type="curve" smooth="yes"/>
      <point x="240.0" y="209.0"/>
      <point x="283.0" y="251.0"/>
      <point x="283.0" y="302.0" type="curve" smooth="yes"/>
      <point x="283.0" y="354.0"/>
      <point x="240.0" y="396.0"/>
      <point x="187.0" y="396.0" type="curve" smooth="yes"/>
      <point x="133.0" y="396.0"/>
      <point x="90.0" y="354.0"/>
      <point x="90.0" y="302.0" type="curve" smooth="yes"/>
      <point x="90.0" y="251.0"/>
      <point x="133.0" y="209.0"/>
    </contour>
  </outline>
</glyph>
<glyph name="cedilla" format="2">
  <advance width="600.0"/>
  <unicode hex="00B8"/>
  <note>
cedilla
</note>
  <outline>
    <contour>
      <point x="279.0" y="-183.0" type="line"/>
      <point x="378.0" y="-38.0" type="line"/>
      <point x="288.0" y="22.0" type="line"/>
      <point x="189.0" y="-122.0" type="line"/>
    </contour>
  </outline>
</glyph>
<glyph name="onesuperior" format="2">
  <advance width="359.0"/>
  <unicode hex="00B9"/>
  <note>
onesuperior
</note>
  <outline>
    <contour>
      <point x="278.0" y="487.0" type="line"/>
      <point x="278.0" y="918.0" type="line"/>
      <point x="170.0" y="918.0" type="line"/>
      <point x="53.0" y="851.0" type="line"/>
      <point x="53.0" y="678.0" type="line"/>
      <point x="135.0" y="739.0" type="line"/>
      <point x="135.0" y="487.0" type="line"/>
    </contour>
  </outline>
</glyph>
<glyph name="ordmasculine" format="2">
  <advance width="402.0"/>
  <unicode hex="00BA"/>
  <note>
ordmasculine
</note>
  <outline>
    <contour>
      <point x="365.0" y="610.0" type="curve" smooth="yes"/>
      <point x="365.0" y="700.0"/>
      <point x="292.0" y="774.0"/>
      <point x="200.0" y="774.0" type="curve" smooth="yes"/>
      <point x="110.0" y="774.0"/>
      <point x="35.0" y="701.0"/>
      <point x="35.0" y="610.0" type="curve" smooth="yes"/>
      <point x="35.0" y="520.0"/>
      <point x="109.0" y="446.0"/>
      <point x="200.0" y="446.0" type="curve" smooth="yes"/>
      <point x="292.0" y="446.0"/>
      <point x="365.0" y="521.0"/>
    </contour>
    <contour>
      <point x="278.0" y="610.0" type="curve" smooth="yes"/>
      <point x="278.0" y="564.0"/>
      <point x="242.0" y="527.0"/>
      <point x="200.0" y="527.0" type="curve" smooth="yes"/>
      <point x="159.0" y="527.0"/>
      <point x="123.0" y="563.0"/>
      <point x="123.0" y="610.0" type="curve" smooth="yes"/>
      <point x="123.0" y="657.0"/>
      <point x="159.0" y="693.0"/>
      <point x="200.0" y="693.0" type="curve" smooth="yes"/>
      <point x="242.0" y="693.0"/>
      <point x="278.0" y="657.0"/>
    </contour>
  </outline>
</glyph>
<glyph name="guillemotright" format="2">
  <advance width="761.0"/>
  <unicode hex="00BB"/>
  <note>
guillemotright
</note>
  <outline>
    <contour>
      <point x="261.0" y="273.0" type="line"/>
      <point x="125.0" y="422.0" type="line"/>
      <point x="230.0" y="510.0" type="line"/>
      <point x="468.0" y="273.0" type="line"/>
      <point x="230.0" y="37.0" type="line"/>
      <point x="125.0" y="124.0" type="line"/>
    </contour>
    <contour>
      <point x="524.0" y="273.0" type="line"/>
      <point x="388.0" y="422.0" type="line"/>
      <point x="492.0" y="510.0" type="line"/>
      <point x="731.0" y="273.0" type="line"/>
      <point x="492.0" y="37.0" type="line"/>
      <point x="388.0" y="124.0" type="line"/>
    </contour>
  </outline>
</glyph>
<glyph name="onequarter" format="2">
  <advance width="789.0"/>
  <unicode hex="00BC"/>
  <note>
onequarter
</note>
  <outline>
    <contour>
      <point x="278.0" y="487.0" type="line"/>
      <point x="278.0" y="918.0" type="line"/>
      <point x="170.0" y="918.0" type="line"/>
      <point x="53.0" y="851.0" type="line"/>
      <point x="53.0" y="678.0" type="line"/>
      <point x="135.0" y="739.0" type="line"/>
      <point x="135.0" y="487.0" type="line"/>
    </contour>
    <contour>
      <point x="71.0" y="52.0" type="line"/>
      <point x="189.0" y="-23.0" type="line"/>
      <point x="744.0" y="808.0" type="line"/>
      <point x="626.0" y="883.0" type="line"/>
    </contour>
    <contour>
      <point x="563.0" y="60.0" type="line"/>
      <point x="563.0" y="-17.0" type="line"/>
      <point x="688.0" y="-17.0" type="line"/>
      <point x="688.0" y="60.0" type="line"/>
      <point x="731.0" y="60.0" type="line"/>
      <point x="731.0" y="157.0" type="line"/>
      <point x="688.0" y="157.0" type="line"/>
      <point x="688.0" y="414.0" type="line"/>
      <point x="580.0" y="414.0" type="line"/>
      <point x="414.0" y="157.0" type="line"/>
      <point x="414.0" y="60.0" type="line"/>
    </contour>
    <contour>
      <point x="568.0" y="233.0" type="line"/>
      <point x="568.0" y="156.0" type="line"/>
      <point x="519.0" y="156.0" type="line"/>
    </contour>
  </outline>
</glyph>
<glyph name="onehalf" format="2">
  <advance width="847.0"/>
  <unicode hex="00BD"/>
  <note>
onehalf
</note>
  <outline>
    <contour>
      <point x="278.0" y="487.0" type="line"/>
      <point x="278.0" y="918.0" type="line"/>
      <point x="170.0" y="918.0" type="line"/>
      <point x="53.0" y="851.0" type="line"/>
      <point x="53.0" y="678.0" type="line"/>
      <point x="135.0" y="739.0" type="line"/>
      <point x="135.0" y="487.0" type="line"/>
    </contour>
    <contour>
      <point x="67.0" y="52.0" type="line"/>
      <point x="185.0" y="-23.0" type="line"/>
      <point x="740.0" y="808.0" type="line"/>
      <point x="622.0" y="883.0" type="line"/>
    </contour>
    <contour>
      <point x="494.0" y="79.0" type="curve"/>
      <point x="494.0" y="-16.0" type="line"/>
      <point x="797.0" y="-16.0" type="line"/>
      <point x="797.0" y="105.0" type="line"/>
      <point x="673.0" y="105.0" type="line"/>
      <point x="698.0" y="138.0"/>
      <point x="742.0" y="183.0"/>
      <point x="757.0" y="203.0" type="curve" smooth="yes"/>
      <point x="830.0" y="304.0"/>
      <point x="754.0" y="422.0"/>
      <point x="638.0" y="422.0" type="curve" smooth="yes"/>
      <point x="557.0" y="422.0"/>
      <point x="492.0" y="359.0"/>
      <point x="492.0" y="288.0" type="curve"/>
      <point x="605.0" y="257.0" type="line"/>
      <point x="605.0" y="281.0"/>
      <point x="619.0" y="299.0"/>
      <point x="636.0" y="299.0" type="curve" smooth="yes"/>
      <point x="654.0" y="299.0"/>
      <point x="664.0" y="287.0"/>
      <point x="649.0" y="266.0" type="curve" smooth="yes"/>
      <point x="619.0" y="224.0"/>
      <point x="522.0" y="118.0"/>
    </contour>
  </outline>
</glyph>
<glyph name="threequarters" format="2">
  <advance width="789.0"/>
  <unicode hex="00BE"/>
  <note>
threequarters
</note>
  <outline>
    <contour>
      <point x="22.0" y="795.0" type="curve"/>
      <point x="118.0" y="769.0" type="line"/>
      <point x="122.0" y="797.0"/>
      <point x="136.0" y="808.0"/>
      <point x="157.0" y="808.0" type="curve" smooth="yes"/>
      <point x="184.0" y="808.0"/>
      <point x="187.0" y="789.0"/>
      <point x="187.0" y="781.0" type="curve" smooth="yes"/>
      <point x="187.0" y="760.0"/>
      <point x="169.0" y="756.0"/>
      <point x="155.0" y="752.0" type="curve"/>
      <point x="121.0" y="748.0" type="line"/>
      <point x="121.0" y="670.0" type="line"/>
      <point x="134.0" y="670.0"/>
      <point x="147.0" y="669.0"/>
      <point x="159.0" y="667.0" type="curve" smooth="yes"/>
      <point x="182.0" y="663.0"/>
      <point x="206.0" y="652.0"/>
      <point x="206.0" y="629.0" type="curve" smooth="yes"/>
      <point x="206.0" y="610.0"/>
      <point x="196.0" y="594.0"/>
      <point x="165.0" y="594.0" type="curve" smooth="yes"/>
      <point x="146.0" y="594.0"/>
      <point x="121.0" y="602.0"/>
      <point x="108.0" y="634.0" type="curve"/>
      <point x="9.0" y="588.0" type="line"/>
      <point x="15.0" y="536.0"/>
      <point x="79.0" y="477.0"/>
      <point x="161.0" y="477.0" type="curve" smooth="yes"/>
      <point x="256.0" y="477.0"/>
      <point x="320.0" y="549.0"/>
      <point x="320.0" y="629.0" type="curve" smooth="yes"/>
      <point x="320.0" y="675.0"/>
      <point x="297.0" y="706.0"/>
      <point x="271.0" y="722.0" type="curve"/>
      <point x="282.0" y="728.0"/>
      <point x="301.0" y="750.0"/>
      <point x="301.0" y="782.0" type="curve" smooth="yes"/>
      <point x="301.0" y="855.0"/>
      <point x="239.0" y="916.0"/>
      <point x="161.0" y="916.0" type="curve" smooth="yes"/>
      <point x="91.0" y="916.0"/>
      <point x="37.0" y="867.0"/>
    </contour>
    <contour>
      <point x="54.0" y="52.0" type="line"/>
      <point x="172.0" y="-23.0" type="line"/>
      <point x="727.0" y="808.0" type="line"/>
      <point x="609.0" y="883.0" type="line"/>
    </contour>
    <contour>
      <point x="563.0" y="60.0" type="line"/>
      <point x="563.0" y="-17.0" type="line"/>
      <point x="688.0" y="-17.0" type="line"/>
      <point x="688.0" y="60.0" type="line"/>
      <point x="731.0" y="60.0" type="line"/>
      <point x="731.0" y="157.0" type="line"/>
      <point x="688.0" y="157.0" type="line"/>
      <point x="688.0" y="414.0" type="line"/>
      <point x="580.0" y="414.0" type="line"/>
      <point x="414.0" y="157.0" type="line"/>
      <point x="414.0" y="60.0" type="line"/>
    </contour>
    <contour>
      <point x="568.0" y="233.0" type="line"/>
      <point x="568.0" y="156.0" type="line"/>
      <point x="519.0" y="156.0" type="line"/>
    </contour>
  </outline>
</glyph>
<glyph name="Adieresis" format="2">
  <advance width="703.0"/>
  <unicode hex="00C4"/>
  <note>
Adieresis
</note>
  <outline>
    <contour>
      <point x="109.0" y="801.0" type="curve" smooth="yes"/>
      <point x="109.0" y="765.0"/>
      <point x="141.0" y="732.0"/>
      <point x="180.0" y="732.0" type="curve" smooth="yes"/>
      <point x="219.0" y="732.0"/>
      <point x="252.0" y="765.0"/>
      <point x="252.0" y="801.0" type="curve" smooth="yes"/>
      <point x="252.0" y="838.0"/>
      <point x="219.0" y="870.0"/>
      <point x="180.0" y="870.0" type="curve" smooth="yes"/>
      <point x="141.0" y="870.0"/>
      <point x="109.0" y="838.0"/>
    </contour>
    <contour>
      <point x="479.0" y="801.0" type="curve" smooth="yes"/>
      <point x="479.0" y="765.0"/>
      <point x="512.0" y="732.0"/>
      <point x="551.0" y="732.0" type="curve" smooth="yes"/>
      <point x="590.0" y="732.0"/>
      <point x="622.0" y="765.0"/>
      <point x="622.0" y="801.0" type="curve" smooth="yes"/>
      <point x="622.0" y="838.0"/>
      <point x="590.0" y="870.0"/>
      <point x="551.0" y="870.0" type="curve" smooth="yes"/>
      <point x="512.0" y="870.0"/>
      <point x="479.0" y="838.0"/>
    </contour>
    <contour>
      <point x="291.0" y="700.0" type="line"/>
      <point x="17.0" y="0.0" type="line"/>
      <point x="169.0" y="0.0" type="line"/>
      <point x="247.0" y="199.0" type="line"/>
      <point x="464.0" y="199.0" type="line"/>
      <point x="542.0" y="0.0" type="line"/>
      <point x="694.0" y="0.0" type="line"/>
      <point x="420.0" y="700.0" type="line"/>
    </contour>
    <contour>
      <point x="356.0" y="477.0" type="line"/>
      <point x="413.0" y="331.0" type="line"/>
      <point x="299.0" y="331.0" type="line"/>
    </contour>
  </outline>
</glyph>
<glyph name="AE" format="2">
  <advance width="1102.0"/>
  <unicode hex="00C6"/>
  <note>
AE
</note>
  <outline>
    <contour>
      <point x="347.0" y="200.0" type="line"/>
      <point x="558.0" y="200.0" type="line"/>
      <point x="558.0" y="0.0" type="line"/>
      <point x="1043.0" y="0.0" type="line"/>
      <point x="1043.0" y="132.0" type="line"/>
      <point x="701.0" y="132.0" type="line"/>
      <point x="701.0" y="287.0" type="line"/>
      <point x="976.0" y="287.0" type="line"/>
      <point x="976.0" y="419.0" type="line"/>
      <point x="701.0" y="419.0" type="line"/>
      <point x="701.0" y="568.0" type="line"/>
      <point x="1043.0" y="568.0" type="line"/>
      <point x="1043.0" y="700.0" type="line"/>
      <point x="571.0" y="700.0" type="line"/>
      <point x="13.0" y="1.0" type="line"/>
      <point x="192.0" y="1.0" type="line"/>
    </contour>
    <contour>
      <point x="558.0" y="473.0" type="line"/>
      <point x="558.0" y="332.0" type="line"/>
      <point x="450.0" y="332.0" type="line"/>
    </contour>
  </outline>
</glyph>
<glyph name="Eacute" format="2">
  <advance width="600.0"/>
  <unicode hex="00C9"/>
  <note>
Eacute
</note>
  <outline>
    <contour>
      <point x="233.0" y="730.0" type="line"/>
      <point x="438.0" y="810.0" type="line"/>
      <point x="404.0" y="924.0" type="line"/>
      <point x="207.0" y="815.0" type="line"/>
    </contour>
    <contour>
      <point x="554.0" y="700.0" type="line"/>
      <point x="70.0" y="700.0" type="line"/>
      <point x="70.0" y="0.0" type="line"/>
      <point x="555.0" y="0.0" type="line"/>
      <point x="555.0" y="132.0" type="line"/>
      <point x="213.0" y="132.0" type="line"/>
      <point x="213.0" y="287.0" type="line"/>
      <point x="488.0" y="287.0" type="line"/>
      <point x="488.0" y="419.0" type="line"/>
      <point x="213.0" y="419.0" type="line"/>
      <point x="213.0" y="568.0" type="line"/>
      <point x="554.0" y="568.0" type="line"/>
    </contour>
  </outline>
</glyph>
<glyph name="Edieresis" format="2">
  <advance width="600.0"/>
  <unicode hex="00CB"/>
  <note>
Edieresis
</note>
  <outline>
    <contour>
      <point x="68.0" y="801.0" type="curve" smooth="yes"/>
      <point x="68.0" y="765.0"/>
      <point x="100.0" y="732.0"/>
      <point x="139.0" y="732.0" type="curve" smooth="yes"/>
      <point x="178.0" y="732.0"/>
      <point x="211.0" y="765.0"/>
      <point x="211.0" y="801.0" type="curve" smooth="yes"/>
      <point x="211.0" y="838.0"/>
      <point x="178.0" y="870.0"/>
      <point x="139.0" y="870.0" type="curve" smooth="yes"/>
      <point x="100.0" y="870.0"/>
      <point x="68.0" y="838.0"/>
    </contour>
    <contour>
      <point x="438.0" y="801.0" type="curve" smooth="yes"/>
      <point x="438.0" y="765.0"/>
      <point x="471.0" y="732.0"/>
      <point x="510.0" y="732.0" type="curve" smooth="yes"/>
      <point x="549.0" y="732.0"/>
      <point x="581.0" y="765.0"/>
      <point x="581.0" y="801.0" type="curve" smooth="yes"/>
      <point x="581.0" y="838.0"/>
      <point x="549.0" y="870.0"/>
      <point x="510.0" y="870.0" type="curve" smooth="yes"/>
      <point x="471.0" y="870.0"/>
      <point x="438.0" y="838.0"/>
    </contour>
    <contour>
      <point x="554.0" y="700.0" type="line"/>
      <point x="70.0" y="700.0" type="line"/>
      <point x="70.0" y="0.0" type="line"/>
      <point x="555.0" y="0.0" type="line"/>
      <point x="555.0" y="132.0" type="line"/>
      <point x="213.0" y="132.0" type="line"/>
      <point x="213.0" y="287.0" type="line"/>
      <point x="488.0" y="287.0" type="line"/>
      <point x="488.0" y="419.0" type="line"/>
      <point x="213.0" y="419.0" type="line"/>
      <point x="213.0" y="568.0" type="line"/>
      <point x="554.0" y="568.0" type="line"/>
    </contour>
  </outline>
</glyph>
<glyph name="Icircumflex" format="2">
  <advance width="301.0"/>
  <unicode hex="00CE"/>
  <note>
Icircumflex
</note>
  <outline>
    <contour>
      <point x="-1.0" y="745.0" type="line"/>
      <point x="150.0" y="804.0" type="line"/>
      <point x="301.0" y="745.0" type="line"/>
      <point x="327.0" y="831.0" type="line"/>
      <point x="150.0" y="930.0" type="line"/>
      <point x="-27.0" y="831.0" type="line"/>
    </contour>
    <contour>
      <point x="222.0" y="700.0" type="line"/>
      <point x="79.0" y="700.0" type="line"/>
      <point x="79.0" y="0.0" type="line"/>
      <point x="222.0" y="0.0" type="line"/>
    </contour>
  </outline>
</glyph>
<glyph name="Idieresis" format="2">
  <advance width="301.0"/>
  <unicode hex="00CF"/>
  <note>
Idieresis
</note>
  <outline>
    <contour>
      <point x="-97.0" y="801.0" type="curve" smooth="yes"/>
      <point x="-97.0" y="765.0"/>
      <point x="-64.0" y="732.0"/>
      <point x="-25.0" y="732.0" type="curve" smooth="yes"/>
      <point x="14.0" y="732.0"/>
      <point x="46.0" y="765.0"/>
      <point x="46.0" y="801.0" type="curve" smooth="yes"/>
      <point x="46.0" y="838.0"/>
      <point x="14.0" y="870.0"/>
      <point x="-25.0" y="870.0" type="curve" smooth="yes"/>
      <point x="-64.0" y="870.0"/>
      <point x="-97.0" y="838.0"/>
    </contour>
    <contour>
      <point x="274.0" y="801.0" type="curve" smooth="yes"/>
      <point x="274.0" y="765.0"/>
      <point x="306.0" y="732.0"/>
      <point x="345.0" y="732.0" type="curve" smooth="yes"/>
      <point x="384.0" y="732.0"/>
      <point x="417.0" y="765.0"/>
      <point x="417.0" y="801.0" type="curve" smooth="yes"/>
      <point x="417.0" y="838.0"/>
      <point x="384.0" y="870.0"/>
      <point x="345.0" y="870.0" type="curve" smooth="yes"/>
      <point x="306.0" y="870.0"/>
      <point x="274.0" y="838.0"/>
    </contour>
    <contour>
      <point x="222.0" y="700.0" type="line"/>
      <point x="79.0" y="700.0" type="line"/>
      <point x="79.0" y="0.0" type="line"/>
      <point x="222.0" y="0.0" type="line"/>
    </contour>
  </outline>
</glyph>
<glyph name="Eth" format="2">
  <advance width="721.0"/>
  <unicode hex="00D0"/>
  <note>
Eth
</note>
  <outline>
    <contour>
      <point x="322.0" y="700.0" type="curve" smooth="yes"/>
      <point x="159.0" y="700.0" type="line"/>
      <point x="159.0" y="390.0" type="line"/>
      <point x="61.0" y="390.0" type="line"/>
      <point x="61.0" y="260.0" type="line"/>
      <point x="159.0" y="260.0" type="line"/>
      <point x="159.0" y="0.0" type="line"/>
      <point x="327.0" y="0.0" type="line" smooth="yes"/>
      <point x="564.0" y="0.0"/>
      <point x="680.0" y="153.0"/>
      <point x="680.0" y="350.0" type="curve" smooth="yes"/>
      <point x="680.0" y="548.0"/>
      <point x="571.0" y="700.0"/>
    </contour>
    <contour>
      <point x="327.0" y="132.0" type="curve" smooth="yes"/>
      <point x="302.0" y="132.0" type="line"/>
      <point x="302.0" y="260.0" type="line"/>
      <point x="425.0" y="260.0" type="line"/>
      <point x="425.0" y="390.0" type="line"/>
      <point x="302.0" y="390.0" type="line"/>
      <point x="302.0" y="568.0" type="line"/>
      <point x="322.0" y="568.0" type="line" smooth="yes"/>
      <point x="478.0" y="568.0"/>
      <point x="537.0" y="490.0"/>
      <point x="537.0" y="350.0" type="curve" smooth="yes"/>
      <point x="537.0" y="213.0"/>
      <point x="473.0" y="132.0"/>
    </contour>
  </outline>
</glyph>
<glyph name="multiply" format="2">
  <advance width="651.0"/>
  <unicode hex="00D7"/>
  <note>
multiply
</note>
  <outline>
    <contour>
      <point x="640.0" y="47.0" type="line"/>
      <point x="113.0" y="575.0" type="line"/>
      <point x="11.0" y="482.0" type="line"/>
      <point x="539.0" y="-46.0" type="line"/>
    </contour>
  </outline>
</glyph>
<glyph name="Oslash" format="2">
  <advance width="798"/>
  <unicode hex="00D8"/>
  <anchor x="396" y="700" name="top"/>
  <outline>
    <contour>
      <point x="399" y="0" type="curve" smooth="yes"/>
      <point x="569" y="0"/>
      <point x="753" y="130"/>
      <point x="753" y="351" type="curve" smooth="yes"/>
      <point x="753" y="545"/>
      <point x="595" y="702"/>
      <point x="399" y="702" type="curve" smooth="yes"/>
      <point x="199" y="702"/>
      <point x="45" y="542"/>
      <point x="45" y="351" type="curve" smooth="yes"/>
      <point x="45" y="158"/>
      <point x="203" y="0"/>
    </contour>
    <contour>
      <point x="320" y="-78" type="line"/>
      <point x="568" y="750" type="line"/>
      <point x="457" y="786" type="line"/>
      <point x="208" y="-44" type="line"/>
    </contour>
    <contour>
      <point x="399" y="132" type="curve" smooth="yes"/>
      <point x="284" y="132"/>
      <point x="188" y="229"/>
      <point x="188" y="351" type="curve" smooth="yes"/>
      <point x="188" y="472"/>
      <point x="283" y="570"/>
      <point x="399" y="570" type="curve" smooth="yes"/>
      <point x="513" y="570"/>
      <point x="610" y="474"/>
      <point x="610" y="351" type="curve" smooth="yes"/>
      <point x="610" y="214"/>
      <point x="501" y="132"/>
    </contour>
  </outline>
</glyph>
<glyph name="Udieresis" format="2">
  <advance width="671.0"/>
  <unicode hex="00DC"/>
  <note>
Udieresis
</note>
  <outline>
    <contour>
      <point x="94.0" y="801.0" type="curve" smooth="yes"/>
      <point x="94.0" y="765.0"/>
      <point x="127.0" y="732.0"/>
      <point x="165.0" y="732.0" type="curve" smooth="yes"/>
      <point x="204.0" y="732.0"/>
      <point x="237.0" y="765.0"/>
      <point x="237.0" y="801.0" type="curve" smooth="yes"/>
      <point x="237.0" y="838.0"/>
      <point x="204.0" y="870.0"/>
      <point x="165.0" y="870.0" type="curve" smooth="yes"/>
      <point x="127.0" y="870.0"/>
      <point x="94.0" y="838.0"/>
    </contour>
    <contour>
      <point x="464.0" y="801.0" type="curve" smooth="yes"/>
      <point x="464.0" y="765.0"/>
      <point x="497.0" y="732.0"/>
      <point x="536.0" y="732.0" type="curve" smooth="yes"/>
      <point x="575.0" y="732.0"/>
      <point x="607.0" y="765.0"/>
      <point x="607.0" y="801.0" type="curve" smooth="yes"/>
      <point x="607.0" y="838.0"/>
      <point x="575.0" y="870.0"/>
      <point x="536.0" y="870.0" type="curve" smooth="yes"/>
      <point x="497.0" y="870.0"/>
      <point x="464.0" y="838.0"/>
    </contour>
    <contour>
      <point x="210.0" y="274.0" type="curve" smooth="yes"/>
      <point x="210.0" y="699.0" type="line"/>
      <point x="67.0" y="699.0" type="line"/>
      <point x="67.0" y="278.0" type="line"/>
      <point x="67.0" y="279.0"/>
      <point x="56.0" y="1.0"/>
      <point x="333.0" y="-9.0" type="curve"/>
      <point x="353.0" y="-9.0" type="line"/>
      <point x="629.0" y="1.0"/>
      <point x="619.0" y="279.0"/>
      <point x="619.0" y="279.0" type="curve"/>
      <point x="619.0" y="699.0" type="line"/>
      <point x="476.0" y="699.0" type="line"/>
      <point x="476.0" y="260.0" type="line"/>
      <point x="472.0" y="219.0"/>
      <point x="455.0" y="128.0"/>
      <point x="350.0" y="123.0" type="curve"/>
      <point x="336.0" y="123.0" type="line"/>
      <point x="215.0" y="129.0"/>
      <point x="210.0" y="249.0"/>
    </contour>
  </outline>
</glyph>
<glyph name="Thorn" format="2">
  <advance width="600"/>
  <unicode hex="00DE"/>
  <outline>
    <contour>
      <point x="58" y="0" type="line"/>
      <point x="201" y="0" type="line"/>
      <point x="201" y="146" type="line"/>
      <point x="328" y="146" type="line" smooth="yes"/>
      <point x="459" y="146"/>
      <point x="564" y="251"/>
      <point x="564" y="377" type="curve" smooth="yes"/>
      <point x="564" y="436"/>
      <point x="535" y="500"/>
      <point x="495" y="540" type="curve" smooth="yes"/>
      <point x="458" y="577"/>
      <point x="390" y="608"/>
      <point x="328" y="608" type="curve" smooth="yes"/>
      <point x="201" y="608" type="line"/>
      <point x="201" y="694" type="line"/>
      <point x="58" y="694" type="line"/>
    </contour>
    <contour>
      <point x="201" y="279" type="line"/>
      <point x="201" y="475" type="line"/>
      <point x="328" y="475" type="line" smooth="yes"/>
      <point x="353" y="475"/>
      <point x="374" y="466"/>
      <point x="394" y="447" type="curve"/>
      <point x="410" y="430"/>
      <point x="421" y="406"/>
      <point x="421" y="377" type="curve" smooth="yes"/>
      <point x="421" y="321"/>
      <point x="379" y="279"/>
      <point x="328" y="279" type="curve" smooth="yes"/>
    </contour>
  </outline>
</glyph>
<glyph name="germandbls" format="2">
  <advance width="726"/>
  <unicode hex="00DF"/>
  <outline>
    <contour>
      <point x="50" y="0" type="line"/>
      <point x="193" y="0" type="line"/>
      <point x="193" y="700" type="line"/>
      <point x="50" y="700" type="line"/>
    </contour>
    <contour>
      <point x="461" y="-3" type="curve" smooth="yes"/>
      <point x="602" y="-3"/>
      <point x="696" y="102"/>
      <point x="696" y="223" type="curve" smooth="yes"/>
      <point x="696" y="349"/>
      <point x="627" y="418"/>
      <point x="518" y="418" type="curve"/>
      <point x="518" y="355" type="line"/>
      <point x="624" y="355"/>
      <point x="664" y="451"/>
      <point x="664" y="505" type="curve" smooth="yes"/>
      <point x="664" y="606"/>
      <point x="576" y="700"/>
      <point x="461" y="700" type="curve"/>
      <point x="461" y="557" type="line"/>
      <point x="500" y="557"/>
      <point x="524" y="537"/>
      <point x="524" y="505" type="curve" smooth="yes"/>
      <point x="524" y="468"/>
      <point x="502" y="439"/>
      <point x="437" y="439" type="curve" smooth="yes"/>
      <point x="423" y="439" type="line"/>
      <point x="423" y="323" type="line"/>
      <point x="434" y="323" type="line" smooth="yes"/>
      <point x="518" y="323"/>
      <point x="554" y="277"/>
      <point x="554" y="223" type="curve" smooth="yes"/>
      <point x="554" y="168"/>
      <point x="518" y="130"/>
      <point x="461" y="130" type="curve" smooth="yes"/>
      <point x="394" y="130"/>
      <point x="370" y="180"/>
      <point x="363" y="221" type="curve"/>
      <point x="233" y="165" type="line"/>
      <point x="248" y="95"/>
      <point x="331" y="-3"/>
    </contour>
    <contour>
      <point x="50" y="700" type="line"/>
      <point x="50" y="557" type="line"/>
      <point x="461" y="557" type="line"/>
      <point x="461" y="700" type="line"/>
    </contour>
  </outline>
</glyph>
<glyph name="atilde" format="2">
  <advance width="506.0"/>
  <unicode hex="00E3"/>
  <note>
atilde
</note>
  <outline>
    <contour>
      <point x="395.0" y="702.0" type="curve"/>
      <point x="303.0" y="702.0" type="line"/>
      <point x="309.0" y="687.0"/>
      <point x="319.0" y="664.0"/>
      <point x="305.0" y="653.0" type="curve" smooth="yes"/>
      <point x="279.0" y="634.0"/>
      <point x="233.0" y="695.0"/>
      <point x="177.0" y="695.0" type="curve" smooth="yes"/>
      <point x="107.0" y="695.0"/>
      <point x="84.0" y="628.0"/>
      <point x="95.0" y="582.0" type="curve"/>
      <point x="178.0" y="558.0" type="line"/>
      <point x="173.0" y="574.0"/>
      <point x="177.0" y="597.0"/>
      <point x="190.0" y="602.0" type="curve"/>
      <point x="220.0" y="612.0"/>
      <point x="245.0" y="564.0"/>
      <point x="308.0" y="564.0" type="curve" smooth="yes"/>
      <point x="362.0" y="564.0"/>
      <point x="424.0" y="614.0"/>
    </contour>
    <contour>
      <point x="66.0" y="407.0" type="curve"/>
      <point x="159.0" y="323.0" type="line"/>
      <point x="188.0" y="365.0"/>
      <point x="217.0" y="392.0"/>
      <point x="262.0" y="392.0" type="curve" smooth="yes"/>
      <point x="301.0" y="392.0"/>
      <point x="324.0" y="361.0"/>
      <point x="324.0" y="319.0" type="curve" smooth="yes"/>
      <point x="324.0" y="308.0" type="line"/>
      <point x="302.0" y="314.0"/>
      <point x="270.0" y="319.0"/>
      <point x="239.0" y="319.0" type="curve" smooth="yes"/>
      <point x="133.0" y="319.0"/>
      <point x="37.0" y="279.0"/>
      <point x="37.0" y="153.0" type="curve" smooth="yes"/>
      <point x="37.0" y="82.0"/>
      <point x="91.0" y="-5.0"/>
      <point x="213.0" y="-5.0" type="curve" smooth="yes"/>
      <point x="272.0" y="-5.0"/>
      <point x="306.0" y="15.0"/>
      <point x="324.0" y="36.0" type="curve"/>
      <point x="324.0" y="0.0" type="line"/>
      <point x="461.0" y="0.0" type="line"/>
      <point x="461.0" y="319.0" type="line" smooth="yes"/>
      <point x="461.0" y="434.0"/>
      <point x="371.0" y="509.0"/>
      <point x="262.0" y="509.0" type="curve" smooth="yes"/>
      <point x="165.0" y="509.0"/>
      <point x="103.0" y="459.0"/>
    </contour>
    <contour>
      <point x="263.0" y="220.0" type="curve" smooth="yes"/>
      <point x="282.0" y="220.0"/>
      <point x="306.0" y="217.0"/>
      <point x="324.0" y="212.0" type="curve"/>
      <point x="320.0" y="158.0"/>
      <point x="281.0" y="121.0"/>
      <point x="217.0" y="121.0" type="curve" smooth="yes"/>
      <point x="180.0" y="121.0"/>
      <point x="164.0" y="141.0"/>
      <point x="164.0" y="161.0" type="curve" smooth="yes"/>
      <point x="164.0" y="204.0"/>
      <point x="201.0" y="220.0"/>
    </contour>
  </outline>
</glyph>
<glyph name="ae" format="2">
  <advance width="890"/>
  <unicode hex="00E6"/>
  <anchor x="445" y="500" name="top"/>
  <outline>
    <contour>
      <point x="627" y="-11" type="curve" smooth="yes"/>
      <point x="732" y="-11"/>
      <point x="803" y="40"/>
      <point x="842" y="107" type="curve"/>
      <point x="739" y="191" type="line"/>
      <point x="725" y="147"/>
      <point x="685" y="112"/>
      <point x="627" y="112" type="curve" smooth="yes"/>
      <point x="558" y="112"/>
      <point x="508" y="147"/>
      <point x="508" y="219" type="curve"/>
      <point x="837" y="219" type="line"/>
      <point x="854" y="329"/>
      <point x="834" y="390"/>
      <point x="795" y="437" type="curve" smooth="yes"/>
      <point x="757" y="484"/>
      <point x="699" y="513"/>
      <point x="626" y="513" type="curve" smooth="yes"/>
      <point x="534" y="513"/>
      <point x="467" y="473"/>
      <point x="425" y="417" type="curve"/>
      <point x="390" y="474"/>
      <point x="325" y="508"/>
      <point x="252" y="508" type="curve" smooth="yes"/>
      <point x="155" y="508"/>
      <point x="93" y="458"/>
      <point x="56" y="406" type="curve"/>
      <point x="149" y="323" type="line"/>
      <point x="178" y="364"/>
      <point x="207" y="389"/>
      <point x="252" y="389" type="curve" smooth="yes"/>
      <point x="291" y="389"/>
      <point x="314" y="360"/>
      <point x="314" y="318" type="curve" smooth="yes"/>
      <point x="314" y="311" type="line"/>
      <point x="300" y="314"/>
      <point x="285" y="316"/>
      <point x="266" y="317" type="curve" smooth="yes"/>
      <point x="147" y="327"/>
      <point x="27" y="293"/>
      <point x="27" y="153" type="curve" smooth="yes"/>
      <point x="27" y="82"/>
      <point x="81" y="-5"/>
      <point x="203" y="-5" type="curve" smooth="yes"/>
      <point x="266" y="-5"/>
      <point x="301" y="8"/>
      <point x="332" y="26" type="curve" smooth="yes"/>
      <point x="362" y="44"/>
      <point x="390" y="70"/>
      <point x="413" y="101" type="curve"/>
      <point x="454" y="36"/>
      <point x="525" y="-11"/>
    </contour>
    <contour>
      <point x="207" y="121" type="curve" smooth="yes"/>
      <point x="170" y="121"/>
      <point x="154" y="141"/>
      <point x="154" y="161" type="curve" smooth="yes"/>
      <point x="154" y="204"/>
      <point x="191" y="216"/>
      <point x="253" y="216" type="curve" smooth="yes"/>
      <point x="272" y="216"/>
      <point x="300" y="214"/>
      <point x="314" y="212" type="curve"/>
      <point x="314" y="154"/>
      <point x="271" y="121"/>
    </contour>
    <contour>
      <point x="521" y="327" type="line"/>
      <point x="532" y="369"/>
      <point x="570" y="402"/>
      <point x="626" y="402" type="curve" smooth="yes"/>
      <point x="677" y="402"/>
      <point x="716" y="359"/>
      <point x="713" y="327" type="curve"/>
    </contour>
  </outline>
</glyph>
<glyph name="ecircumflex" format="2">
  <advance width="555.0"/>
  <unicode hex="00EA"/>
  <note>
ecircumflex
</note>
  <outline>
    <contour>
      <point x="138.0" y="558.0" type="line"/>
      <point x="289.0" y="617.0" type="line"/>
      <point x="440.0" y="558.0" type="line"/>
      <point x="466.0" y="643.0" type="line"/>
      <point x="289.0" y="743.0" type="line"/>
      <point x="112.0" y="643.0" type="line"/>
    </contour>
    <contour>
      <point x="506.0" y="107.0" type="curve"/>
      <point x="402.0" y="191.0" type="line"/>
      <point x="389.0" y="147.0"/>
      <point x="349.0" y="112.0"/>
      <point x="290.0" y="112.0" type="curve" smooth="yes"/>
      <point x="221.0" y="112.0"/>
      <point x="172.0" y="147.0"/>
      <point x="172.0" y="219.0" type="curve"/>
      <point x="501.0" y="219.0" type="line"/>
      <point x="517.0" y="329.0"/>
      <point x="497.0" y="390.0"/>
      <point x="459.0" y="437.0" type="curve" smooth="yes"/>
      <point x="421.0" y="483.0"/>
      <point x="363.0" y="513.0"/>
      <point x="289.0" y="513.0" type="curve" smooth="yes"/>
      <point x="120.0" y="513.0"/>
      <point x="35.0" y="379.0"/>
      <point x="35.0" y="251.0" type="curve" smooth="yes"/>
      <point x="35.0" y="123.0"/>
      <point x="118.0" y="-11.0"/>
      <point x="290.0" y="-11.0" type="curve" smooth="yes"/>
      <point x="395.0" y="-11.0"/>
      <point x="466.0" y="40.0"/>
    </contour>
    <contour>
      <point x="377.0" y="327.0" type="curve"/>
      <point x="184.0" y="327.0" type="line"/>
      <point x="196.0" y="369.0"/>
      <point x="233.0" y="402.0"/>
      <point x="289.0" y="402.0" type="curve" smooth="yes"/>
      <point x="341.0" y="402.0"/>
      <point x="380.0" y="359.0"/>
    </contour>
  </outline>
</glyph>
<glyph name="igrave" format="2">
  <advance width="273.0"/>
  <unicode hex="00EC"/>
  <note>
igrave
</note>
  <outline>
    <contour>
      <point x="224.0" y="534.0" type="line"/>
      <point x="250.0" y="620.0" type="line"/>
      <point x="53.0" y="729.0" type="line"/>
      <point x="19.0" y="615.0" type="line"/>
    </contour>
    <contour>
      <point x="64.0" y="506.0" type="line"/>
      <point x="64.0" y="0.0" type="line"/>
      <point x="201.0" y="0.0" type="line"/>
      <point x="201.0" y="506.0" type="line"/>
    </contour>
  </outline>
</glyph>
<glyph name="idieresis" format="2">
  <advance width="273.0"/>
  <unicode hex="00EF"/>
  <note>
idieresis
</note>
  <outline>
    <contour>
      <point x="-54.0" y="615.0" type="curve" smooth="yes"/>
      <point x="-54.0" y="578.0"/>
      <point x="-21.0" y="546.0"/>
      <point x="18.0" y="546.0" type="curve" smooth="yes"/>
      <point x="57.0" y="546.0"/>
      <point x="89.0" y="578.0"/>
      <point x="89.0" y="615.0" type="curve" smooth="yes"/>
      <point x="89.0" y="651.0"/>
      <point x="57.0" y="684.0"/>
      <point x="18.0" y="684.0" type="curve" smooth="yes"/>
      <point x="-21.0" y="684.0"/>
      <point x="-54.0" y="651.0"/>
    </contour>
    <contour>
      <point x="174.0" y="615.0" type="curve" smooth="yes"/>
      <point x="174.0" y="578.0"/>
      <point x="207.0" y="546.0"/>
      <point x="246.0" y="546.0" type="curve" smooth="yes"/>
      <point x="285.0" y="546.0"/>
      <point x="317.0" y="578.0"/>
      <point x="317.0" y="615.0" type="curve" smooth="yes"/>
      <point x="317.0" y="651.0"/>
      <point x="285.0" y="684.0"/>
      <point x="246.0" y="684.0" type="curve" smooth="yes"/>
      <point x="207.0" y="684.0"/>
      <point x="174.0" y="651.0"/>
    </contour>
    <contour>
      <point x="64.0" y="506.0" type="line"/>
      <point x="64.0" y="0.0" type="line"/>
      <point x="201.0" y="0.0" type="line"/>
      <point x="201.0" y="506.0" type="line"/>
    </contour>
  </outline>
</glyph>
<glyph name="eth" format="2">
  <advance width="600"/>
  <unicode hex="00F0"/>
  <outline>
    <contour>
      <point x="294" y="-3" type="curve" smooth="yes"/>
      <point x="421" y="-3"/>
      <point x="513" y="114"/>
      <point x="513" y="261" type="curve" smooth="yes"/>
      <point x="513" y="412"/>
      <point x="460" y="564"/>
      <point x="349" y="655" type="curve"/>
      <point x="413" y="728" type="line"/>
      <point x="331" y="798" type="line"/>
      <point x="256" y="711" type="line"/>
      <point x="202" y="733"/>
      <point x="140" y="744"/>
      <point x="71" y="737" type="curve"/>
      <point x="71" y="604" type="line"/>
      <point x="103" y="609"/>
      <point x="133" y="608"/>
      <point x="161" y="602" type="curve"/>
      <point x="135" y="572" type="line"/>
      <point x="216" y="502" type="line"/>
      <point x="258" y="551" type="line"/>
      <point x="275" y="536"/>
      <point x="294" y="516"/>
      <point x="307" y="496" type="curve"/>
      <point x="305" y="497"/>
      <point x="299" y="498"/>
      <point x="294" y="498" type="curve" smooth="yes"/>
      <point x="171" y="498"/>
      <point x="74" y="381"/>
      <point x="74" y="248" type="curve" smooth="yes"/>
      <point x="74" y="112"/>
      <point x="170" y="-3"/>
    </contour>
    <contour>
      <point x="294" y="130" type="curve" smooth="yes"/>
      <point x="258" y="130"/>
      <point x="217" y="177"/>
      <point x="217" y="248" type="curve" smooth="yes"/>
      <point x="217" y="319"/>
      <point x="249" y="366"/>
      <point x="294" y="366" type="curve" smooth="yes"/>
      <point x="329" y="366"/>
      <point x="371" y="319"/>
      <point x="371" y="249" type="curve" smooth="yes"/>
      <point x="371" y="174"/>
      <point x="338" y="130"/>
    </contour>
  </outline>
</glyph>
<glyph name="otilde" format="2">
  <advance width="591.0"/>
  <unicode hex="00F5"/>
  <note>
otilde
</note>
  <outline>
    <contour>
      <point x="437.0" y="702.0" type="curve"/>
      <point x="346.0" y="702.0" type="line"/>
      <point x="352.0" y="688.0"/>
      <point x="362.0" y="664.0"/>
      <point x="348.0" y="654.0" type="curve" smooth="yes"/>
      <point x="322.0" y="635.0"/>
      <point x="275.0" y="695.0"/>
      <point x="219.0" y="695.0" type="curve" smooth="yes"/>
      <point x="150.0" y="695.0"/>
      <point x="127.0" y="629.0"/>
      <point x="137.0" y="583.0" type="curve"/>
      <point x="220.0" y="558.0" type="line"/>
      <point x="216.0" y="575.0"/>
      <point x="220.0" y="598.0"/>
      <point x="233.0" y="603.0" type="curve"/>
      <point x="262.0" y="613.0"/>
      <point x="288.0" y="564.0"/>
      <point x="351.0" y="564.0" type="curve" smooth="yes"/>
      <point x="405.0" y="564.0"/>
      <point x="466.0" y="615.0"/>
    </contour>
    <contour>
      <point x="555.0" y="251.0" type="curve" smooth="yes"/>
      <point x="555.0" y="393.0"/>
      <point x="439.0" y="510.0"/>
      <point x="295.0" y="510.0" type="curve" smooth="yes"/>
      <point x="152.0" y="510.0"/>
      <point x="35.0" y="394.0"/>
      <point x="35.0" y="251.0" type="curve" smooth="yes"/>
      <point x="35.0" y="109.0"/>
      <point x="150.0" y="-8.0"/>
      <point x="295.0" y="-8.0" type="curve" smooth="yes"/>
      <point x="440.0" y="-8.0"/>
      <point x="555.0" y="110.0"/>
    </contour>
    <contour>
      <point x="418.0" y="251.0" type="curve" smooth="yes"/>
      <point x="418.0" y="178.0"/>
      <point x="361.0" y="120.0"/>
      <point x="295.0" y="120.0" type="curve" smooth="yes"/>
      <point x="229.0" y="120.0"/>
      <point x="172.0" y="177.0"/>
      <point x="172.0" y="251.0" type="curve" smooth="yes"/>
      <point x="172.0" y="325.0"/>
      <point x="230.0" y="382.0"/>
      <point x="295.0" y="382.0" type="curve" smooth="yes"/>
      <point x="361.0" y="382.0"/>
      <point x="418.0" y="325.0"/>
    </contour>
  </outline>
</glyph>
<glyph name="divide" format="2">
  <advance width="600.0"/>
  <unicode hex="00F7"/>
  <note>
divide
</note>
  <outline>
    <contour>
      <point x="300.0" y="427.0" type="curve" smooth="yes"/>
      <point x="354.0" y="427.0"/>
      <point x="396.0" y="469.0"/>
      <point x="396.0" y="520.0" type="curve" smooth="yes"/>
      <point x="396.0" y="572.0"/>
      <point x="354.0" y="614.0"/>
      <point x="300.0" y="614.0" type="curve" smooth="yes"/>
      <point x="246.0" y="614.0"/>
      <point x="204.0" y="572.0"/>
      <point x="204.0" y="520.0" type="curve" smooth="yes"/>
      <point x="204.0" y="469.0"/>
      <point x="246.0" y="427.0"/>
    </contour>
    <contour>
      <point x="25.0" y="241.0" type="line"/>
      <point x="587.0" y="241.0" type="line"/>
      <point x="587.0" y="373.0" type="line"/>
      <point x="25.0" y="373.0" type="line"/>
    </contour>
    <contour>
      <point x="300.0" y="-31.0" type="curve" smooth="yes"/>
      <point x="354.0" y="-31.0"/>
      <point x="396.0" y="11.0"/>
      <point x="396.0" y="63.0" type="curve" smooth="yes"/>
      <point x="396.0" y="114.0"/>
      <point x="354.0" y="156.0"/>
      <point x="300.0" y="156.0" type="curve" smooth="yes"/>
      <point x="246.0" y="156.0"/>
      <point x="204.0" y="114.0"/>
      <point x="204.0" y="63.0" type="curve" smooth="yes"/>
      <point x="204.0" y="11.0"/>
      <point x="246.0" y="-31.0"/>
    </contour>
  </outline>
</glyph>
<glyph name="oslash" format="2">
  <advance width="591.0"/>
  <unicode hex="00F8"/>
  <note>
oslash
</note>
  <outline>
    <contour>
      <point x="428.0" y="474.0" type="curve"/>
      <point x="476.0" y="623.0" type="line"/>
      <point x="368.0" y="657.0" type="line"/>
      <point x="320.0" y="508.0" type="line"/>
      <point x="312.0" y="509.0"/>
      <point x="303.0" y="510.0"/>
      <point x="295.0" y="510.0" type="curve" smooth="yes"/>
      <point x="152.0" y="510.0"/>
      <point x="35.0" y="394.0"/>
      <point x="35.0" y="251.0" type="curve" smooth="yes"/>
      <point x="35.0" y="156.0"/>
      <point x="87.0" y="72.0"/>
      <point x="164.0" y="27.0" type="curve"/>
      <point x="125.0" y="-95.0" type="line"/>
      <point x="233.0" y="-126.0" type="line"/>
      <point x="272.0" y="-7.0" type="line"/>
      <point x="280.0" y="-8.0"/>
      <point x="287.0" y="-8.0"/>
      <point x="295.0" y="-8.0" type="curve" smooth="yes"/>
      <point x="440.0" y="-8.0"/>
      <point x="555.0" y="110.0"/>
      <point x="555.0" y="251.0" type="curve" smooth="yes"/>
      <point x="555.0" y="345.0"/>
      <point x="504.0" y="429.0"/>
    </contour>
    <contour>
      <point x="279.0" y="381.0" type="curve"/>
      <point x="207.0" y="159.0" type="line"/>
      <point x="186.0" y="183.0"/>
      <point x="172.0" y="215.0"/>
      <point x="172.0" y="251.0" type="curve" smooth="yes"/>
      <point x="172.0" y="319.0"/>
      <point x="220.0" y="373.0"/>
    </contour>
    <contour>
      <point x="313.0" y="121.0" type="curve"/>
      <point x="385.0" y="341.0" type="line"/>
      <point x="405.0" y="317.0"/>
      <point x="418.0" y="286.0"/>
      <point x="418.0" y="251.0" type="curve" smooth="yes"/>
      <point x="418.0" y="185.0"/>
      <point x="371.0" y="131.0"/>
    </contour>
  </outline>
</glyph>
<glyph name="ucircumflex" format="2">
  <advance width="569.0"/>
  <unicode hex="00FB"/>
  <note>
ucircumflex
</note>
  <outline>
    <contour>
      <point x="132.0" y="552.0" type="line"/>
      <point x="283.0" y="611.0" type="line"/>
      <point x="434.0" y="552.0" type="line"/>
      <point x="460.0" y="637.0" type="line"/>
      <point x="283.0" y="736.0" type="line"/>
      <point x="106.0" y="637.0" type="line"/>
    </contour>
    <contour>
      <point x="368.0" y="22.0" type="curve"/>
      <point x="368.0" y="0.0" type="line"/>
      <point x="505.0" y="0.0" type="line"/>
      <point x="505.0" y="506.0" type="line"/>
      <point x="368.0" y="506.0" type="line"/>
      <point x="368.0" y="197.0" type="line"/>
      <point x="360.0" y="159.0"/>
      <point x="325.0" y="121.0"/>
      <point x="279.0" y="121.0" type="curve" smooth="yes"/>
      <point x="226.0" y="121.0"/>
      <point x="200.0" y="153.0"/>
      <point x="200.0" y="228.0" type="curve" smooth="yes"/>
      <point x="200.0" y="506.0" type="line"/>
      <point x="63.0" y="506.0" type="line"/>
      <point x="63.0" y="228.0" type="line" smooth="yes"/>
      <point x="63.0" y="86.0"/>
      <point x="147.0" y="-5.0"/>
      <point x="276.0" y="-5.0" type="curve" smooth="yes"/>
      <point x="311.0" y="-5.0"/>
      <point x="342.0" y="5.0"/>
    </contour>
  </outline>
</glyph>
<glyph name="udieresis" format="2">
  <advance width="568.0"/>
  <unicode hex="00FC"/>
  <note>
udieresis
</note>
  <outline>
    <contour>
      <point x="31.0" y="608.0" type="curve" smooth="yes"/>
      <point x="31.0" y="571.0"/>
      <point x="64.0" y="539.0"/>
      <point x="103.0" y="539.0" type="curve" smooth="yes"/>
      <point x="142.0" y="539.0"/>
      <point x="174.0" y="571.0"/>
      <point x="174.0" y="608.0" type="curve" smooth="yes"/>
      <point x="174.0" y="644.0"/>
      <point x="142.0" y="677.0"/>
      <point x="103.0" y="677.0" type="curve" smooth="yes"/>
      <point x="64.0" y="677.0"/>
      <point x="31.0" y="644.0"/>
    </contour>
    <contour>
      <point x="402.0" y="608.0" type="curve" smooth="yes"/>
      <point x="402.0" y="571.0"/>
      <point x="434.0" y="539.0"/>
      <point x="473.0" y="539.0" type="curve" smooth="yes"/>
      <point x="512.0" y="539.0"/>
      <point x="545.0" y="571.0"/>
      <point x="545.0" y="608.0" type="curve" smooth="yes"/>
      <point x="545.0" y="644.0"/>
      <point x="512.0" y="677.0"/>
      <point x="473.0" y="677.0" type="curve" smooth="yes"/>
      <point x="434.0" y="677.0"/>
      <point x="402.0" y="644.0"/>
    </contour>
    <contour>
      <point x="363.0" y="22.0" type="curve"/>
      <point x="363.0" y="0.0" type="line"/>
      <point x="500.0" y="0.0" type="line"/>
      <point x="500.0" y="506.0" type="line"/>
      <point x="363.0" y="506.0" type="line"/>
      <point x="363.0" y="197.0" type="line"/>
      <point x="355.0" y="159.0"/>
      <point x="320.0" y="121.0"/>
      <point x="274.0" y="121.0" type="curve" smooth="yes"/>
      <point x="221.0" y="121.0"/>
      <point x="195.0" y="153.0"/>
      <point x="195.0" y="228.0" type="curve" smooth="yes"/>
      <point x="195.0" y="506.0" type="line"/>
      <point x="58.0" y="506.0" type="line"/>
      <point x="58.0" y="228.0" type="line" smooth="yes"/>
      <point x="58.0" y="86.0"/>
      <point x="142.0" y="-5.0"/>
      <point x="271.0" y="-5.0" type="curve" smooth="yes"/>
      <point x="306.0" y="-5.0"/>
      <point x="337.0" y="5.0"/>
    </contour>
  </outline>
</glyph>
<glyph name="thorn" format="2">
  <advance width="596"/>
  <unicode hex="00FE"/>
  <outline>
    <contour>
      <point x="50" y="-200" type="line"/>
      <point x="188" y="-200" type="line"/>
      <point x="188" y="26" type="line"/>
      <point x="215" y="4"/>
      <point x="249" y="-6"/>
      <point x="299" y="-6" type="curve" smooth="yes"/>
      <point x="453" y="-6"/>
      <point x="561" y="107"/>
      <point x="561" y="250" type="curve" smooth="yes"/>
      <point x="561" y="394"/>
      <point x="447" y="506"/>
      <point x="294" y="506" type="curve" smooth="yes"/>
      <point x="245" y="506"/>
      <point x="209" y="494"/>
      <point x="188" y="471" type="curve"/>
      <point x="188" y="700" type="line"/>
      <point x="50" y="700" type="line"/>
    </contour>
    <contour>
      <point x="299" y="121" type="curve" smooth="yes"/>
      <point x="237" y="121"/>
      <point x="202" y="150"/>
      <point x="188" y="180" type="curve"/>
      <point x="188" y="324" type="line"/>
      <point x="200" y="353"/>
      <point x="231" y="379"/>
      <point x="294" y="379" type="curve" smooth="yes"/>
      <point x="367" y="379"/>
      <point x="424" y="327"/>
      <point x="424" y="250" type="curve" smooth="yes"/>
      <point x="424" y="177"/>
      <point x="372" y="121"/>
    </contour>
  </outline>
</glyph>
<glyph name="dotlessi" format="2">
  <advance width="237"/>
  <unicode hex="0131"/>
  <anchor x="118" y="0" name="bottom"/>
  <anchor x="118" y="500" name="top"/>
  <outline>
    <contour>
      <point x="50" y="0" type="line"/>
      <point x="187" y="0" type="line"/>
      <point x="187" y="500" type="line"/>
      <point x="50" y="500" type="line"/>
    </contour>
  </outline>
</glyph>
<glyph name="kgreenlandic" format="2">
  <advance width="595"/>
  <unicode hex="0138"/>
  <anchor x="297" y="0" name="bottom"/>
  <anchor x="297" y="500" name="top"/>
  <outline>
    <contour>
      <point x="75" y="0" type="line"/>
      <point x="212" y="0" type="line"/>
      <point x="212" y="280" type="line"/>
      <point x="180" y="185" type="line"/>
      <point x="267" y="255" type="line"/>
      <point x="427" y="0" type="line"/>
      <point x="575" y="0" type="line"/>
      <point x="339" y="377" type="line"/>
      <point x="338" y="311" type="line"/>
      <point x="578" y="500" type="line"/>
      <point x="361" y="500" type="line"/>
      <point x="197" y="373" type="line"/>
      <point x="212" y="356" type="line"/>
      <point x="212" y="500" type="line"/>
      <point x="75" y="500" type="line"/>
    </contour>
  </outline>
</glyph>
<glyph name="Lslash" format="2">
  <advance width="535"/>
  <unicode hex="0141"/>
  <anchor x="292" y="0" name="bottom"/>
  <anchor x="272" y="700" name="top"/>
  <outline>
    <contour>
      <point x="12" y="245" type="line"/>
      <point x="382" y="409" type="line"/>
      <point x="384" y="555" type="line"/>
      <point x="12" y="391" type="line"/>
    </contour>
    <component base="L"/>
  </outline>
</glyph>
<glyph name="lslash" format="2">
  <advance width="355"/>
  <unicode hex="0142"/>
  <outline>
    <contour>
      <point x="112" y="0" type="line"/>
      <point x="250" y="0" type="line"/>
      <point x="250" y="359" type="line"/>
      <point x="350" y="405" type="line"/>
      <point x="304" y="501" type="line"/>
      <point x="250" y="476" type="line"/>
      <point x="250" y="700" type="line"/>
      <point x="112" y="700" type="line"/>
      <point x="112" y="412" type="line"/>
      <point x="19" y="369" type="line"/>
      <point x="65" y="273" type="line"/>
      <point x="112" y="295" type="line"/>
    </contour>
  </outline>
</glyph>
<glyph name="Eng" format="2">
  <advance width="724"/>
  <unicode hex="014A"/>
  <anchor x="367" y="0" name="bottom"/>
  <anchor x="367" y="700" name="top"/>
  <outline>
    <contour>
      <point x="649" y="0" type="line"/>
      <point x="519" y="0" type="line"/>
      <point x="519" y="-35" type="line" smooth="yes"/>
      <point x="519" y="-69"/>
      <point x="508" y="-76"/>
      <point x="492" y="-76" type="curve" smooth="yes"/>
      <point x="470" y="-76"/>
      <point x="426" y="-66"/>
      <point x="400" y="-45" type="curve"/>
      <point x="400" y="-169" type="line"/>
      <point x="425" y="-185"/>
      <point x="450" y="-203"/>
      <point x="504" y="-203" type="curve" smooth="yes"/>
      <point x="586" y="-203"/>
      <point x="649" y="-159"/>
      <point x="649" y="-35" type="curve" smooth="yes"/>
    </contour>
    <component base="N"/>
  </outline>
</glyph>
<glyph name="eng" format="2">
  <advance width="564"/>
  <unicode hex="014B"/>
  <anchor x="282" y="0" name="bottom"/>
  <anchor x="282" y="500" name="top"/>
  <outline>
    <contour>
      <point x="524" y="0" type="line"/>
      <point x="387" y="0" type="line"/>
      <point x="387" y="-35" type="line" smooth="yes"/>
      <point x="387" y="-69"/>
      <point x="376" y="-76"/>
      <point x="360" y="-76" type="curve" smooth="yes"/>
      <point x="338" y="-76"/>
      <point x="307" y="-66"/>
      <point x="281" y="-45" type="curve"/>
      <point x="281" y="-169" type="line"/>
      <point x="306" y="-185"/>
      <point x="331" y="-203"/>
      <point x="385" y="-203" type="curve" smooth="yes"/>
      <point x="467" y="-203"/>
      <point x="524" y="-159"/>
      <point x="524" y="-35" type="curve" smooth="yes"/>
    </contour>
    <component base="n"/>
  </outline>
</glyph>
<glyph name="OE" format="2">
  <advance width="1045.0"/>
  <unicode hex="0152"/>
  <note>
OE
</note>
  <outline>
    <contour>
      <point x="515.0" y="24.0" type="curve"/>
      <point x="515.0" y="0.0" type="line"/>
      <point x="1000.0" y="0.0" type="line"/>
      <point x="1000.0" y="132.0" type="line"/>
      <point x="658.0" y="132.0" type="line"/>
      <point x="658.0" y="287.0" type="line"/>
      <point x="933.0" y="287.0" type="line"/>
      <point x="933.0" y="419.0" type="line"/>
      <point x="658.0" y="419.0" type="line"/>
      <point x="658.0" y="568.0" type="line"/>
      <point x="999.0" y="568.0" type="line"/>
      <point x="999.0" y="700.0" type="line"/>
      <point x="515.0" y="700.0" type="line"/>
      <point x="515.0" y="679.0" type="line"/>
      <point x="475.0" y="694.0"/>
      <point x="432.0" y="702.0"/>
      <point x="387.0" y="702.0" type="curve" smooth="yes"/>
      <point x="190.0" y="702.0"/>
      <point x="36.0" y="542.0"/>
      <point x="36.0" y="351.0" type="curve" smooth="yes"/>
      <point x="36.0" y="157.0"/>
      <point x="193.0" y="0.0"/>
      <point x="387.0" y="0.0" type="curve" smooth="yes"/>
      <point x="430.0" y="0.0"/>
      <point x="474.0" y="8.0"/>
    </contour>
    <contour>
      <point x="515.0" y="501.0" type="curve"/>
      <point x="515.0" y="200.0" type="line"/>
      <point x="476.0" y="164.0"/>
      <point x="425.0" y="145.0"/>
      <point x="376.0" y="145.0" type="curve" smooth="yes"/>
      <point x="266.0" y="145.0"/>
      <point x="174.0" y="236.0"/>
      <point x="174.0" y="351.0" type="curve" smooth="yes"/>
      <point x="174.0" y="464.0"/>
      <point x="264.0" y="558.0"/>
      <point x="376.0" y="558.0" type="curve" smooth="yes"/>
      <point x="429.0" y="558.0"/>
      <point x="479.0" y="536.0"/>
    </contour>
  </outline>
</glyph>
<glyph name="oe" format="2">
  <advance width="1003"/>
  <unicode hex="0153"/>
  <outline>
    <contour>
      <point x="738" y="-11" type="curve" smooth="yes"/>
      <point x="843" y="-11"/>
      <point x="914" y="40"/>
      <point x="954" y="107" type="curve"/>
      <point x="850" y="191" type="line"/>
      <point x="837" y="147"/>
      <point x="797" y="112"/>
      <point x="738" y="112" type="curve" smooth="yes"/>
      <point x="669" y="112"/>
      <point x="620" y="147"/>
      <point x="620" y="219" type="curve"/>
      <point x="949" y="219" type="line"/>
      <point x="965" y="329"/>
      <point x="945" y="390"/>
      <point x="907" y="437" type="curve" smooth="yes"/>
      <point x="869" y="483"/>
      <point x="811" y="513"/>
      <point x="737" y="513" type="curve" smooth="yes"/>
      <point x="629" y="513"/>
      <point x="556" y="459"/>
      <point x="517" y="387" type="curve"/>
      <point x="471" y="460"/>
      <point x="389" y="510"/>
      <point x="295" y="510" type="curve" smooth="yes"/>
      <point x="152" y="510"/>
      <point x="35" y="394"/>
      <point x="35" y="251" type="curve" smooth="yes"/>
      <point x="35" y="109"/>
      <point x="150" y="-8"/>
      <point x="295" y="-8" type="curve" smooth="yes"/>
      <point x="389" y="-8"/>
      <point x="471" y="42"/>
      <point x="516" y="115" type="curve"/>
      <point x="556" y="43"/>
      <point x="629" y="-11"/>
    </contour>
    <contour>
      <point x="295" y="120" type="curve" smooth="yes"/>
      <point x="229" y="120"/>
      <point x="172" y="177"/>
      <point x="172" y="251" type="curve" smooth="yes"/>
      <point x="172" y="325"/>
      <point x="230" y="382"/>
      <point x="295" y="382" type="curve" smooth="yes"/>
      <point x="361" y="382"/>
      <point x="418" y="325"/>
      <point x="418" y="251" type="curve" smooth="yes"/>
      <point x="418" y="178"/>
      <point x="361" y="120"/>
    </contour>
    <contour>
      <point x="632" y="327" type="line"/>
      <point x="644" y="369"/>
      <point x="681" y="402"/>
      <point x="737" y="402" type="curve" smooth="yes"/>
      <point x="789" y="402"/>
      <point x="828" y="359"/>
      <point x="825" y="327" type="curve"/>
    </contour>
  </outline>
</glyph>
<glyph name="florin" format="2">
  <advance width="600.0"/>
  <unicode hex="0192"/>
  <note>
florin
</note>
  <outline>
    <contour>
      <point x="488.0" y="595.0" type="curve"/>
      <point x="532.0" y="721.0" type="line"/>
      <point x="508.0" y="736.0"/>
      <point x="446.0" y="766.0"/>
      <point x="388.0" y="766.0" type="curve" smooth="yes"/>
      <point x="321.0" y="766.0"/>
      <point x="241.0" y="734.0"/>
      <point x="214.0" y="632.0" type="curve" smooth="yes"/>
      <point x="191.0" y="546.0" type="line"/>
      <point x="84.0" y="546.0" type="line"/>
      <point x="46.0" y="414.0" type="line"/>
      <point x="155.0" y="414.0" type="line"/>
      <point x="19.0" y="-96.0" type="line"/>
      <point x="164.0" y="-96.0" type="line"/>
      <point x="301.0" y="414.0" type="line"/>
      <point x="442.0" y="414.0" type="line"/>
      <point x="480.0" y="546.0" type="line"/>
      <point x="336.0" y="546.0" type="line"/>
      <point x="348.0" y="588.0" type="line"/>
      <point x="358.0" y="629.0"/>
      <point x="383.0" y="634.0"/>
      <point x="398.0" y="634.0" type="curve" smooth="yes"/>
      <point x="422.0" y="634.0"/>
      <point x="449.0" y="628.0"/>
    </contour>
  </outline>
</glyph>
<glyph name="Nhookleft" format="2">
  <advance width="724"/>
  <unicode hex="019D"/>
  <anchor x="367" y="0" name="bottom"/>
  <anchor x="367" y="700" name="top"/>
  <outline>
    <contour>
      <point x="218" y="0" type="line"/>
      <point x="75" y="0" type="line"/>
      <point x="75" y="-35" type="line" smooth="yes"/>
      <point x="75" y="-69"/>
      <point x="64" y="-76"/>
      <point x="48" y="-76" type="curve" smooth="yes"/>
      <point x="26" y="-76"/>
      <point x="-5" y="-66"/>
      <point x="-31" y="-45" type="curve"/>
      <point x="-31" y="-169" type="line"/>
      <point x="-6" y="-185"/>
      <point x="19" y="-203"/>
      <point x="73" y="-203" type="curve" smooth="yes"/>
      <point x="155" y="-203"/>
      <point x="218" y="-159"/>
      <point x="218" y="-35" type="curve" smooth="yes"/>
    </contour>
    <component base="N"/>
  </outline>
</glyph>
<glyph name="jdotless" format="2">
  <advance width="237"/>
  <unicode hex="0237"/>
  <anchor x="118" y="500" name="top"/>
  <outline>
    <contour>
      <point x="-67" y="-178" type="line"/>
      <point x="56" y="-197"/>
      <point x="187" y="-126"/>
      <point x="187" y="22" type="curve" smooth="yes"/>
      <point x="187" y="500" type="line"/>
      <point x="50" y="500" type="line"/>
      <point x="50" y="22" type="line" smooth="yes"/>
      <point x="50" y="-43"/>
      <point x="-5" y="-66"/>
      <point x="-67" y="-49" type="curve"/>
    </contour>
  </outline>
</glyph>
<glyph name="nhookleft" format="2">
  <advance width="564"/>
  <unicode hex="0272"/>
  <anchor x="282" y="0" name="bottom"/>
  <anchor x="282" y="500" name="top"/>
  <outline>
    <contour>
      <point x="187" y="0" type="line"/>
      <point x="50" y="0" type="line"/>
      <point x="50" y="-35" type="line" smooth="yes"/>
      <point x="50" y="-69"/>
      <point x="39" y="-76"/>
      <point x="23" y="-76" type="curve" smooth="yes"/>
      <point x="1" y="-76"/>
      <point x="-30" y="-66"/>
      <point x="-56" y="-45" type="curve"/>
      <point x="-56" y="-169" type="line"/>
      <point x="-31" y="-185"/>
      <point x="-6" y="-203"/>
      <point x="48" y="-203" type="curve" smooth="yes"/>
      <point x="130" y="-203"/>
      <point x="187" y="-159"/>
      <point x="187" y="-35" type="curve" smooth="yes"/>
    </contour>
    <component base="n"/>
  </outline>
</glyph>
<glyph name="circumflex" format="2">
  <advance width="600.0"/>
  <unicode hex="02C6"/>
  <note>
circumflex
</note>
  <outline>
    <contour>
      <point x="132.0" y="545.0" type="line"/>
      <point x="283.0" y="604.0" type="line"/>
      <point x="434.0" y="545.0" type="line"/>
      <point x="460.0" y="631.0" type="line"/>
      <point x="283.0" y="730.0" type="line"/>
      <point x="106.0" y="631.0" type="line"/>
    </contour>
  </outline>
</glyph>
<glyph name="caron" format="2">
  <advance width="600.0"/>
  <unicode hex="02C7"/>
  <note>
caron
</note>
  <outline>
    <contour>
      <point x="283.0" y="660.0" type="line"/>
      <point x="112.0" y="719.0" type="line"/>
      <point x="86.0" y="633.0" type="line"/>
      <point x="283.0" y="534.0" type="line"/>
      <point x="480.0" y="633.0" type="line"/>
      <point x="454.0" y="719.0" type="line"/>
    </contour>
  </outline>
</glyph>
<glyph name="breve" format="2">
  <advance width="600.0"/>
  <unicode hex="02D8"/>
  <note>
breve
</note>
  <outline>
    <contour>
      <point x="440.0" y="720.0" type="curve"/>
      <point x="336.0" y="720.0" type="line"/>
      <point x="336.0" y="682.0"/>
      <point x="321.0" y="667.0"/>
      <point x="298.0" y="667.0" type="curve" smooth="yes"/>
      <point x="275.0" y="667.0"/>
      <point x="260.0" y="682.0"/>
      <point x="260.0" y="720.0" type="curve"/>
      <point x="155.0" y="720.0" type="line"/>
      <point x="144.0" y="663.0"/>
      <point x="177.0" y="566.0"/>
      <point x="298.0" y="566.0" type="curve" smooth="yes"/>
      <point x="413.0" y="566.0"/>
      <point x="452.0" y="657.0"/>
    </contour>
  </outline>
</glyph>
<glyph name="dotaccent" format="2">
  <advance width="203.0"/>
  <unicode hex="02D9"/>
  <note>
dotaccent
</note>
  <outline>
    <contour>
      <point x="30.0" y="630.0" type="curve" smooth="yes"/>
      <point x="30.0" y="593.0"/>
      <point x="63.0" y="561.0"/>
      <point x="102.0" y="561.0" type="curve" smooth="yes"/>
      <point x="140.0" y="561.0"/>
      <point x="173.0" y="593.0"/>
      <point x="173.0" y="630.0" type="curve" smooth="yes"/>
      <point x="173.0" y="666.0"/>
      <point x="140.0" y="699.0"/>
      <point x="102.0" y="699.0" type="curve" smooth="yes"/>
      <point x="63.0" y="699.0"/>
      <point x="30.0" y="666.0"/>
    </contour>
  </outline>
</glyph>
<glyph name="ring" format="2">
  <advance width="600.0"/>
  <unicode hex="02DA"/>
  <note>
ring
</note>
  <outline>
    <contour>
      <point x="435.0" y="613.0" type="curve" smooth="yes"/>
      <point x="435.0" y="686.0"/>
      <point x="375.0" y="745.0"/>
      <point x="300.0" y="745.0" type="curve" smooth="yes"/>
      <point x="225.0" y="745.0"/>
      <point x="165.0" y="686.0"/>
      <point x="165.0" y="613.0" type="curve" smooth="yes"/>
      <point x="165.0" y="540.0"/>
      <point x="225.0" y="480.0"/>
      <point x="300.0" y="480.0" type="curve" smooth="yes"/>
      <point x="375.0" y="480.0"/>
      <point x="435.0" y="540.0"/>
    </contour>
    <contour>
      <point x="347.0" y="613.0" type="curve" smooth="yes"/>
      <point x="347.0" y="584.0"/>
      <point x="325.0" y="562.0"/>
      <point x="300.0" y="562.0" type="curve" smooth="yes"/>
      <point x="274.0" y="562.0"/>
      <point x="253.0" y="584.0"/>
      <point x="253.0" y="613.0" type="curve" smooth="yes"/>
      <point x="253.0" y="641.0"/>
      <point x="274.0" y="663.0"/>
      <point x="300.0" y="663.0" type="curve" smooth="yes"/>
      <point x="325.0" y="663.0"/>
      <point x="347.0" y="641.0"/>
    </contour>
  </outline>
</glyph>
<glyph name="ogonek" format="2">
  <advance width="600.0"/>
  <unicode hex="02DB"/>
  <note>
ogonek
</note>
  <outline>
    <contour>
      <point x="282.0" y="-44.0" type="curve"/>
      <point x="282.0" y="61.0" type="line"/>
      <point x="225.0" y="71.0"/>
      <point x="128.0" y="39.0"/>
      <point x="128.0" y="-82.0" type="curve" smooth="yes"/>
      <point x="128.0" y="-197.0"/>
      <point x="220.0" y="-236.0"/>
      <point x="282.0" y="-225.0" type="curve"/>
      <point x="282.0" y="-120.0" type="line"/>
      <point x="244.0" y="-120.0"/>
      <point x="229.0" y="-105.0"/>
      <point x="229.0" y="-82.0" type="curve" smooth="yes"/>
      <point x="229.0" y="-60.0"/>
      <point x="244.0" y="-44.0"/>
    </contour>
  </outline>
</glyph>
<glyph name="tilde" format="2">
  <advance width="600.0"/>
  <unicode hex="02DC"/>
  <note>
tilde
</note>
  <outline>
    <contour>
      <point x="457.0" y="693.0" type="curve"/>
      <point x="366.0" y="693.0" type="line"/>
      <point x="371.0" y="679.0"/>
      <point x="381.0" y="656.0"/>
      <point x="367.0" y="645.0" type="curve" smooth="yes"/>
      <point x="341.0" y="626.0"/>
      <point x="295.0" y="687.0"/>
      <point x="239.0" y="687.0" type="curve" smooth="yes"/>
      <point x="170.0" y="687.0"/>
      <point x="147.0" y="620.0"/>
      <point x="157.0" y="574.0" type="curve"/>
      <point x="240.0" y="550.0" type="line"/>
      <point x="235.0" y="566.0"/>
      <point x="239.0" y="589.0"/>
      <point x="253.0" y="594.0" type="curve" smooth="yes"/>
      <point x="282.0" y="604.0"/>
      <point x="308.0" y="556.0"/>
      <point x="370.0" y="556.0" type="curve" smooth="yes"/>
      <point x="424.0" y="556.0"/>
      <point x="486.0" y="606.0"/>
    </contour>
  </outline>
</glyph>
<glyph name="hungarumlaut" format="2">
  <advance width="600.0"/>
  <unicode hex="02DD"/>
  <note>
hungarumlaut
</note>
  <outline>
    <contour>
      <point x="239.0" y="577.0" type="line"/>
      <point x="312.0" y="764.0" type="line"/>
      <point x="206.0" y="764.0" type="line"/>
      <point x="146.0" y="577.0" type="line"/>
    </contour>
    <contour>
      <point x="419.0" y="577.0" type="line"/>
      <point x="493.0" y="764.0" type="line"/>
      <point x="386.0" y="764.0" type="line"/>
      <point x="326.0" y="577.0" type="line"/>
    </contour>
  </outline>
</glyph>
<glyph name="acutecomb" format="2">
  <unicode hex="0301"/>
  <anchor x="300" y="500" name="_top"/>
  <anchor x="299" y="802" name="top"/>
  <outline>
    <contour>
      <point x="213" y="519" type="line"/>
      <point x="507" y="700" type="line"/>
      <point x="435" y="814" type="line"/>
      <point x="153" y="602" type="line"/>
    </contour>
  </outline>
</glyph>
<glyph name="circumflexcomb" format="2">
  <unicode hex="0302"/>
  <anchor x="284" y="500" name="_top"/>
  <anchor x="283" y="722" name="top"/>
  <outline>
    <contour>
      <point x="283" y="775" type="line"/>
      <point x="36" y="641" type="line"/>
      <point x="84" y="545" type="line"/>
      <point x="283" y="626" type="line"/>
      <point x="482" y="545" type="line"/>
      <point x="530" y="641" type="line"/>
    </contour>
  </outline>
</glyph>
<glyph name="tildecomb" format="2">
  <unicode hex="0303"/>
  <anchor x="300" y="500" name="_top"/>
  <anchor x="309" y="742" name="top"/>
  <outline>
    <contour>
      <point x="222" y="630" type="curve" smooth="yes"/>
      <point x="254" y="630"/>
      <point x="276" y="576"/>
      <point x="379" y="576" type="curve" smooth="yes"/>
      <point x="473" y="576"/>
      <point x="539" y="651"/>
      <point x="498" y="752" type="curve"/>
      <point x="361" y="752" type="line"/>
      <point x="377" y="713"/>
      <point x="374" y="698"/>
      <point x="360" y="698" type="curve" smooth="yes"/>
      <point x="336" y="698"/>
      <point x="295" y="752"/>
      <point x="203" y="752" type="curve" smooth="yes"/>
      <point x="109" y="752"/>
      <point x="43" y="677"/>
      <point x="84" y="576" type="curve"/>
      <point x="221" y="576" type="line"/>
      <point x="205" y="615"/>
      <point x="208" y="630"/>
    </contour>
  </outline>
</glyph>
<glyph name="brevecomb" format="2">
  <unicode hex="0306"/>
  <anchor x="300" y="500" name="_top"/>
  <anchor x="299" y="722" name="top"/>
  <outline>
    <contour>
      <point x="298" y="566" type="curve" smooth="yes"/>
      <point x="453" y="566"/>
      <point x="504" y="684"/>
      <point x="504" y="747" type="curve"/>
      <point x="376" y="747" type="line"/>
      <point x="376" y="709"/>
      <point x="341" y="694"/>
      <point x="298" y="694" type="curve" smooth="yes"/>
      <point x="255" y="694"/>
      <point x="220" y="709"/>
      <point x="220" y="747" type="curve"/>
      <point x="92" y="747" type="line"/>
      <point x="92" y="684"/>
      <point x="143" y="566"/>
    </contour>
  </outline>
</glyph>
<glyph name="dotaccentcomb" format="2">
  <unicode hex="0307"/>
  <anchor x="300" y="500" name="_top"/>
  <anchor x="299" y="722" name="top"/>
  <outline>
    <contour>
      <point x="300" y="544" type="curve" smooth="yes"/>
      <point x="346" y="544"/>
      <point x="385" y="583"/>
      <point x="385" y="630" type="curve" smooth="yes"/>
      <point x="385" y="676"/>
      <point x="346" y="715"/>
      <point x="300" y="715" type="curve" smooth="yes"/>
      <point x="253" y="715"/>
      <point x="214" y="676"/>
      <point x="214" y="630" type="curve" smooth="yes"/>
      <point x="214" y="583"/>
      <point x="253" y="544"/>
    </contour>
  </outline>
</glyph>
<glyph name="ringcomb" format="2">
  <unicode hex="030A"/>
  <anchor x="300" y="500" name="_top"/>
  <anchor x="299" y="832" name="top"/>
  <outline>
    <contour>
      <point x="300" y="530" type="curve" smooth="yes"/>
      <point x="390" y="530"/>
      <point x="462" y="602"/>
      <point x="462" y="689" type="curve" smooth="yes"/>
      <point x="462" y="777"/>
      <point x="390" y="847"/>
      <point x="300" y="847" type="curve" smooth="yes"/>
      <point x="210" y="847"/>
      <point x="138" y="777"/>
      <point x="138" y="689" type="curve" smooth="yes"/>
      <point x="138" y="602"/>
      <point x="210" y="530"/>
    </contour>
    <contour>
      <point x="300" y="652" type="curve" smooth="yes"/>
      <point x="278" y="652"/>
      <point x="263" y="668"/>
      <point x="263" y="689" type="curve" smooth="yes"/>
      <point x="263" y="709"/>
      <point x="278" y="725"/>
      <point x="300" y="725" type="curve" smooth="yes"/>
      <point x="321" y="725"/>
      <point x="337" y="709"/>
      <point x="337" y="689" type="curve" smooth="yes"/>
      <point x="337" y="668"/>
      <point x="321" y="652"/>
    </contour>
  </outline>
</glyph>
<glyph name="hungarumlautcomb" format="2">
  <unicode hex="030B"/>
  <anchor x="300" y="500" name="_top"/>
  <anchor x="300" y="812" name="top"/>
  <outline>
    <contour>
      <point x="326" y="577" type="line"/>
      <point x="439" y="577" type="line"/>
      <point x="523" y="800" type="line"/>
      <point x="376" y="800" type="line"/>
    </contour>
    <contour>
      <point x="106" y="577" type="line"/>
      <point x="219" y="577" type="line"/>
      <point x="302" y="800" type="line"/>
      <point x="156" y="800" type="line"/>
    </contour>
  </outline>
</glyph>
<glyph name="cedillacomb" format="2">
  <unicode hex="0327"/>
  <anchor x="300" y="0" name="_bottom"/>
  <outline>
    <contour>
      <point x="300" y="-129" type="line"/>
      <point x="301" y="-49" type="line"/>
      <point x="294" y="-49" type="line"/>
      <point x="308" y="2" type="line"/>
      <point x="261" y="2" type="line"/>
      <point x="202" y="-129" type="line"/>
    </contour>
    <contour>
      <point x="300" y="-129" type="line"/>
      <point x="314" y="-129"/>
      <point x="337" y="-131"/>
      <point x="337" y="-147" type="curve" smooth="yes"/>
      <point x="337" y="-169"/>
      <point x="300" y="-171"/>
      <point x="277" y="-171" type="curve" smooth="yes"/>
      <point x="241" y="-171"/>
      <point x="191" y="-159"/>
      <point x="182" y="-149" type="curve"/>
      <point x="182" y="-250" type="line"/>
      <point x="199" y="-262"/>
      <point x="245" y="-271"/>
      <point x="277" y="-271" type="curve" smooth="yes"/>
      <point x="350" y="-271"/>
      <point x="438" y="-240"/>
      <point x="437" y="-143" type="curve" smooth="yes"/>
      <point x="436" y="-64"/>
      <point x="354" y="-49"/>
      <point x="301" y="-49" type="curve"/>
    </contour>
  </outline>
</glyph>
<glyph name="ogonekcomb" format="2">
  <unicode hex="0328"/>
  <anchor x="253" y="-6" name="_ogonek"/>
  <outline>
    <contour>
      <point x="351" y="-237" type="curve" smooth="yes"/>
      <point x="377" y="-237"/>
      <point x="408" y="-231"/>
      <point x="425" y="-226" type="curve"/>
      <point x="425" y="-134" type="line"/>
      <point x="411" y="-141"/>
      <point x="391" y="-148"/>
      <point x="368" y="-148" type="curve" smooth="yes"/>
      <point x="307" y="-148"/>
      <point x="284" y="-121"/>
      <point x="284" y="-82" type="curve" smooth="yes"/>
      <point x="284" y="-61"/>
      <point x="296" y="-30"/>
      <point x="324" y="6" type="curve"/>
      <point x="253" y="6" type="line"/>
      <point x="208" y="-44"/>
      <point x="200" y="-86"/>
      <point x="200" y="-116" type="curve" smooth="yes"/>
      <point x="200" y="-199"/>
      <point x="267" y="-237"/>
    </contour>
  </outline>
</glyph>
<glyph name="Delta" format="2">
  <advance width="600.0"/>
  <unicode hex="0394"/>
  <note>
Delta
</note>
  <outline>
    <contour>
      <point x="636.0" y="4.0" type="line"/>
      <point x="322.0" y="762.0" type="line"/>
      <point x="7.0" y="4.0" type="line"/>
    </contour>
    <contour>
      <point x="215.0" y="136.0" type="line"/>
      <point x="322.0" y="393.0" type="line"/>
      <point x="429.0" y="136.0" type="line"/>
    </contour>
  </outline>
</glyph>
<glyph name="Omega" format="2">
  <advance width="835.0"/>
  <unicode hex="03A9"/>
  <note>
Omega
</note>
  <outline>
    <contour>
      <point x="522.0" y="131.0" type="curve"/>
      <point x="522.0" y="-1.0" type="line"/>
      <point x="804.0" y="-1.0" type="line"/>
      <point x="804.0" y="131.0" type="line"/>
      <point x="700.0" y="131.0" type="line"/>
      <point x="740.0" y="187.0"/>
      <point x="766.0" y="254.0"/>
      <point x="766.0" y="323.0" type="curve" smooth="yes"/>
      <point x="766.0" y="500.0"/>
      <point x="612.0" y="669.0"/>
      <point x="418.0" y="669.0" type="curve" smooth="yes"/>
      <point x="223.0" y="669.0"/>
      <point x="69.0" y="500.0"/>
      <point x="69.0" y="323.0" type="curve" smooth="yes"/>
      <point x="69.0" y="253.0"/>
      <point x="95.0" y="187.0"/>
      <point x="136.0" y="131.0" type="curve"/>
      <point x="31.0" y="131.0" type="line"/>
      <point x="31.0" y="-1.0" type="line"/>
      <point x="313.0" y="-1.0" type="line"/>
      <point x="313.0" y="131.0" type="line"/>
      <point x="262.0" y="164.0"/>
      <point x="212.0" y="240.0"/>
      <point x="212.0" y="323.0" type="curve" smooth="yes"/>
      <point x="212.0" y="432.0"/>
      <point x="309.0" y="537.0"/>
      <point x="418.0" y="537.0" type="curve" smooth="yes"/>
      <point x="527.0" y="537.0"/>
      <point x="623.0" y="432.0"/>
      <point x="623.0" y="323.0" type="curve" smooth="yes"/>
      <point x="623.0" y="238.0"/>
      <point x="573.0" y="163.0"/>
    </contour>
  </outline>
</glyph>
<glyph name="mu" format="2">
  <advance width="600"/>
  <unicode hex="03BC"/>
  <outline>
    <contour>
      <point x="80" y="-237" type="line"/>
      <point x="222" y="-237" type="line"/>
      <point x="222" y="-17" type="line"/>
      <point x="243" y="-23"/>
      <point x="268" y="-27"/>
      <point x="295" y="-27" type="curve" smooth="yes"/>
      <point x="345" y="-27"/>
      <point x="385" y="-13"/>
      <point x="416" y="9" type="curve"/>
      <point x="448" y="-16"/>
      <point x="494" y="-31"/>
      <point x="562" y="-21" type="curve"/>
      <point x="562" y="122" type="line"/>
      <point x="504" y="89"/>
      <point x="493" y="121"/>
      <point x="493" y="153" type="curve" smooth="yes"/>
      <point x="493" y="474" type="line"/>
      <point x="350" y="474" type="line"/>
      <point x="350" y="175" type="line" smooth="yes"/>
      <point x="351" y="130"/>
      <point x="334" y="106"/>
      <point x="295" y="106" type="curve" smooth="yes"/>
      <point x="222" y="106"/>
      <point x="222" y="149"/>
      <point x="222" y="247" type="curve" smooth="yes"/>
      <point x="222" y="474" type="line"/>
      <point x="80" y="474" type="line"/>
    </contour>
  </outline>
</glyph>
<glyph name="pi" format="2">
  <advance width="600.0"/>
  <unicode hex="03C0"/>
  <note>
pi
</note>
  <outline>
    <contour>
      <point x="493.0" y="165.0" type="curve" smooth="yes"/>
      <point x="493.0" y="352.0" type="line"/>
      <point x="594.0" y="352.0" type="line"/>
      <point x="594.0" y="484.0" type="line"/>
      <point x="6.0" y="484.0" type="line"/>
      <point x="6.0" y="352.0" type="line"/>
      <point x="88.0" y="352.0" type="line"/>
      <point x="88.0" y="-12.0" type="line"/>
      <point x="231.0" y="-12.0" type="line"/>
      <point x="231.0" y="352.0" type="line"/>
      <point x="350.0" y="352.0" type="line"/>
      <point x="350.0" y="165.0" type="line" smooth="yes"/>
      <point x="350.0" y="123.0"/>
      <point x="375.0" y="-36.0"/>
      <point x="562.0" y="-9.0" type="curve"/>
      <point x="562.0" y="134.0" type="line"/>
      <point x="505.0" y="101.0"/>
      <point x="493.0" y="133.0"/>
    </contour>
  </outline>
</glyph>
